<svg width="35" height="40" viewBox="0 0 35 40" fill="none" xmlns="http://www.w3.org/2000/svg">
    <path
        d="M17.3964 19.8777C22.7791 19.8777 27.1416 15.5152 27.1416 10.1326C27.1416 4.74988 22.7791 0.38739 17.3964 0.38739C12.0137 0.38739 7.65123 4.74988 7.65123 10.1326C7.65123 15.5152 12.0137 19.8777 17.3964 19.8777ZM24.218 22.314H22.9466C21.2564 23.0906 19.3759 23.5322 17.3964 23.5322C15.4169 23.5322 13.544 23.0906 11.8462 22.314H10.5748C4.92562 22.314 0.342346 26.8973 0.342346 32.5465V35.7136C0.342346 37.7312 1.97923 39.3681 3.99679 39.3681H30.796C32.8136 39.3681 34.4505 37.7312 34.4505 35.7136V32.5465C34.4505 26.8973 29.8672 22.314 24.218 22.314Z"
        fill="black" />
</svg>