<svg width="35" height="35" viewBox="0 0 35 35" fill="none" xmlns="http://www.w3.org/2000/svg">
    <path
        d="M21.4002 17.4366L33.6105 5.25472C34.1452 4.72002 34.4456 3.9948 34.4456 3.23861C34.4456 2.48242 34.1452 1.7572 33.6105 1.22249C33.0758 0.687786 32.3506 0.38739 31.5944 0.38739C30.8382 0.38739 30.113 0.687786 29.5783 1.22249L17.3964 13.4328L5.21452 1.22249C4.67982 0.687786 3.9546 0.38739 3.19841 0.38739C2.44222 0.38739 1.717 0.687786 1.18229 1.22249C0.647588 1.7572 0.347192 2.48242 0.347192 3.23861C0.347192 3.9948 0.647588 4.72002 1.18229 5.25472L13.3926 17.4366L1.18229 29.6185C0.916143 29.8825 0.704894 30.1965 0.560732 30.5425C0.416569 30.8886 0.342346 31.2597 0.342346 31.6346C0.342346 32.0094 0.416569 32.3806 0.560732 32.7266C0.704894 33.0727 0.916143 33.3867 1.18229 33.6507C1.44627 33.9169 1.76033 34.1281 2.10637 34.2723C2.4524 34.4164 2.82355 34.4907 3.19841 34.4907C3.57327 34.4907 3.94442 34.4164 4.29045 34.2723C4.63648 34.1281 4.95055 33.9169 5.21452 33.6507L17.3964 21.4404L29.5783 33.6507C29.8423 33.9169 30.1563 34.1281 30.5023 34.2723C30.8484 34.4164 31.2195 34.4907 31.5944 34.4907C31.9693 34.4907 32.3404 34.4164 32.6864 34.2723C33.0325 34.1281 33.3465 33.9169 33.6105 33.6507C33.8767 33.3867 34.0879 33.0727 34.2321 32.7266C34.3762 32.3806 34.4505 32.0094 34.4505 31.6346C34.4505 31.2597 34.3762 30.8886 34.2321 30.5425C34.0879 30.1965 33.8767 29.8825 33.6105 29.6185L21.4002 17.4366Z"
        fill="currentColor" />
</svg>