<svg width="69" height="69" viewBox="0 0 69 69" fill="none" xmlns="http://www.w3.org/2000/svg">
    <path
        d="M59.4072 25.327H31.6045C28.1923 25.327 25.4261 28.0932 25.4261 31.5054V59.3081C25.4261 62.7203 28.1923 65.4865 31.6045 65.4865H59.4072C62.8194 65.4865 65.5856 62.7203 65.5856 59.3081V31.5054C65.5856 28.0932 62.8194 25.327 59.4072 25.327Z"
        stroke="currentColor" stroke-width="6.17838" stroke-linecap="round" stroke-linejoin="round" />
    <path
        d="M13.0694 43.8622H9.98018C8.34157 43.8622 6.77008 43.2112 5.6114 42.0526C4.45273 40.8939 3.8018 39.3224 3.8018 37.6838V9.88108C3.8018 8.24247 4.45273 6.67098 5.6114 5.51231C6.77008 4.35364 8.34157 3.7027 9.98018 3.7027H37.7829C39.4215 3.7027 40.993 4.35364 42.1517 5.51231C43.3103 6.67098 43.9613 8.24247 43.9613 9.88108V12.9703"
        stroke="currentColor" stroke-width="6.17838" stroke-linecap="round" stroke-linejoin="round" />
</svg>