<svg width="62" height="71" viewBox="0 0 62 71" fill="none" xmlns="http://www.w3.org/2000/svg">
    <path
        d="M59.5772 4.41315H43.028L41.7316 1.83423C41.457 1.28288 41.034 0.819104 40.5102 0.495065C39.9864 0.171025 39.3825 -0.000417587 38.7666 2.41794e-05H23.0034C22.3889 -0.0023383 21.7861 0.168465 21.2641 0.492865C20.7421 0.817265 20.3221 1.28214 20.0521 1.83423L18.7558 4.41315H2.20656C1.62135 4.41315 1.0601 4.64563 0.646288 5.05944C0.232477 5.47325 0 6.0345 0 6.61972L0 11.0328C0 11.6181 0.232477 12.1793 0.646288 12.5931C1.0601 13.0069 1.62135 13.2394 2.20656 13.2394H59.5772C60.1624 13.2394 60.7237 13.0069 61.1375 12.5931C61.5513 12.1793 61.7838 11.6181 61.7838 11.0328V6.61972C61.7838 6.0345 61.5513 5.47325 61.1375 5.05944C60.7237 4.64563 60.1624 4.41315 59.5772 4.41315ZM7.33682 64.4041C7.44207 66.0847 8.18381 67.662 9.41107 68.815C10.6383 69.9679 12.2588 70.6098 13.9427 70.6101H47.8411C49.5249 70.6098 51.1455 69.9679 52.3727 68.815C53.6 67.662 54.3417 66.0847 54.447 64.4041L57.3707 17.6525H4.41313L7.33682 64.4041Z"
        fill="currentColor" />
</svg>