<svg version="1.1" id="Layer_1" xmlns="http://www.w3.org/2000/svg" xmlns:xlink="http://www.w3.org/1999/xlink" x="0px" y="0px"
	 width="100%" viewBox="0 0 1734 494" enable-background="new 0 0 1734 494" xml:space="preserve">
<path fill="#000000" opacity="1.000000" stroke="none" 
	d="
M1157.000000,495.000000 
	C772.876282,495.000000 389.252594,494.990112 5.628953,495.125305 
	C1.317303,495.126831 0.903358,493.933380 0.905936,490.129913 
	C1.015385,328.648071 1.021589,167.166138 0.880050,5.684340 
	C0.876375,1.490883 1.897223,0.898234 5.814719,0.898956 
	C580.583679,1.004864 1155.352661,1.007535 1730.121582,0.865314 
	C1734.679321,0.864186 1735.088501,2.210908 1735.086060,6.120495 
	C1734.985596,167.602341 1734.982544,329.084290 1735.104126,490.566101 
	C1735.107056,494.466034 1734.063599,495.088287 1730.434814,495.086426 
	C1539.456543,494.988586 1348.478271,495.000000 1157.000000,495.000000 
z"/>
<path fill="#FCFCFC" opacity="1.000000" stroke="none" 
	d="
M335.946503,202.630707 
	C327.130707,205.171524 318.933563,208.826141 310.156494,210.660263 
	C301.151581,212.542007 292.145996,213.534988 282.948853,212.093521 
	C257.263550,208.067810 253.552124,186.406982 259.079956,170.038406 
	C263.673981,156.435043 274.177948,147.669357 285.795929,140.244614 
	C309.359680,125.185677 335.374969,120.424301 362.605560,124.749489 
	C389.819031,129.071945 403.955963,144.440552 409.112366,171.431259 
	C411.253326,182.638153 411.758667,193.899200 411.782043,205.190979 
	C411.903503,263.844574 411.824768,322.498535 411.867004,381.152344 
	C411.870117,385.470001 412.418121,389.785706 412.469910,394.105225 
	C412.598724,404.853333 417.508728,412.647583 426.511200,418.311707 
	C428.828705,419.769836 430.155457,419.732513 432.478485,418.355957 
	C442.483765,412.427155 446.591339,403.456207 446.834961,392.253754 
	C446.910950,388.759033 447.146729,385.265717 447.147400,381.771729 
	C447.164978,288.125549 447.163452,194.479340 447.154358,100.833153 
	C447.153992,96.836983 447.085754,92.839966 446.988495,88.844818 
	C446.704498,77.179001 443.565460,66.972130 432.989655,60.253681 
	C429.993347,58.350212 427.478851,55.688267 424.776367,53.402061 
	C425.647217,52.265751 426.530121,52.493824 427.325287,52.493439 
	C448.987213,52.482929 470.650513,52.610741 492.309937,52.377720 
	C496.602600,52.331535 496.198547,54.527485 496.196869,57.312943 
	C496.165283,110.301331 496.173553,163.289749 496.173553,216.278168 
	C496.173553,271.099518 496.166595,325.920837 496.189880,380.742188 
	C496.191376,384.232513 496.555420,387.723602 496.531830,391.212860 
	C496.445618,403.970917 502.012634,413.395142 512.933105,419.880676 
	C515.430969,421.364166 517.589111,423.419617 520.927307,426.004486 
	C518.339966,426.004486 516.937866,426.004486 515.535767,426.004486 
	C456.715302,426.004486 397.894653,426.085114 339.074493,425.955292 
	C321.452606,425.916412 304.105042,424.033539 287.189453,418.302917 
	C259.765503,409.012390 243.527130,390.527130 238.683029,361.997040 
	C234.487030,337.284210 237.488342,313.691498 250.315628,291.887817 
	C259.528442,276.227966 272.512726,263.687286 285.814911,251.598984 
	C302.915222,236.059204 320.518738,221.068130 336.400513,203.759491 
	C336.494537,203.166412 336.356293,202.857559 335.946503,202.630707 
z"/>
<path fill="#FDFDFD" opacity="1.000000" stroke="none" 
	d="
M1488.965576,202.684784 
	C1474.330566,208.079819 1459.854736,213.105209 1444.232422,212.786514 
	C1436.014160,212.618851 1428.075562,211.037216 1421.214722,206.012192 
	C1411.191406,198.670914 1407.585083,182.354233 1412.804321,169.390610 
	C1418.921997,154.194855 1430.803833,144.540100 1444.502075,137.134232 
	C1469.201050,123.780624 1495.663818,119.413773 1523.022583,126.290756 
	C1541.612793,130.963638 1554.889893,142.372284 1560.266479,161.855179 
	C1563.987427,175.338333 1565.202148,188.962112 1565.191040,202.833832 
	C1565.145020,260.994171 1565.147095,319.154633 1565.208862,377.314972 
	C1565.215210,383.292358 1565.873169,389.266541 1565.991577,395.246918 
	C1566.216919,406.645660 1572.775635,413.803040 1581.736694,419.498413 
	C1582.761719,420.149872 1583.464722,420.192108 1584.392700,419.549530 
	C1592.789551,413.735413 1599.866211,407.156036 1599.987305,395.803192 
	C1600.063599,388.659058 1600.945679,381.520569 1600.951294,374.379120 
	C1601.020996,284.055603 1601.002563,193.731964 1600.987183,103.408379 
	C1600.985962,95.589920 1600.608154,87.796486 1599.523682,80.030945 
	C1598.476074,72.529175 1595.072266,66.691658 1588.819336,62.288452 
	C1585.093140,59.664555 1581.810791,56.410374 1577.212646,52.487160 
	C1581.612061,52.487160 1584.541016,52.487164 1587.470093,52.487164 
	C1606.468018,52.487164 1625.467896,52.634636 1644.462402,52.377209 
	C1648.877441,52.317364 1649.949097,53.464756 1649.943481,57.883259 
	C1649.807129,165.204865 1649.842896,272.526642 1649.823730,379.848419 
	C1649.822388,387.018982 1650.222290,394.134735 1651.505737,401.205658 
	C1652.501099,406.688873 1654.984741,411.067780 1659.595947,414.383728 
	C1664.312256,417.775391 1668.768677,421.528656 1673.383423,425.158630 
	C1672.450928,426.744019 1670.973633,425.961090 1669.830200,425.962006 
	C1610.669922,426.008759 1551.509521,426.076538 1492.349487,425.958008 
	C1474.866821,425.922974 1457.588501,424.104980 1440.860474,418.467957 
	C1412.062256,408.763489 1395.805786,388.966553 1391.764526,358.813477 
	C1388.624878,335.388489 1391.657593,313.218292 1403.468872,292.477905 
	C1407.530151,285.345978 1412.653320,279.040161 1418.068970,272.970581 
	C1433.607300,255.556183 1451.895996,241.032639 1468.746216,224.995346 
	C1475.863403,218.221451 1482.711548,211.164780 1489.791260,203.907272 
	C1489.430542,203.465759 1490.166748,202.459839 1488.965576,202.684784 
z"/>
<path fill="#FDFDFD" opacity="1.000000" stroke="none" 
	d="
M230.225067,182.215698 
	C211.189468,202.711990 188.764404,218.743469 167.670700,236.317932 
	C153.741013,247.923615 138.576584,258.102386 126.432289,271.773071 
	C123.562088,275.003967 120.885132,278.416931 118.262733,281.855530 
	C112.826759,288.983429 110.483116,296.971863 110.592216,306.037598 
	C110.920982,333.360046 110.814949,360.687500 110.994148,388.012238 
	C111.019150,391.823486 111.533737,395.654572 112.103386,399.434021 
	C113.048820,405.706665 115.396210,411.088593 121.070564,414.834869 
	C125.738297,417.916504 129.924286,421.727844 134.926376,425.693512 
	C102.315926,425.693512 70.439667,425.693512 37.609581,425.693512 
	C41.930248,422.235779 45.537350,418.700409 49.735203,416.129700 
	C57.579514,411.325897 60.184200,403.957611 60.893425,395.531097 
	C61.423862,389.228790 61.847763,382.894623 61.851929,376.574341 
	C61.912151,285.263153 61.893429,193.951920 61.892986,102.640694 
	C61.892948,94.302162 61.539509,85.986191 59.972088,77.773453 
	C58.948288,72.409111 56.800327,67.781158 52.189102,64.329582 
	C47.683868,60.957352 43.574223,57.056629 39.358700,53.445953 
	C39.805065,52.451511 40.468117,52.485096 41.123692,52.489151 
	C81.776932,52.740597 122.450218,51.527393 163.078506,53.118164 
	C187.414062,54.071007 210.202713,60.633389 229.871094,76.045876 
	C254.772781,95.559258 262.091888,129.848907 247.079330,157.726593 
	C242.402084,166.412094 236.780273,174.410721 230.225067,182.215698 
z"/>
<path fill="#FDFDFD" opacity="1.000000" stroke="none" 
	d="
M1237.000000,426.003510 
	C1221.673340,426.003510 1206.846558,426.003510 1190.664795,426.003510 
	C1195.823486,421.911194 1199.885010,418.166901 1204.449219,415.194794 
	C1210.802246,411.057800 1213.067017,405.036133 1214.087280,398.023010 
	C1214.906250,392.392395 1215.205811,386.747559 1215.206543,381.084473 
	C1215.219604,286.439941 1215.206055,191.795395 1215.189209,97.150848 
	C1215.188843,94.985573 1215.057617,92.820641 1215.027344,90.654984 
	C1214.852295,78.134605 1212.056030,66.932770 1200.389648,59.777393 
	C1197.616577,58.076588 1195.355591,55.541122 1192.885376,53.412369 
	C1193.803101,52.117275 1194.887817,52.497952 1195.822510,52.503452 
	C1235.976440,52.739693 1276.149170,51.555946 1316.279785,53.100723 
	C1340.804688,54.044781 1363.776123,60.576542 1383.544922,76.156616 
	C1408.559937,95.871284 1415.505249,130.292542 1400.303467,158.365982 
	C1389.684082,177.977249 1374.273315,193.153717 1357.213501,206.968628 
	C1335.733643,224.363052 1314.229248,241.727890 1292.850586,259.246155 
	C1284.053589,266.454712 1276.441772,274.828247 1270.108276,284.319733 
	C1266.224731,290.139404 1264.075073,296.487152 1264.080200,303.527283 
	C1264.099243,329.354645 1264.074463,355.182129 1264.139648,381.009338 
	C1264.156860,387.842773 1264.726196,394.647217 1266.020386,401.375824 
	C1267.031006,406.629761 1269.299561,410.987701 1273.827393,414.214539 
	C1278.654663,417.654755 1283.186157,421.510040 1288.886108,426.003510 
	C1270.945190,426.003510 1254.222534,426.003510 1237.000000,426.003510 
z"/>
<path fill="#FDFDFD" opacity="1.000000" stroke="none" 
	d="
M960.561646,369.168121 
	C963.077881,379.282318 966.365173,388.646454 973.244141,396.175964 
	C985.839355,409.962036 1001.515747,409.826752 1017.808167,405.216522 
	C1034.550049,400.479156 1046.445801,389.085297 1056.702393,375.667511 
	C1057.610107,374.480042 1058.638550,373.362335 1059.387939,372.081726 
	C1060.459961,370.249695 1061.344238,369.850159 1063.199463,371.399994 
	C1067.529663,375.017700 1072.010132,378.468262 1076.577271,381.783295 
	C1078.314087,383.044006 1078.024658,383.891724 1076.944946,385.324921 
	C1054.000732,415.780731 1025.102783,433.171509 985.414246,428.222565 
	C962.899109,425.415070 943.278625,417.136017 927.176514,400.916748 
	C910.777588,384.398407 903.039368,364.372864 903.022461,341.296997 
	C902.989502,296.300476 902.677673,251.298096 903.281738,206.308884 
	C903.877869,161.896790 936.959351,127.636841 981.475098,123.974640 
	C999.355896,122.503639 1017.027344,123.148857 1033.991821,129.540009 
	C1060.547852,139.544601 1073.549072,159.682236 1075.432861,187.306259 
	C1077.110718,211.909988 1066.557007,232.656769 1052.299683,251.394058 
	C1037.160645,271.290131 1018.818665,288.240723 999.485046,304.133331 
	C986.671326,314.666534 973.411804,324.592773 960.175293,334.558258 
	C958.637573,335.716003 957.990601,336.630554 957.966370,338.479095 
	C957.832825,348.656769 958.350708,358.769348 960.561646,369.168121 
z"/>
<path fill="#FDFDFD" opacity="1.000000" stroke="none" 
	d="
M673.996277,412.009521 
	C639.063293,435.634583 603.171875,434.486420 568.147339,414.674683 
	C540.419556,398.990417 526.337097,373.563171 526.205994,341.293884 
	C526.027893,297.461792 525.928955,253.626785 526.241760,209.796204 
	C526.458313,179.455597 538.194275,154.761719 564.014282,137.645950 
	C577.222778,128.890228 591.992798,124.934738 607.606445,123.761940 
	C624.301758,122.507896 640.752014,123.659187 656.678284,129.309570 
	C684.909485,139.325546 699.225220,164.378830 698.871826,193.176056 
	C698.685791,208.338058 693.063477,221.918823 686.099121,235.033447 
	C674.820862,256.271637 657.656128,272.604340 640.397095,288.691772 
	C623.298279,304.629761 604.903931,319.085144 585.771362,332.533966 
	C582.248962,335.009918 580.975037,337.601898 581.063416,341.891022 
	C581.373413,356.944885 582.919312,371.583984 589.420837,385.531128 
	C597.978882,403.889954 614.342407,410.254120 632.858765,407.134003 
	C653.364807,403.678711 667.848938,391.394531 679.972839,375.525024 
	C684.313843,369.843018 684.309937,369.831665 689.916016,374.209991 
	C692.404358,376.153381 694.671875,378.483063 697.395081,379.998840 
	C701.820312,382.462097 700.790466,384.764130 698.180542,387.908936 
	C690.948792,396.622620 683.364319,404.947601 673.996277,412.009521 
z"/>
<path fill="#FCFCFC" opacity="1.000000" stroke="none" 
	d="
M870.612915,148.905457 
	C870.533203,224.041946 870.497131,298.673218 870.561157,373.304413 
	C870.567993,381.280273 871.425415,389.166260 874.587891,396.695557 
	C877.549866,403.747467 882.059998,409.159973 889.229004,412.032379 
	C891.593079,412.979614 892.202820,414.172607 891.937927,416.785370 
	C890.681519,429.177582 890.776733,429.445557 878.628784,428.756104 
	C869.566162,428.241760 860.579407,427.005859 851.835205,424.131470 
	C834.812317,418.535614 825.188965,407.057220 822.939392,389.297760 
	C822.248291,383.841614 821.811157,378.385010 821.812439,372.881226 
	C821.829956,299.582611 821.784851,226.283936 821.923828,152.985596 
	C821.931946,148.676010 821.026123,147.289230 816.495911,147.400757 
	C804.164551,147.704391 804.158997,147.478622 804.158997,135.096909 
	C804.158997,126.159096 804.158997,126.159096 812.956543,126.159096 
	C821.824219,126.159096 821.832092,126.159088 821.822266,117.408241 
	C821.808411,105.103859 821.913818,92.808098 820.242554,80.557304 
	C819.225464,73.102104 816.547485,67.030334 809.961182,62.717773 
	C805.985046,60.114349 802.650269,56.531364 799.056335,53.413689 
	C799.500977,51.739445 800.740173,52.524487 801.515869,52.522617 
	C823.005554,52.470764 844.496338,52.586945 865.984253,52.383801 
	C869.867249,52.347092 870.631348,53.545959 870.602661,57.175720 
	C870.432800,78.664192 870.625061,100.155708 870.419800,121.643562 
	C870.383484,125.450264 871.412231,126.390800 875.103638,126.249992 
	C882.921814,125.951775 890.761963,126.273758 898.587646,126.098206 
	C901.391785,126.035309 902.371399,126.816353 902.237000,129.698959 
	C902.012268,134.519516 902.035400,139.363907 902.231567,144.186966 
	C902.338806,146.824097 901.506226,147.622620 898.864197,147.575394 
	C890.370972,147.423553 881.873291,147.515930 873.377319,147.529877 
	C872.402588,147.531479 871.341797,147.368347 870.612915,148.905457 
z"/>
<path fill="#FDFDFD" opacity="1.000000" stroke="none" 
	d="
M791.934570,420.968079 
	C790.400696,429.052826 790.399231,429.095886 782.560852,428.829987 
	C769.400635,428.383575 756.447449,426.826141 744.493469,420.759705 
	C734.305176,415.589386 727.731812,407.474640 724.993164,396.295410 
	C722.638489,386.683777 722.205933,376.880707 722.196960,367.074615 
	C722.131775,295.762787 722.121338,224.450806 722.259766,153.139175 
	C722.268311,148.741287 721.403687,146.973221 716.672913,147.396591 
	C712.936523,147.730942 707.723022,149.167526 705.692932,146.702652 
	C703.781921,144.382355 705.027527,139.403824 705.010071,135.594193 
	C704.967041,126.162109 704.995911,126.161980 714.661560,126.161934 
	C722.161804,126.161896 722.280640,126.159599 722.134949,118.608284 
	C721.897583,106.305893 722.801270,93.991539 721.118896,81.698288 
	C720.055115,73.924881 717.490356,67.405640 710.811340,62.717937 
	C706.802612,59.904369 703.236206,56.460606 699.466431,53.296234 
	C700.472595,52.038345 701.553650,52.511204 702.471497,52.509853 
	C723.964966,52.478214 745.458923,52.553703 766.951538,52.412357 
	C770.208618,52.390938 771.113525,53.239742 771.085205,56.546665 
	C770.919800,75.872765 770.963013,95.201172 771.039307,114.528397 
	C771.054199,118.304688 769.349976,123.460068 771.815552,125.480202 
	C774.136658,127.382011 779.095642,126.115875 782.895020,126.149513 
	C788.392944,126.198181 793.894165,126.262444 799.388733,126.117485 
	C801.907898,126.051018 803.238831,126.731758 802.840454,129.454910 
	C802.816650,129.618011 802.839722,129.787735 802.837708,129.954315 
	C802.768494,135.610474 804.843323,143.038254 802.037842,146.434021 
	C799.121887,149.963364 791.406372,147.256042 785.796082,147.483414 
	C781.803833,147.645218 777.796082,147.618591 773.802429,147.475311 
	C771.663330,147.398575 770.709106,148.053513 770.988342,150.259140 
	C771.092102,151.079041 771.003967,151.923187 771.003967,152.756271 
	C771.004028,224.734619 771.001526,296.712952 771.007385,368.691315 
	C771.008118,377.362549 771.441833,386.000336 774.319214,394.283478 
	C777.137939,402.397675 781.652100,409.110199 790.225098,412.115662 
	C792.502197,412.913940 793.381409,414.171570 792.533081,416.606812 
	C792.106812,417.830566 792.161804,419.222046 791.934570,420.968079 
z"/>
<path fill="#000000" opacity="1.000000" stroke="none" 
	d="
M292.008301,331.185730 
	C293.403748,304.840729 304.224396,282.539093 318.090851,261.343201 
	C330.970184,241.656158 346.986511,224.518768 362.156982,206.690704 
	C362.310150,206.510696 362.686981,206.521042 363.029541,206.422318 
	C363.923279,207.944565 363.459900,209.620743 363.460632,211.205948 
	C363.489258,274.020569 363.442078,336.835266 363.581390,399.649597 
	C363.590698,403.841064 362.879913,405.451080 358.284485,405.109528 
	C350.828827,404.555389 343.247803,405.343140 335.845520,404.482513 
	C315.993134,402.174286 304.440460,389.565308 297.535278,371.886047 
	C292.485321,358.956543 291.601990,345.380707 292.008301,331.185730 
z"/>
<path fill="#010101" opacity="1.000000" stroke="none" 
	d="
M300.460724,163.563324 
	C310.246063,150.935638 322.136627,143.292801 338.431976,144.865311 
	C346.707916,145.663956 352.551880,150.181137 355.992126,157.637558 
	C358.624756,163.343506 359.886810,169.473938 361.303680,176.041931 
	C348.901276,173.423828 338.791107,178.652695 328.498596,183.002319 
	C321.012054,186.166122 313.508179,189.200348 305.184906,189.161530 
	C298.039886,189.128220 294.532135,185.285751 295.066681,178.121246 
	C295.457794,172.878784 297.293793,168.166061 300.460724,163.563324 
z"/>
<path fill="#000000" opacity="1.000000" stroke="none" 
	d="
M335.919434,202.906326 
	C336.031128,202.541656 336.360229,202.382568 336.689331,202.223480 
	C336.756439,202.486649 336.823578,202.749817 336.746033,203.251068 
	C336.446503,203.363373 336.291656,203.237640 335.919434,202.906326 
z"/>
<path fill="#000000" opacity="1.000000" stroke="none" 
	d="
M1476.814331,401.386292 
	C1460.654419,393.353851 1452.327759,379.767822 1448.462280,363.288513 
	C1441.296875,332.742310 1446.966064,304.096741 1462.123779,276.945496 
	C1475.506226,252.974243 1493.079346,232.228760 1511.317017,211.958633 
	C1513.034302,210.049866 1514.608643,208.012436 1516.997192,205.133499 
	C1516.997192,207.660950 1516.997192,209.080704 1516.997192,210.500473 
	C1516.997192,273.634399 1516.957153,336.768433 1517.091797,399.902069 
	C1517.100342,403.891663 1516.425537,405.312592 1512.078125,405.106628 
	C1500.357910,404.551361 1488.450928,406.184601 1476.814331,401.386292 
z"/>
<path fill="#010101" opacity="1.000000" stroke="none" 
	d="
M1513.465820,169.874756 
	C1515.110596,174.450577 1514.915405,175.991028 1509.347900,175.398804 
	C1500.556030,174.463608 1492.563965,178.539307 1484.626343,181.937714 
	C1477.020020,185.194305 1469.432739,188.618073 1461.022339,189.124283 
	C1451.565063,189.693451 1448.020386,185.880066 1448.879517,176.440811 
	C1450.618042,157.337372 1478.182129,139.530273 1496.315918,145.688629 
	C1504.486328,148.463333 1508.930542,154.405090 1511.321167,162.293427 
	C1512.042114,164.672195 1512.710571,167.066849 1513.465820,169.874756 
z"/>
<path fill="#000000" opacity="1.000000" stroke="none" 
	d="
M1488.984741,202.919006 
	C1489.312744,202.395187 1490.034302,201.754440 1490.534302,201.895996 
	C1491.412720,202.144775 1490.844849,202.764389 1490.171997,203.385223 
	C1489.693359,203.436691 1489.485840,203.295517 1488.984741,202.919006 
z"/>
<path fill="#010101" opacity="1.000000" stroke="none" 
	d="
M196.758575,104.496170 
	C204.069839,132.325668 196.098465,156.364059 180.437317,178.735489 
	C171.705750,191.208252 161.263275,202.198578 150.851379,213.209030 
	C137.605530,227.216385 123.955025,240.844131 111.389908,255.862106 
	C110.256081,254.313797 110.699959,252.798843 110.699310,251.426376 
	C110.671898,193.762573 110.711136,136.098694 110.589287,78.435135 
	C110.581604,74.800743 111.293655,73.645134 115.154686,73.737190 
	C128.313614,74.050888 141.509445,73.419334 154.641541,74.102615 
	C171.284729,74.968575 185.420059,81.039513 193.694275,96.706398 
	C194.927383,99.041252 195.676468,101.631721 196.758575,104.496170 
z"/>
<path fill="#010101" opacity="1.000000" stroke="none" 
	d="
M1297.935547,219.936142 
	C1286.534668,231.850037 1275.304932,243.439392 1264.912720,255.850204 
	C1263.407837,254.735291 1264.118286,253.293747 1264.117432,252.107819 
	C1264.073975,194.168182 1264.105469,136.228470 1264.008545,78.288956 
	C1264.003052,75.016403 1264.459106,73.660782 1268.214111,73.742302 
	C1281.694092,74.034935 1295.194214,73.592377 1308.665039,74.057571 
	C1332.056885,74.865372 1348.022339,88.870651 1351.842896,111.318138 
	C1354.873779,129.126038 1352.137573,145.962341 1343.924927,162.092773 
	C1335.519287,178.602631 1323.739014,192.510406 1311.278198,205.947311 
	C1306.977295,210.585052 1302.543457,215.099716 1297.935547,219.936142 
z"/>
<path fill="#010101" opacity="1.000000" stroke="none" 
	d="
M1018.292603,169.954117 
	C1024.258179,208.097412 1016.246765,242.138214 991.790283,271.992523 
	C981.580872,284.455322 971.110413,296.607819 958.699280,306.988007 
	C958.438599,306.683197 958.072754,306.455200 958.072876,306.227356 
	C958.088501,270.415955 957.883240,234.601654 958.305115,198.794754 
	C958.453613,186.193237 960.558838,173.703033 966.386108,162.198959 
	C973.150879,148.844177 985.469788,142.402695 1000.087158,145.090912 
	C1007.142944,146.388535 1011.514465,151.471329 1014.472839,157.690262 
	C1016.254883,161.436386 1017.516418,165.412582 1018.292603,169.954117 
z"/>
<path fill="#010101" opacity="1.000000" stroke="none" 
	d="
M585.738159,171.828735 
	C589.107666,161.221130 593.858887,152.075607 604.291809,147.452347 
	C621.499084,139.827072 635.636047,146.504623 640.155396,164.681137 
	C645.180054,184.890106 644.363892,205.138687 639.357788,225.268265 
	C633.572571,248.530304 619.792725,267.088074 604.339600,284.655731 
	C598.075500,291.777039 591.565491,298.654694 584.393066,304.879211 
	C583.559692,305.602448 582.922058,306.687927 581.169983,306.471771 
	C581.169983,305.204926 581.170044,303.935699 581.170044,302.666504 
	C581.170044,269.500305 581.041992,236.333313 581.245117,203.168350 
	C581.309143,192.712570 582.401794,182.282547 585.738159,171.828735 
z"/>
</svg>