<svg width="358" height="98" viewBox="0 0 358 98" fill="none" xmlns="http://www.w3.org/2000/svg">
    <path
        d="M317.352 25.72C316.2 23.8 314.6 22.84 312.552 22.84L305.48 29.911C307.528 29.911 309.128 30.871 310.28 32.791L317.352 25.72Z"
        fill="black" />
    <path
        d="M319.143 33.848C319.143 30.3066 318.546 27.5973 317.352 25.72L310.28 32.791C311.475 34.6684 312.072 37.3777 312.072 40.919L319.143 33.848Z"
        fill="black" />
    <path
        d="M312.552 22.84C310.267 22.84 308.178 23.7879 306.283 25.6838L299.216 32.7505C301.11 30.8575 303.198 29.911 305.48 29.911L312.552 22.84Z"
        fill="black" />
    <path
        d="M310.23 29.6494C310.546 29.3338 310.851 29.176 311.143 29.176L304.072 36.247C303.779 36.247 303.475 36.4049 303.159 36.7205L310.23 29.6494Z"
        fill="black" />
    <path
        d="M311.143 29.176C312.338 29.176 312.936 30.7973 312.936 34.04L305.864 41.111C305.864 37.8684 305.267 36.247 304.072 36.247L311.143 29.176Z"
        fill="black" />
    <path
        d="M307.815 34.488C308.683 32.005 309.488 30.3925 310.229 29.6504L303.159 36.7205C302.417 37.4621 301.612 39.075 300.744 41.5591L307.815 34.488Z"
        fill="black" />
    <path
        d="M306.283 25.6838C305.169 26.7979 304.123 28.2392 303.143 30.008L296.072 37.079C297.052 35.3103 298.098 33.8689 299.211 32.7549L306.283 25.6838Z"
        fill="black" />
    <path
        d="M314.919 51.512C317.735 44.8133 319.143 38.9253 319.143 33.848L312.072 40.919C312.072 45.9964 310.664 51.8844 307.848 58.583L314.919 51.512Z"
        fill="black" />
    <path
        d="M312.936 34.04C312.936 38.1786 312.039 42.7653 310.247 47.8L303.176 54.871C304.968 49.8364 305.864 45.2497 305.864 41.111L312.936 34.04Z"
        fill="black" />
    <path
        d="M304.552 47.672C305.49 42.424 306.578 38.0293 307.815 34.488L300.744 41.5591C299.507 45.1004 298.419 49.495 297.48 54.743L304.552 47.672Z"
        fill="black" />
    <path
        d="M303.143 30.008C300.541 34.7866 298.557 40.5039 297.191 47.1599L290.12 54.231C291.486 47.575 293.47 41.8577 296.072 37.079L303.143 30.008Z"
        fill="black" />
    <path
        d="M310.247 47.8C308.455 52.792 306.045 57.784 303.016 62.776L295.944 69.847C298.974 64.855 301.384 59.863 303.176 54.871L310.247 47.8Z"
        fill="black" />
    <path
        d="M303.016 62.776C303.101 57.9546 303.613 52.92 304.552 47.672L297.48 54.743C296.542 59.991 296.03 65.0257 295.944 69.847L303.016 62.776Z"
        fill="black" />
    <path
        d="M303.527 71.352C308.349 64.824 312.146 58.2106 314.919 51.512L307.848 58.583C305.075 65.2817 301.278 71.895 296.456 78.423L303.527 71.352Z"
        fill="black" />
    <path
        d="M315.879 74.232C315.581 73.6346 315.176 73.336 314.664 73.336L307.592 80.407C308.104 80.407 308.51 80.7057 308.808 81.303L315.879 74.232Z"
        fill="black" />
    <path
        d="M316.392 76.28C316.392 75.4693 316.221 74.7866 315.879 74.232L308.808 81.303C309.15 81.8577 309.32 82.5404 309.32 83.351L316.392 76.28Z"
        fill="black" />
    <path
        d="M314.664 73.336C314.194 73.336 313.725 73.5493 313.255 73.976L306.184 81.047C306.654 80.6204 307.123 80.407 307.592 80.407L314.664 73.336Z"
        fill="black" />
    <path
        d="M297.191 47.1599C295.869 53.8159 295.207 59.7466 295.207 64.952L288.136 72.023C288.136 66.8177 288.798 60.887 290.12 54.231L297.191 47.1599Z"
        fill="black" />
    <path
        d="M314.859 80.2143C315.881 79.1923 316.392 77.8808 316.392 76.28L309.32 83.351C309.32 84.9519 308.81 86.2634 307.788 87.2854L314.859 80.2143Z"
        fill="black" />
    <path
        d="M313.255 73.976C312.487 74.6586 311.634 75.2133 310.695 75.64L303.624 82.711C304.563 82.2844 305.416 81.7297 306.184 81.047L313.255 73.976Z"
        fill="black" />
    <path
        d="M314.471 80.568C314.607 80.4548 314.736 80.3375 314.857 80.2161L307.788 87.2854C307.666 87.4074 307.537 87.5253 307.4 87.639L314.471 80.568Z"
        fill="black" />
    <path
        d="M310.695 75.64C309.799 76.0666 308.989 76.28 308.263 76.28L301.192 83.351C301.918 83.351 302.728 83.1377 303.624 82.711L310.695 75.64Z"
        fill="black" />
    <path
        d="M289.529 57.528C289.529 56.0346 288.484 55.288 286.393 55.288L279.322 62.359C281.413 62.359 282.458 63.1057 282.458 64.599L289.529 57.528Z"
        fill="black" />
    <path
        d="M305.128 75.128C304.36 74.36 303.826 73.1013 303.527 71.352L296.456 78.423C296.755 80.1724 297.288 81.431 298.056 82.199L305.128 75.128Z"
        fill="black" />
    <path
        d="M308.263 76.28C306.941 76.28 305.896 75.896 305.128 75.128L298.056 82.199C298.824 82.967 299.87 83.351 301.192 83.351L308.263 76.28Z"
        fill="black" />
    <path
        d="M299.449 69.496C299.15 68.984 298.724 68.728 298.169 68.728L291.098 75.799C291.653 75.799 292.079 76.055 292.378 76.567L299.449 69.496Z"
        fill="black" />
    <path
        d="M286.393 55.288C285.412 55.288 284.473 55.3733 283.577 55.544L276.506 62.615C277.402 62.4444 278.341 62.359 279.322 62.359L286.393 55.288Z"
        fill="black" />
    <path
        d="M299.961 71.608C299.961 70.712 299.79 70.008 299.449 69.496L292.378 76.567C292.719 77.079 292.89 77.783 292.89 78.679L299.961 71.608Z"
        fill="black" />
    <path
        d="M266.059 36.728C264.651 34.296 262.539 32.376 259.723 30.968L252.651 38.039C255.467 39.447 257.579 41.367 258.987 43.799L266.059 36.728Z"
        fill="black" />
    <path
        d="M306.919 83.32C309.735 83.32 312.253 82.4026 314.471 80.568L307.4 87.639C305.182 89.4737 302.664 90.391 299.848 90.391L306.919 83.32Z"
        fill="black" />
    <path
        d="M283.577 55.544C283.364 54.6053 283.086 53.9653 282.745 53.624L275.674 60.695C276.015 61.0364 276.293 61.6764 276.506 62.615L283.577 55.544Z"
        fill="black" />
    <path
        d="M282.745 53.624C282.446 53.24 281.828 53.048 280.889 53.048L273.818 60.119C274.757 60.119 275.375 60.311 275.674 60.695L282.745 53.624Z"
        fill="black" />
    <path
        d="M288.569 63.928C289.209 60.5573 289.529 58.424 289.529 57.528L282.458 64.599C282.458 65.495 282.138 67.6284 281.498 70.999L288.569 63.928Z"
        fill="black" />
    <path
        d="M298.169 68.728C297.604 68.728 297.089 68.9607 296.624 69.4262L289.554 76.496C290.019 76.0313 290.533 75.799 291.098 75.799L298.169 68.728Z"
        fill="black" />
    <path
        d="M296.624 69.4262C296.562 69.488 296.501 69.5539 296.441 69.624L289.37 76.695C289.43 76.625 289.491 76.5591 289.553 76.4973L296.624 69.4262Z"
        fill="black" />
    <path
        d="M268.234 44.856C268.234 41.8266 267.509 39.1173 266.059 36.728L258.987 43.799C260.438 46.1884 261.163 48.8977 261.163 51.927L268.234 44.856Z"
        fill="black" />
    <path
        d="M298.745 75.576C299.556 74.6373 299.961 73.3146 299.961 71.608L292.89 78.679C292.89 80.3857 292.485 81.7084 291.674 82.647L298.745 75.576Z"
        fill="black" />
    <path
        d="M295.207 64.952C295.207 70.4133 296.146 74.8506 298.023 78.264L290.952 85.335C289.075 81.9217 288.136 77.4844 288.136 72.023L295.207 64.952Z"
        fill="black" />
    <path
        d="M259.723 30.968C256.949 29.56 253.557 28.856 249.547 28.856L242.475 35.927C246.486 35.927 249.878 36.631 252.651 38.039L259.723 30.968Z"
        fill="black" />
    <path
        d="M296.441 69.624C295.381 70.891 294.44 71.9715 293.616 72.8654L286.545 79.9365C287.369 79.0426 288.31 77.9621 289.37 76.695L296.441 69.624Z"
        fill="black" />
    <path
        d="M280.889 53.048C277.945 53.048 275.15 53.9866 272.505 55.864L265.434 62.935C268.079 61.0577 270.874 60.119 273.818 60.119L280.889 53.048Z"
        fill="black" />
    <path
        d="M298.023 78.264C299.901 81.6346 302.866 83.32 306.919 83.32L299.848 90.391C295.795 90.391 292.83 88.7057 290.952 85.335L298.023 78.264Z"
        fill="black" />
    <path
        d="M296.351 78.2733C297.17 77.4415 297.968 76.5424 298.745 75.576L291.674 82.647C290.897 83.6135 290.099 84.5126 289.28 85.3444L296.351 78.2733Z"
        fill="black" />
    <path
        d="M293.616 72.8654C293.179 73.3404 292.775 73.7626 292.404 74.1322L285.4 81.1358C285.378 81.1585 285.355 81.181 285.333 81.2033L285.4 81.1358C285.753 80.7825 286.134 80.3827 286.545 79.9365L293.616 72.8654Z"
        fill="black" />
    <path
        d="M276.793 61.048C278.329 59.7253 279.993 59.0426 281.785 59L274.714 66.071C272.922 66.1137 271.258 66.7964 269.722 68.119L276.793 61.048Z"
        fill="black" />
    <path
        d="M287.097 74.168C287.097 72.248 287.588 68.8346 288.569 63.928L281.498 70.999C280.517 75.9057 280.026 79.319 280.026 81.239L287.097 74.168Z"
        fill="black" />
    <path
        d="M292.404 74.1322C292.18 74.3553 291.969 74.5593 291.769 74.744L284.698 81.815C284.897 81.6303 285.109 81.4264 285.333 81.2033L292.404 74.1322Z"
        fill="black" />
    <path
        d="M265.418 54.84C267.296 51.8106 268.234 48.4826 268.234 44.856L261.163 51.927C261.163 55.5537 260.225 58.8817 258.347 61.911L265.418 54.84Z"
        fill="black" />
    <path
        d="M296.351 78.2733C296.233 78.3934 296.114 78.5121 295.995 78.6293L289.28 85.3444C288.503 86.1331 287.708 86.8613 286.893 87.529L293.964 80.4579C294.655 79.8919 295.332 79.2824 295.995 78.6293L296.351 78.2733Z"
        fill="black" />
    <path d="M281.785 59L279.417 70.776L272.346 77.847L274.714 66.071L281.785 59Z" fill="black" />
    <path
        d="M255.883 38.584C257.76 40.3333 258.698 42.616 258.698 45.432L251.627 52.5031C251.627 49.687 250.689 47.4044 248.811 45.6551L255.883 38.584Z"
        fill="black" />
    <path
        d="M276.156 61.6381C276.362 61.4322 276.574 61.2355 276.793 61.048L269.722 68.119C269.503 68.3066 269.291 68.5033 269.085 68.7092L276.156 61.6381Z"
        fill="black" />
    <path
        d="M291.769 74.744C290.617 75.768 289.636 76.28 288.825 76.28L281.754 83.351C282.565 83.351 283.546 82.839 284.698 81.815L291.769 74.744Z"
        fill="black" />
    <path
        d="M272.505 55.864C271.619 56.4884 270.793 57.1846 270.025 57.9524L262.964 65.0133C263.729 64.2495 264.552 63.5568 265.434 62.935L272.505 55.864Z"
        fill="black" />
    <path
        d="M247.306 35.896C251.189 35.896 254.048 36.792 255.883 38.584L248.811 45.6551C246.977 43.863 244.118 42.9671 240.235 42.9671L247.306 35.896Z"
        fill="black" />
    <path
        d="M293.177 81.08C293.441 80.8788 293.704 80.6714 293.964 80.4579L286.893 87.529C286.633 87.7425 286.37 87.9499 286.106 88.151L293.177 81.08Z"
        fill="black" />
    <path
        d="M287.545 75.704C287.246 75.32 287.097 74.808 287.097 74.168L280.026 81.239C280.026 81.879 280.175 82.391 280.474 82.775L287.545 75.704Z"
        fill="black" />
    <path
        d="M288.825 76.28C288.313 76.28 287.886 76.088 287.545 75.704L280.474 82.775C280.815 83.159 281.242 83.351 281.754 83.351L288.825 76.28Z"
        fill="black" />
    <path
        d="M273.209 66.168C273.973 64.3495 274.954 62.841 276.151 61.6426L269.085 68.7092C267.885 69.9083 266.903 71.4183 266.138 73.239L273.209 66.168Z"
        fill="black" />
    <path
        d="M249.547 28.856C243.872 28.856 238.666 30.3706 233.93 33.4L226.859 40.471C231.595 37.4417 236.801 35.927 242.475 35.927L249.547 28.856Z"
        fill="black" />
    <path
        d="M287.481 83.32C289.316 83.32 291.214 82.5733 293.177 81.08L286.106 88.151C284.143 89.6444 282.245 90.391 280.41 90.391L287.481 83.32Z"
        fill="black" />
    <path
        d="M270.025 57.9524C268.538 59.4404 267.274 61.1976 266.233 63.224L259.162 70.295C260.203 68.2687 261.467 66.5115 262.954 65.0235L270.025 57.9524Z"
        fill="black" />
    <path
        d="M262.69 58.2756C263.742 57.223 264.651 56.0778 265.418 54.84L258.347 61.911C257.58 63.1489 256.671 64.2941 255.619 65.3467L262.69 58.2756Z"
        fill="black" />
    <path
        d="M258.698 45.432C258.698 49.5095 257.556 52.6899 255.272 54.9734L248.204 62.0412C250.486 59.758 251.627 56.5786 251.627 52.5031L258.698 45.432Z"
        fill="black" />
    <path
        d="M279.417 70.776C279.033 72.6106 278.414 74.0826 277.561 75.192L270.49 82.263C271.343 81.1537 271.962 79.6817 272.346 77.847L279.417 70.776Z"
        fill="black" />
    <path
        d="M247.818 44.984C247.818 43.832 247.498 43 246.858 42.488L239.787 49.559C240.427 50.071 240.747 50.903 240.747 52.055L247.818 44.984Z"
        fill="black" />
    <path
        d="M235.786 40.056C239.072 37.2827 242.912 35.896 247.306 35.896L240.235 42.9671C235.841 42.9671 232.001 44.3537 228.715 47.1271L235.786 40.056Z"
        fill="black" />
    <path
        d="M246.858 42.488C246.261 41.9333 245.258 41.6559 243.85 41.6559L236.779 48.727C238.187 48.727 239.19 49.0044 239.787 49.559L246.858 42.488Z"
        fill="black" />
    <path
        d="M271.865 72.952C271.865 70.5626 272.313 68.3013 273.209 66.168L266.138 73.239C265.242 75.3724 264.794 77.6337 264.794 80.023L271.865 72.952Z"
        fill="black" />
    <path
        d="M283.577 81.912C284.772 82.8506 286.073 83.32 287.481 83.32L280.41 90.391C279.002 90.391 277.701 89.9217 276.506 88.983L283.577 81.912Z"
        fill="black" />
    <path
        d="M280.953 77.944C281.55 79.608 282.425 80.9306 283.577 81.912L276.506 88.983C275.354 88.0017 274.479 86.679 273.882 85.015L280.953 77.944Z"
        fill="black" />
    <path
        d="M247.69 46.648C247.776 46.2213 247.818 45.6666 247.818 44.984L240.747 52.055C240.747 52.7377 240.705 53.2924 240.619 53.719L247.69 46.648Z"
        fill="black" />
    <path
        d="M277.561 75.192C277.378 75.4301 277.193 75.6427 277.005 75.8298L269.937 82.8987C270.123 82.7122 270.307 82.5003 270.49 82.263L277.561 75.192Z"
        fill="black" />
    <path
        d="M278.893 80.5948C279.627 79.8598 280.314 78.9762 280.953 77.944L273.882 85.015C273.243 86.0473 272.556 86.9309 271.822 87.6658L278.893 80.5948Z"
        fill="black" />
    <path
        d="M243.85 41.6559C242.613 41.6559 241.525 41.9759 240.586 42.6159L233.515 49.687C234.454 49.047 235.542 48.727 236.779 48.727L243.85 41.6559Z"
        fill="black" />
    <path
        d="M257.227 62.264C259.343 61.1304 261.161 59.8034 262.682 58.283L255.619 65.3467C254.096 66.8701 252.275 68.1996 250.155 69.335L257.227 62.264Z"
        fill="black" />
    <path
        d="M277.005 75.8298C276.321 76.5139 275.61 76.856 274.873 76.856L267.802 83.927C268.539 83.927 269.25 83.585 269.934 82.9008L277.005 75.8298Z"
        fill="black" />
    <path
        d="M272.633 75.896C272.121 75.256 271.865 74.2746 271.865 72.952L264.794 80.023C264.794 81.3457 265.05 82.327 265.562 82.967L272.633 75.896Z"
        fill="black" />
    <path
        d="M240.586 42.6159C240.407 42.7356 240.24 42.8723 240.087 43.0261L233.017 50.0961C233.17 49.9427 233.336 49.8063 233.515 49.687L240.586 42.6159Z"
        fill="black" />
    <path
        d="M274.873 76.856C273.934 76.856 273.188 76.536 272.633 75.896L265.562 82.967C266.117 83.607 266.863 83.927 267.802 83.927L274.873 76.856Z"
        fill="black" />
    <path
        d="M266.233 63.224C264.654 66.2533 263.865 69.4746 263.865 72.888L256.794 79.959C256.794 76.5457 257.583 73.3244 259.162 70.295L266.233 63.224Z"
        fill="black" />
    <path
        d="M233.93 33.4C232.31 34.4312 230.801 35.6456 229.405 37.0432L222.345 44.103C223.738 42.7102 225.243 41.4995 226.859 40.471L233.93 33.4Z"
        fill="black" />
    <path
        d="M240.087 43.0261C239.473 43.6405 239.063 44.5278 238.858 45.688L231.787 52.759C231.992 51.5989 232.402 50.7116 233.016 50.0972L240.087 43.0261Z"
        fill="black" />
    <path
        d="M234.568 41.183C234.962 40.7892 235.368 40.4136 235.786 40.056L228.715 47.1271C228.297 47.4847 227.891 47.8603 227.497 48.2541L234.568 41.183Z"
        fill="black" />
    <path d="M245.578 59.064L247.69 46.648L240.619 53.719L238.507 66.135L245.578 59.064Z" fill="black" />
    <path
        d="M272.569 83.32C274.967 83.32 277.074 82.413 278.888 80.5989L271.822 87.6658C270.006 89.4826 267.898 90.3911 265.498 90.3911L272.569 83.32Z"
        fill="black" />
    <path
        d="M255.272 54.9734C253.086 57.158 249.855 58.5216 245.578 59.064L238.507 66.135C242.784 65.5926 246.015 64.2291 248.201 62.0444L255.272 54.9734Z"
        fill="black" />
    <path
        d="M263.865 72.888C263.865 76.0026 264.654 78.52 266.233 80.44L259.162 87.511C257.583 85.591 256.794 83.0737 256.794 79.959L263.865 72.888Z"
        fill="black" />
    <path
        d="M266.233 80.44C267.812 82.36 269.924 83.32 272.569 83.32L265.498 90.3911C262.853 90.3911 260.741 89.431 259.162 87.511L266.233 80.44Z"
        fill="black" />
    <path
        d="M244.426 65.656C249.376 65.3146 253.643 64.184 257.227 62.264L250.155 69.335C246.571 71.255 242.305 72.3857 237.355 72.727L244.426 65.656Z"
        fill="black" />
    <path
        d="M238.858 45.688C237.834 51.2773 237.045 55.736 236.491 59.064L229.419 66.135C229.974 62.807 230.763 58.3484 231.787 52.759L238.858 45.688Z"
        fill="black" />
    <path
        d="M228.234 51.6399C229.794 47.3335 231.902 43.8507 234.56 41.1917L227.497 48.2541C224.836 50.9142 222.724 54.3998 221.163 58.711L228.234 51.6399Z"
        fill="black" />
    <path
        d="M229.405 37.0432C226.756 39.693 224.51 43.0013 222.667 46.968L215.595 54.039C217.439 50.0724 219.685 46.7641 222.333 44.1142L229.405 37.0432Z"
        fill="black" />
    <path
        d="M236.491 59.064C235.936 59.0213 235.146 58.9146 234.122 58.744L227.051 65.815C228.075 65.9857 228.865 66.0924 229.419 66.135L236.491 59.064Z"
        fill="black" />
    <path
        d="M234.122 58.744C233.909 58.7013 233.589 58.68 233.163 58.68L226.091 65.751C226.518 65.751 226.838 65.7724 227.051 65.815L234.122 58.744Z"
        fill="black" />
    <path
        d="M233.163 58.68C232.224 58.68 231.477 58.9573 230.922 59.512L223.851 66.583C224.406 66.0284 225.153 65.751 226.091 65.751L233.163 58.68Z"
        fill="black" />
    <path
        d="M230.922 59.512C230.41 60.0666 230.154 60.8133 230.154 61.752L223.083 68.823C223.083 67.8844 223.339 67.1377 223.851 66.583L230.922 59.512Z"
        fill="black" />
    <path d="M241.674 81.08L244.426 65.656L237.355 72.727L234.603 88.151L241.674 81.08Z" fill="black" />
    <path
        d="M233.227 65.144C233.013 65.1013 233.738 65.208 235.402 65.464L228.331 72.535C227.059 72.3393 226.335 72.2308 226.161 72.2097L226.155 72.215C226.105 72.205 226.107 72.2032 226.161 72.2097L233.227 65.144Z"
        fill="black" />
    <path
        d="M230.154 61.752C230.154 62.648 230.346 63.3946 230.73 63.992L223.659 71.063C223.275 70.4657 223.083 69.719 223.083 68.823L230.154 61.752Z"
        fill="black" />
    <path
        d="M230.73 63.992C231.114 64.5466 231.947 64.9306 233.227 65.144L226.155 72.215C224.875 72.0017 224.043 71.6177 223.659 71.063L230.73 63.992Z"
        fill="black" />
    <path
        d="M225.611 68.472C225.611 62.1573 226.485 56.5466 228.234 51.6399L221.163 58.711C219.414 63.6177 218.539 69.2284 218.539 75.543L225.611 68.472Z"
        fill="black" />
    <path d="M235.402 65.464L233.29 77.56L226.219 84.631L228.331 72.535L235.402 65.464Z" fill="black" />
    <path
        d="M222.667 46.968C219.893 52.984 218.507 60.3226 218.507 68.984L211.435 76.055C211.435 67.3937 212.822 60.055 215.595 54.039L222.667 46.968Z"
        fill="black" />
    <path
        d="M238.641 87.8096C240.123 86.3272 241.134 84.084 241.674 81.08L234.603 88.151C234.063 91.1551 233.052 93.3983 231.57 94.8807L238.641 87.8096Z"
        fill="black" />
    <path
        d="M226.378 75.512C225.866 73.464 225.611 71.1173 225.611 68.472L218.539 75.543C218.539 78.1884 218.795 80.5351 219.307 82.5831L226.378 75.512Z"
        fill="black" />
    <path
        d="M233.29 77.56C232.907 79.5956 232.401 80.9275 231.773 81.5556L224.702 88.6261C225.33 87.9978 225.836 86.6661 226.219 84.631L233.29 77.56Z"
        fill="black" />
    <path
        d="M231.773 81.5556C231.492 81.8358 231.188 81.976 230.858 81.976L223.787 89.047C224.117 89.047 224.422 88.9064 224.702 88.6261L231.773 81.5556Z"
        fill="black" />
    <path
        d="M228.426 80.312C227.616 79.16 226.933 77.56 226.378 75.512L219.307 82.5831C219.862 84.6311 220.545 86.231 221.355 87.383L228.426 80.312Z"
        fill="black" />
    <path
        d="M230.858 81.976C230.09 81.976 229.28 81.4213 228.426 80.312L221.355 87.383C222.209 88.4924 223.019 89.047 223.787 89.047L230.858 81.976Z"
        fill="black" />
    <path
        d="M232.97 89.976C235.306 89.976 237.196 89.2547 238.639 87.8121L231.57 94.8807C230.127 96.3249 228.237 97.047 225.899 97.047L232.97 89.976Z"
        fill="black" />
    <path
        d="M218.507 68.984C218.507 73.592 219.168 77.4746 220.49 80.632L213.419 87.703C212.097 84.5457 211.435 80.663 211.435 76.055L218.507 68.984Z"
        fill="black" />
    <path
        d="M173.525 29.496C172.501 27.9173 171.093 27.128 169.301 27.128L162.23 34.1991C164.022 34.1991 165.43 34.9884 166.454 36.5671L173.525 29.496Z"
        fill="black" />
    <path
        d="M175.061 35.448C175.061 33.0586 174.549 31.0747 173.525 29.496L166.454 36.5671C167.478 38.1457 167.99 40.1297 167.99 42.519L175.061 35.448Z"
        fill="black" />
    <path
        d="M225.738 87.672C227.957 89.208 230.368 89.976 232.97 89.976L225.899 97.047C223.297 97.047 220.886 96.279 218.667 94.743L225.738 87.672Z"
        fill="black" />
    <path
        d="M220.49 80.632C221.813 83.7893 223.562 86.136 225.738 87.672L218.667 94.743C216.491 93.207 214.742 90.8604 213.419 87.703L220.49 80.632Z"
        fill="black" />
    <path
        d="M197.081 61.368C197.081 58.8506 196.334 56.8666 194.84 55.416L187.769 62.487C189.263 63.9377 190.009 65.9217 190.009 68.439L197.081 61.368Z"
        fill="black" />
    <path
        d="M194.84 55.416C193.347 53.9226 191.363 53.176 188.888 53.176L181.817 60.247C184.292 60.247 186.276 60.9937 187.769 62.487L194.84 55.416Z"
        fill="black" />
    <path
        d="M162.645 30.392C164.693 28.216 166.912 27.128 169.301 27.128L162.23 34.1991C160.084 34.1991 158.075 35.077 156.204 36.833L155.574 37.4631C155.782 37.2418 155.992 37.0317 156.204 36.833L162.645 30.392Z"
        fill="black" />
    <path
        d="M166.677 33.7448C166.992 33.4296 167.291 33.272 167.573 33.272L160.502 40.343C160.22 40.343 159.921 40.5007 159.606 40.8159L166.677 33.7448Z"
        fill="black" />
    <path
        d="M167.573 33.272C168.512 33.272 168.981 34.5306 168.981 37.048L161.91 44.119C161.91 41.6017 161.441 40.343 160.502 40.343L167.573 33.272Z"
        fill="black" />
    <path
        d="M165.397 35.704C165.85 34.7983 166.276 34.1456 166.676 33.7458L159.606 40.8159C159.206 41.2156 158.779 41.8686 158.326 42.775L165.397 35.704Z"
        fill="black" />
    <path
        d="M188.888 53.176C186.115 53.176 183.619 53.9226 181.4 55.416L174.329 62.487C176.548 60.9937 179.044 60.247 181.817 60.247L188.888 53.176Z"
        fill="black" />
    <path
        d="M193.88 68.984C196.014 66.8507 197.081 64.312 197.081 61.368L190.009 68.439C190.009 71.383 188.943 73.9217 186.809 76.0551L193.88 68.984Z"
        fill="black" />
    <path
        d="M187.801 59.448C188.569 59.448 189.166 59.704 189.592 60.216L182.521 67.287C182.095 66.775 181.497 66.519 180.729 66.519L187.801 59.448Z"
        fill="black" />
    <path
        d="M189.592 60.216C190.062 60.6853 190.297 61.3253 190.297 62.136L183.225 69.207C183.225 68.3964 182.991 67.7564 182.521 67.287L189.592 60.216Z"
        fill="black" />
    <path
        d="M168.085 51.448C172.736 46.7973 175.061 41.464 175.061 35.448L167.99 42.519C167.99 48.535 165.665 53.8684 161.014 58.5191L168.085 51.448Z"
        fill="black" />
    <path
        d="M199.577 71.416C199.278 70.904 198.851 70.648 198.297 70.648L191.225 77.719C191.78 77.719 192.207 77.975 192.505 78.487L199.577 71.416Z"
        fill="black" />
    <path
        d="M200.089 73.528C200.089 72.632 199.918 71.928 199.577 71.416L192.505 78.487C192.847 78.999 193.017 79.703 193.017 80.599L200.089 73.528Z"
        fill="black" />
    <path
        d="M168.981 37.048C168.981 39.2666 168.341 41.7413 167.061 44.472L159.99 51.543C161.27 48.8124 161.91 46.3377 161.91 44.119L168.981 37.048Z"
        fill="black" />
    <path
        d="M198.297 70.648C197.763 70.648 197.274 70.8704 196.829 71.3153L189.759 78.3851C190.204 77.9411 190.692 77.719 191.225 77.719L198.297 70.648Z"
        fill="black" />
    <path
        d="M184.887 60.7389C185.748 59.8783 186.719 59.448 187.801 59.448L180.729 66.519C179.648 66.519 178.677 66.9493 177.816 67.81L184.887 60.7389Z"
        fill="black" />
    <path
        d="M190.297 62.136C190.297 63.4949 189.759 64.7116 188.684 65.786L181.616 72.8545C182.689 71.7807 183.225 70.5649 183.225 69.207L190.297 62.136Z"
        fill="black" />
    <path
        d="M162.645 30.392C160.597 32.568 158.848 35.4906 157.397 39.16L150.326 46.231C151.777 42.5617 153.526 39.6391 155.574 37.4631L162.645 30.392Z"
        fill="black" />
    <path
        d="M163.157 42.36C163.882 39.5013 164.629 37.2826 165.397 35.704L158.326 42.775C157.558 44.3537 156.811 46.5724 156.086 49.431L163.157 42.36Z"
        fill="black" />
    <path
        d="M196.829 71.3153C196.741 71.404 196.654 71.5015 196.568 71.608L189.497 78.679C189.583 78.5726 189.669 78.4751 189.758 78.3863L196.829 71.3153Z"
        fill="black" />
    <path
        d="M181.4 55.416C180.659 55.9251 179.971 56.4961 179.339 57.1292L172.273 64.1948C172.904 63.5639 173.59 62.9947 174.329 62.487L181.4 55.416Z"
        fill="black" />
    <path
        d="M199 77.496C199.726 76.3866 200.089 75.064 200.089 73.528L193.017 80.599C193.017 82.135 192.655 83.4577 191.929 84.567L199 77.496Z"
        fill="black" />
    <path
        d="M153.621 29.496C152.597 27.9173 151.189 27.128 149.397 27.128L142.326 34.1991C144.118 34.1991 145.526 34.9884 146.55 36.5671L153.621 29.496Z"
        fill="black" />
    <path
        d="M175.381 51.896C175.082 51.5973 174.592 51.448 173.909 51.448L166.838 58.519C167.521 58.519 168.011 58.6684 168.31 58.967L175.381 51.896Z"
        fill="black" />
    <path
        d="M175.829 53.56C175.829 52.7493 175.68 52.1946 175.381 51.896L168.31 58.967C168.609 59.2657 168.758 59.8204 168.758 60.631L175.829 53.56Z"
        fill="black" />
    <path
        d="M183.768 62.2C184.117 61.6229 184.49 61.1366 184.885 60.7411L177.816 67.81C177.42 68.2059 177.047 68.6929 176.697 69.271L183.768 62.2Z"
        fill="black" />
    <path
        d="M196.568 71.608C195.727 72.6902 194.939 73.5962 194.206 74.3259L187.198 81.3337C187.177 81.3549 187.156 81.376 187.135 81.397L187.198 81.3337C187.913 80.615 188.68 79.7302 189.497 78.679L196.568 71.608Z"
        fill="black" />
    <path
        d="M188.684 65.786C188.51 65.9597 188.322 66.1297 188.12 66.296L181.049 73.367C181.251 73.2008 181.439 73.0308 181.613 72.857L188.684 65.786Z"
        fill="black" />
    <path
        d="M155.157 35.448C155.157 33.0586 154.645 31.0747 153.621 29.496L146.55 36.5671C147.574 38.1457 148.086 40.1297 148.086 42.519L155.157 35.448Z"
        fill="black" />
    <path
        d="M174.79 56.2731C175.483 55.5802 175.829 54.6758 175.829 53.56L168.758 60.631C168.758 61.7469 168.412 62.6513 167.719 63.3442L174.79 56.2731Z"
        fill="black" />
    <path
        d="M197.361 79.525C197.97 78.9151 198.517 78.2387 199 77.496L191.929 84.567C191.446 85.3098 190.899 85.9862 190.29 86.5961L197.361 79.525Z"
        fill="black" />
    <path d="M173.909 51.448L168.085 51.448L161.014 58.5191L166.838 58.519L173.909 51.448Z" fill="black" />
    <path
        d="M179.339 57.1292C178.115 58.3531 177.096 59.8087 176.28 61.496L169.209 68.567C170.025 66.8798 171.044 65.4242 172.268 64.2003L179.339 57.1292Z"
        fill="black" />
    <path
        d="M194.206 74.3259C193.638 74.8909 193.103 75.3502 192.6 75.704L185.529 82.775C186.032 82.4213 186.567 81.962 187.135 81.397L194.206 74.3259Z"
        fill="black" />
    <path
        d="M188.12 66.296C186.67 67.4906 184.686 68.3866 182.168 68.984L175.097 76.055C177.615 75.4577 179.599 74.5617 181.049 73.367L188.12 66.296Z"
        fill="black" />
    <path
        d="M182.168 68.856C182.168 66.2533 182.702 64.0346 183.768 62.2L176.697 69.271C175.631 71.1057 175.097 73.3244 175.097 75.927L182.168 68.856Z"
        fill="black" />
    <path
        d="M167.061 44.472C166.058 46.6499 164.636 48.6597 162.793 50.5015L155.732 57.5629C157.57 55.7237 158.989 53.7171 159.99 51.543L167.061 44.472Z"
        fill="black" />
    <path
        d="M142.741 30.392C144.789 28.216 147.008 27.128 149.397 27.128L142.326 34.1991C140.18 34.1991 138.171 35.077 136.3 36.833L135.67 37.4631C135.878 37.2418 136.088 37.0317 136.3 36.833L142.741 30.392Z"
        fill="black" />
    <path
        d="M183.128 73.976C188.206 72.7386 191.79 71.0747 193.88 68.984L186.809 76.0551C184.719 78.1457 181.135 79.8097 176.057 81.047L183.128 73.976Z"
        fill="black" />
    <path
        d="M161.429 51.768C161.898 48.312 162.474 45.176 163.157 42.36L156.086 49.431C155.403 52.247 154.827 55.3831 154.358 58.8391L161.429 51.768Z"
        fill="black" />
    <path
        d="M194.264 81.784C195.43 81.1757 196.461 80.4243 197.356 79.5299L190.29 86.5961C189.394 87.4926 188.361 88.2456 187.193 88.855L194.264 81.784Z"
        fill="black" />
    <path
        d="M168.597 57.976C171.59 57.976 173.654 57.4087 174.789 56.2741L167.719 63.3442C166.584 64.4794 164.52 65.047 161.526 65.047L168.597 57.976Z"
        fill="black" />
    <path
        d="M192.6 75.704C191.491 76.5146 190.062 76.92 188.312 76.92L181.241 83.991C182.991 83.991 184.42 83.5857 185.529 82.775L192.6 75.704Z"
        fill="black" />
    <path
        d="M146.773 33.7448C147.088 33.4296 147.387 33.272 147.669 33.272L140.598 40.343C140.316 40.343 140.017 40.5007 139.702 40.8159L146.773 33.7448Z"
        fill="black" />
    <path d="M182.168 68.984V68.856L175.097 75.927V76.055L182.168 68.984Z" fill="black" />
    <path
        d="M147.669 33.272C148.608 33.272 149.077 34.5306 149.077 37.048L142.006 44.119C142.006 41.6017 141.537 40.343 140.598 40.343L147.669 33.272Z"
        fill="black" />
    <path
        d="M145.493 35.704C145.946 34.7983 146.372 34.1456 146.772 33.7458L139.702 40.8159C139.302 41.2156 138.875 41.8686 138.422 42.775L145.493 35.704Z"
        fill="black" />
    <path
        d="M162.793 50.5015C162.361 50.9329 161.907 51.3551 161.429 51.768L154.358 58.8391C154.836 58.4261 155.29 58.0039 155.722 57.5726L162.793 50.5015Z"
        fill="black" />
    <path
        d="M157.397 39.16C155.946 42.8293 154.816 46.9253 154.005 51.448L146.934 58.519C147.745 53.9964 148.875 49.9004 150.326 46.231L157.397 39.16Z"
        fill="black" />
    <path
        d="M180.053 69.496C179.754 68.984 179.328 68.728 178.773 68.728L171.702 75.799C172.257 75.799 172.683 76.055 172.982 76.567L180.053 69.496Z"
        fill="black" />
    <path
        d="M188.312 76.92C185.88 76.92 184.152 75.9386 183.128 73.976L176.057 81.047C177.081 83.0097 178.809 83.991 181.241 83.991L188.312 76.92Z"
        fill="black" />
    <path
        d="M176.28 61.496C175.043 64.0133 174.424 66.744 174.424 69.688L167.353 76.759C167.353 73.815 167.972 71.0844 169.209 68.567L176.28 61.496Z"
        fill="black" />
    <path
        d="M180.565 71.608C180.565 70.712 180.394 70.008 180.053 69.496L172.982 76.567C173.323 77.079 173.494 77.783 173.494 78.679L180.565 71.608Z"
        fill="black" />
    <path
        d="M178.773 68.728C178.208 68.728 177.693 68.9607 177.228 69.4262L170.158 76.496C170.623 76.0313 171.137 75.799 171.702 75.799L178.773 68.728Z"
        fill="black" />
    <path
        d="M187.353 83.32C190.041 83.32 192.344 82.808 194.264 81.784L187.193 88.855C185.273 89.879 182.969 90.391 180.281 90.391L187.353 83.32Z"
        fill="black" />
    <path
        d="M148.181 51.448C152.832 46.7973 155.157 41.464 155.157 35.448L148.086 42.519C148.086 48.535 145.761 53.8684 141.11 58.5191L148.181 51.448Z"
        fill="black" />
    <path
        d="M177.228 69.4262C177.166 69.488 177.105 69.554 177.045 69.624L169.974 76.695C170.034 76.625 170.095 76.5591 170.157 76.4973L177.228 69.4262Z"
        fill="black" />
    <path
        d="M149.077 37.048C149.077 39.2666 148.437 41.7413 147.157 44.472L140.086 51.543C141.366 48.8124 142.006 46.3377 142.006 44.119L149.077 37.048Z"
        fill="black" />
    <path d="M160.853 57.976L168.597 57.976L161.526 65.047L153.782 65.047L160.853 57.976Z" fill="black" />
    <path
        d="M179.349 75.576C180.16 74.6373 180.565 73.3146 180.565 71.608L173.494 78.679C173.494 80.3857 173.089 81.7084 172.278 82.647L179.349 75.576Z"
        fill="black" />
    <path
        d="M143.253 42.36C143.978 39.5013 144.725 37.2826 145.493 35.704L138.422 42.775C137.654 44.3537 136.907 46.5724 136.182 49.431L143.253 42.36Z"
        fill="black" />
    <path
        d="M142.741 30.392C140.693 32.568 138.944 35.4906 137.493 39.16L130.422 46.231C131.873 42.5617 133.622 39.6391 135.67 37.4631L142.741 30.392Z"
        fill="black" />
    <path
        d="M177.045 69.624C176.26 70.531 175.518 71.3454 174.818 72.067L167.747 79.1381C168.447 78.4164 169.189 77.6021 169.974 76.695L177.045 69.624Z"
        fill="black" />
    <path
        d="M174.818 72.067C174.576 72.3175 174.338 72.5567 174.106 72.7848L167.541 79.3492C167.37 79.5238 167.201 79.6927 167.035 79.8559L167.541 79.3492C167.61 79.2797 167.678 79.2094 167.747 79.1381L174.818 72.067Z"
        fill="black" />
    <path
        d="M177.295 77.8664C178.002 77.1558 178.687 76.3923 179.349 75.576L172.278 82.647C171.616 83.4633 170.931 84.2268 170.224 84.9375L177.295 77.8664Z"
        fill="black" />
    <path
        d="M174.424 69.688C174.424 73.8693 175.555 77.1973 177.816 79.672L170.745 86.743C168.484 84.2684 167.353 80.9404 167.353 76.759L174.424 69.688Z"
        fill="black" />
    <path
        d="M177.816 79.672C180.078 82.104 183.257 83.32 187.353 83.32L180.281 90.391C176.185 90.391 173.007 89.175 170.745 86.743L177.816 79.672Z"
        fill="black" />
    <path d="M154.005 51.448L148.181 51.448L141.11 58.5191L146.934 58.519L154.005 51.448Z" fill="black" />
    <path
        d="M160.661 64.248C160.661 62.1146 160.725 60.024 160.853 57.976L153.782 65.047C153.654 67.095 153.59 69.1857 153.59 71.319L160.661 64.248Z"
        fill="black" />
    <path
        d="M174.106 72.7848C173.37 73.5072 172.686 74.1175 172.053 74.616L164.982 81.687C165.615 81.1886 166.299 80.5782 167.035 79.8559L174.106 72.7848Z"
        fill="black" />
    <path
        d="M147.157 44.472C146.154 46.6499 144.732 48.6597 142.889 50.5015L135.828 57.5629C137.666 55.7237 139.085 53.7171 140.086 51.543L147.157 44.472Z"
        fill="black" />
    <path
        d="M177.295 77.8664C177.259 77.9034 177.222 77.9402 177.185 77.9769L170.224 84.9375C168.973 86.1955 167.652 87.2881 166.262 88.215L173.333 81.144C174.683 80.2442 175.967 79.1885 177.185 77.9769L177.295 77.8664Z"
        fill="black" />
    <path
        d="M141.525 51.768C141.994 48.312 142.57 45.176 143.253 42.36L136.182 49.431C135.499 52.247 134.923 55.3831 134.454 58.8391L141.525 51.768Z"
        fill="black" />
    <path
        d="M172.053 74.616C170.645 75.7253 169.024 76.28 167.189 76.28L160.118 83.351C161.953 83.351 163.574 82.7964 164.982 81.687L172.053 74.616Z"
        fill="black" />
    <path
        d="M162.197 73.592C161.173 71.8 160.661 68.6853 160.661 64.248L153.59 71.319C153.59 75.7564 154.102 78.8711 155.126 80.6631L162.197 73.592Z"
        fill="black" />
    <path
        d="M153.109 57.976C152.896 60.536 152.789 62.8613 152.789 64.952L145.718 72.023C145.718 69.9324 145.825 67.607 146.038 65.047L153.109 57.976Z"
        fill="black" />
    <path
        d="M142.889 50.5015C142.457 50.9329 142.003 51.3551 141.525 51.768L134.454 58.8391C134.932 58.4261 135.386 58.0039 135.818 57.5726L142.889 50.5015Z"
        fill="black" />
    <path
        d="M137.493 39.16C136.042 42.8293 134.912 46.9253 134.101 51.448L127.03 58.519C127.841 53.9964 128.971 49.9004 130.422 46.231L137.493 39.16Z"
        fill="black" />
    <path
        d="M167.189 76.28C164.928 76.28 163.264 75.384 162.197 73.592L155.126 80.6631C156.193 82.4551 157.857 83.351 160.118 83.351L167.189 76.28Z"
        fill="black" />
    <path d="M140.949 57.976H153.109L146.038 65.047H133.878L140.949 57.976Z" fill="black" />
    <path
        d="M165.845 83.32C168.661 83.32 171.157 82.5946 173.333 81.144L166.262 88.215C164.086 89.6657 161.59 90.3911 158.774 90.3911L165.845 83.32Z"
        fill="black" />
    <path
        d="M152.789 64.952C152.789 67.0426 152.896 68.7493 153.109 70.072L146.038 77.143C145.825 75.8204 145.718 74.1137 145.718 72.023L152.789 64.952Z"
        fill="black" />
    <path d="M134.101 51.448L130.197 51.448L123.126 58.519L127.03 58.519L134.101 51.448Z" fill="black" />
    <path
        d="M154.965 76.792C157.013 81.144 160.64 83.32 165.845 83.32L158.774 90.3911C153.569 90.3911 149.942 88.215 147.894 83.863L154.965 76.792Z"
        fill="black" />
    <path
        d="M106.789 25.72C105.637 23.8 104.037 22.84 101.989 22.84L94.9179 29.911C96.9659 29.911 98.5659 30.871 99.7179 32.791L106.789 25.72Z"
        fill="black" />
    <path
        d="M140.757 64.248C140.757 62.1146 140.821 60.024 140.949 57.976L133.878 65.047C133.75 67.095 133.686 69.1857 133.686 71.319L140.757 64.248Z"
        fill="black" />
    <path
        d="M153.109 70.072C152.213 71.8213 151.125 73.2933 149.845 74.488L143.453 80.8799C143.233 81.1154 143.007 81.3418 142.774 81.559L143.453 80.8799C144.443 79.8199 145.305 78.5743 146.038 77.143L153.109 70.072Z"
        fill="black" />
    <path
        d="M108.581 33.848C108.581 30.3066 107.984 27.5973 106.789 25.72L99.7179 32.791C100.913 34.6684 101.51 37.3777 101.51 40.919L108.581 33.848Z"
        fill="black" />
    <path
        d="M130.197 51.448C129.341 51.448 128.676 51.6852 128.202 52.1597L121.132 59.2302C121.606 58.7561 122.271 58.519 123.126 58.519L130.197 51.448Z"
        fill="black" />
    <path
        d="M152.809 79.5134C153.637 78.6835 154.356 77.7764 154.965 76.792L147.894 83.863C147.285 84.8474 146.566 85.7546 145.737 86.5845L152.809 79.5134Z"
        fill="black" />
    <path
        d="M101.989 22.84C99.7047 22.84 97.615 23.7879 95.72 25.6838L88.6533 32.7505C90.5471 30.8575 92.6353 29.911 94.9179 29.911L101.989 22.84Z"
        fill="black" />
    <path
        d="M128.202 52.1597C127.612 52.75 127.317 53.7074 127.317 55.032L120.246 62.103C120.246 60.7785 120.542 59.8205 121.132 59.2302L128.202 52.1597Z"
        fill="black" />
    <path d="M130.581 57.976H133.205L126.134 65.047H123.51L130.581 57.976Z" fill="black" />
    <path
        d="M149.845 74.488C148.565 75.6826 147.285 76.28 146.005 76.28L138.934 83.351C140.214 83.351 141.494 82.7537 142.774 81.559L149.845 74.488Z"
        fill="black" />
    <path
        d="M142.101 73.528C141.205 71.6507 140.757 68.5573 140.757 64.248L133.686 71.319C133.686 75.6284 134.134 78.7217 135.03 80.5991L142.101 73.528Z"
        fill="black" />
    <path
        d="M127.957 57.272C128.426 57.7413 129.301 57.976 130.581 57.976L123.51 65.047C122.23 65.047 121.355 64.8124 120.886 64.343L127.957 57.272Z"
        fill="black" />
    <path
        d="M133.205 57.976C132.992 60.536 132.885 62.8613 132.885 64.952L125.814 72.023C125.814 69.9324 125.921 67.607 126.134 65.047L133.205 57.976Z"
        fill="black" />
    <path
        d="M127.317 55.032C127.317 56.056 127.53 56.8026 127.957 57.272L120.886 64.343C120.459 63.8737 120.246 63.127 120.246 62.103L127.317 55.032Z"
        fill="black" />
    <path
        d="M150.549 81.4C151.367 80.8293 152.113 80.2076 152.787 79.5351L145.737 86.5845C145.058 87.2653 144.305 87.8942 143.478 88.4711L150.549 81.4Z"
        fill="black" />
    <path
        d="M99.6678 29.6494C99.9836 29.3338 100.288 29.176 100.581 29.176L93.5099 36.247C93.217 36.247 92.9126 36.4049 92.5968 36.7205L99.6678 29.6494Z"
        fill="black" />
    <path
        d="M100.581 29.176C101.776 29.176 102.373 30.7973 102.373 34.04L95.3019 41.111C95.3019 37.8684 94.7046 36.247 93.5099 36.247L100.581 29.176Z"
        fill="black" />
    <path
        d="M146.005 76.28C144.341 76.28 143.04 75.3627 142.101 73.528L135.03 80.5991C135.969 82.4337 137.27 83.351 138.934 83.351L146.005 76.28Z"
        fill="black" />
    <path
        d="M126.768 61.368C126.768 58.8506 126.021 56.8666 124.528 55.416L117.457 62.487C118.95 63.9377 119.697 65.9217 119.697 68.439L126.768 61.368Z"
        fill="black" />
    <path
        d="M124.528 55.416C123.035 53.9226 121.051 53.176 118.576 53.176L111.505 60.247C113.98 60.247 115.964 60.9937 117.457 62.487L124.528 55.416Z"
        fill="black" />
    <path
        d="M97.253 34.488C98.1206 32.005 98.9252 30.3925 99.6669 29.6504L92.5968 36.7205C91.8548 37.4621 91.0499 39.075 90.1819 41.5591L97.253 34.488Z"
        fill="black" />
    <path
        d="M95.72 25.6838C94.6065 26.7978 93.5601 28.2392 92.581 30.008L85.5099 37.079C86.4891 35.3103 87.5354 33.8689 88.6489 32.7548L95.72 25.6838Z"
        fill="black" />
    <path
        d="M144.661 83.32C146.752 83.32 148.714 82.68 150.549 81.4L143.478 88.4711C141.643 89.7511 139.681 90.391 137.59 90.391L144.661 83.32Z"
        fill="black" />
    <path
        d="M134.896 69.496C134.597 68.984 134.171 68.728 133.616 68.728L126.545 75.799C127.1 75.799 127.526 76.055 127.825 76.567L134.896 69.496Z"
        fill="black" />
    <path
        d="M135.408 71.608C135.408 70.712 135.237 70.008 134.896 69.496L127.825 76.567C128.166 77.079 128.337 77.783 128.337 78.679L135.408 71.608Z"
        fill="black" />
    <path
        d="M104.357 51.512C107.173 44.8133 108.581 38.9253 108.581 33.848L101.51 40.919C101.51 45.9964 100.102 51.8844 97.2859 58.583L104.357 51.512Z"
        fill="black" />
    <path
        d="M133.616 68.728C133.051 68.728 132.536 68.9607 132.071 69.4262L125.001 76.496C125.466 76.0313 125.98 75.799 126.545 75.799L133.616 68.728Z"
        fill="black" />
    <path
        d="M132.885 64.952C132.885 70.584 133.824 75.064 135.701 78.392L128.63 85.463C126.753 82.135 125.814 77.655 125.814 72.023L132.885 64.952Z"
        fill="black" />
    <path
        d="M132.071 69.4262C132.009 69.488 131.948 69.5539 131.888 69.624L124.817 76.695C124.877 76.625 124.938 76.5591 125 76.4973L132.071 69.4262Z"
        fill="black" />
    <path
        d="M134.192 75.576C135.003 74.6373 135.408 73.3146 135.408 71.608L128.337 78.679C128.337 80.3857 127.932 81.7084 127.121 82.647L134.192 75.576Z"
        fill="black" />
    <path
        d="M131.888 69.624C131.416 70.1974 130.92 70.7428 130.4 71.2599L123.405 78.2554C123.379 78.2807 123.354 78.3059 123.329 78.331L123.405 78.2554C123.897 77.7608 124.368 77.2406 124.817 76.695L131.888 69.624Z"
        fill="black" />
    <path
        d="M118.576 53.176C115.803 53.176 113.307 53.9226 111.088 55.416L104.017 62.487C106.236 60.9937 108.732 60.247 111.505 60.247L118.576 53.176Z"
        fill="black" />
    <path
        d="M102.373 34.04C102.373 38.1786 101.477 42.7653 99.685 47.8L92.6139 54.871C94.4059 49.8364 95.3019 45.2497 95.3019 41.111L102.373 34.04Z"
        fill="black" />
    <path
        d="M123.568 68.984C125.701 66.8507 126.768 64.312 126.768 61.368L119.697 68.439C119.697 71.383 118.63 73.9217 116.497 76.0551L123.568 68.984Z"
        fill="black" />
    <path
        d="M135.701 78.392C137.621 81.6773 140.608 83.32 144.661 83.32L137.59 90.391C133.537 90.391 130.55 88.7484 128.63 85.463L135.701 78.392Z"
        fill="black" />
    <path
        d="M117.488 59.448C118.256 59.448 118.853 59.704 119.28 60.216L112.209 67.287C111.782 66.775 111.185 66.519 110.417 66.519L117.488 59.448Z"
        fill="black" />
    <path
        d="M119.28 60.216C119.749 60.6853 119.984 61.3253 119.984 62.136L112.913 69.207C112.913 68.3964 112.678 67.7564 112.209 67.287L119.28 60.216Z"
        fill="black" />
    <path
        d="M133.111 76.7652C133.5 76.3754 133.861 75.979 134.192 75.576L127.121 82.647C126.79 83.05 126.429 83.4464 126.039 83.8363L133.111 76.7652Z"
        fill="black" />
    <path
        d="M114.575 60.7389C115.436 59.8783 116.407 59.448 117.488 59.448L110.417 66.519C109.336 66.519 108.365 66.9493 107.503 67.81L114.575 60.7389Z"
        fill="black" />
    <path
        d="M119.984 62.136C119.984 63.4949 119.447 64.7116 118.372 65.786L111.303 72.8545C112.376 71.7807 112.913 70.5649 112.913 69.207L119.984 62.136Z"
        fill="black" />
    <path
        d="M130.4 71.2599C128.948 72.7051 127.31 73.9305 125.488 74.936L118.417 82.007C120.239 81.0015 121.877 79.7762 123.329 78.331L130.4 71.2599Z"
        fill="black" />
    <path
        d="M93.989 47.672C94.9277 42.424 96.0157 38.0293 97.253 34.488L90.1819 41.5591C88.9446 45.1004 87.8566 49.495 86.9179 54.743L93.989 47.672Z"
        fill="black" />
    <path
        d="M111.088 55.416C110.346 55.9251 109.659 56.4961 109.026 57.1292L101.961 64.1948C102.592 63.5639 103.277 62.9947 104.017 62.487L111.088 55.416Z"
        fill="black" />
    <path
        d="M113.456 62.2C113.805 61.6229 114.177 61.1366 114.572 60.7411L107.503 67.81C107.107 68.2059 106.734 68.6929 106.385 69.271L113.456 62.2Z"
        fill="black" />
    <path
        d="M118.372 65.786C118.198 65.9597 118.01 66.1297 117.808 66.296L110.737 73.367C110.939 73.2008 111.127 73.0308 111.301 72.857L118.372 65.786Z"
        fill="black" />
    <path
        d="M127.472 80.888C129.761 79.609 131.638 78.2371 133.103 76.7723L126.039 83.8363C124.573 85.3038 122.693 86.678 120.401 87.959L127.472 80.888Z"
        fill="black" />
    <path
        d="M92.581 30.008C89.9783 34.7866 87.9943 40.5039 86.629 47.1599L79.5579 54.231C80.9233 47.575 82.9073 41.8577 85.5099 37.079L92.581 30.008Z"
        fill="black" />
    <path
        d="M109.026 57.1292C107.803 58.3531 106.784 59.8087 105.968 61.496L98.8969 68.567C99.7124 66.8798 100.732 65.4242 101.955 64.2003L109.026 57.1292Z"
        fill="black" />
    <path
        d="M117.808 66.296C116.357 67.4906 114.373 68.3866 111.856 68.984L104.785 76.055C107.302 75.4577 109.286 74.5617 110.737 73.367L117.808 66.296Z"
        fill="black" />
    <path
        d="M111.856 68.856C111.856 66.2533 112.389 64.0346 113.456 62.2L106.385 69.271C105.318 71.1057 104.785 73.3244 104.785 75.927L111.856 68.856Z"
        fill="black" />
    <path
        d="M112.88 73.976C117.915 72.7386 121.477 71.0747 123.568 68.984L116.497 76.0551C114.406 78.1457 110.844 79.8097 105.809 81.047L112.88 73.976Z"
        fill="black" />
    <path
        d="M125.488 74.936C123.056 76.2586 120.88 76.92 118.96 76.92L111.889 83.991C113.809 83.991 115.985 83.3297 118.417 82.007L125.488 74.936Z"
        fill="black" />
    <path d="M111.856 68.984V68.856L104.785 75.927V76.055L111.856 68.984Z" fill="black" />
    <path
        d="M99.685 47.8C97.893 52.792 95.4823 57.784 92.453 62.776L85.3819 69.847C88.4113 64.855 90.8219 59.863 92.6139 54.871L99.685 47.8Z"
        fill="black" />
    <path
        d="M118.256 83.32C121.541 83.32 124.613 82.5093 127.472 80.888L120.401 87.959C117.542 89.5804 114.47 90.391 111.185 90.391L118.256 83.32Z"
        fill="black" />
    <path
        d="M118.96 76.92C115.973 76.92 113.947 75.9386 112.88 73.976L105.809 81.047C106.876 83.0097 108.902 83.991 111.889 83.991L118.96 76.92Z"
        fill="black" />
    <path
        d="M109.733 69.496C109.434 68.984 109.008 68.728 108.453 68.728L101.382 75.799C101.937 75.799 102.363 76.055 102.662 76.567L109.733 69.496Z"
        fill="black" />
    <path
        d="M105.968 61.496C104.731 64.0133 104.112 66.744 104.112 69.688L97.0409 76.759C97.0409 73.815 97.6596 71.0844 98.8969 68.567L105.968 61.496Z"
        fill="black" />
    <path
        d="M110.245 71.608C110.245 70.712 110.074 70.008 109.733 69.496L102.662 76.567C103.003 77.079 103.174 77.783 103.174 78.679L110.245 71.608Z"
        fill="black" />
    <path
        d="M108.453 68.728C107.888 68.728 107.373 68.9607 106.908 69.4262L99.8379 76.496C100.303 76.0313 100.817 75.799 101.382 75.799L108.453 68.728Z"
        fill="black" />
    <path
        d="M92.453 62.776C92.5383 57.9546 93.0503 52.92 93.989 47.672L86.9179 54.743C85.9793 59.991 85.4673 65.0257 85.3819 69.847L92.453 62.776Z"
        fill="black" />
    <path
        d="M106.908 69.4262C106.846 69.488 106.785 69.554 106.725 69.624L99.6539 76.6951C99.714 76.625 99.7749 76.5591 99.8366 76.4973L106.908 69.4262Z"
        fill="black" />
    <path
        d="M92.901 71.416C97.7223 64.8453 101.541 58.2106 104.357 51.512L97.2859 58.583C94.4699 65.2817 90.6513 71.9164 85.8299 78.487L92.901 71.416Z"
        fill="black" />
    <path
        d="M106.725 69.624C106.462 69.9364 106.205 70.2371 105.954 70.5263L98.8827 77.5974C99.1338 77.3082 99.3909 77.0074 99.6539 76.6951L106.725 69.624Z"
        fill="black" />
    <path
        d="M109.029 75.576C109.84 74.6373 110.245 73.3146 110.245 71.608L103.174 78.679C103.174 80.3857 102.769 81.7084 101.958 82.647L109.029 75.576Z"
        fill="black" />
    <path
        d="M105.954 70.5263C105.302 71.2764 104.691 71.9484 104.12 72.5422L97.0493 79.6133C97.6202 79.0195 98.2313 78.3475 98.8827 77.5974L105.954 70.5263Z"
        fill="black" />
    <path
        d="M107.824 79.672C110.299 82.104 113.776 83.32 118.256 83.32L111.185 90.391C106.705 90.391 103.228 89.175 100.753 86.743L107.824 79.672Z"
        fill="black" />
    <path
        d="M104.112 69.688C104.112 73.912 105.349 77.24 107.824 79.672L100.753 86.743C98.2783 84.311 97.0409 80.983 97.0409 76.759L104.112 69.688Z"
        fill="black" />
    <path
        d="M106.975 77.8664C107.682 77.1557 108.367 76.3923 109.029 75.576L101.958 82.647C101.296 83.4633 100.611 84.2268 99.9044 84.9375L106.975 77.8664Z"
        fill="black" />
    <path
        d="M104.12 72.5422C103.903 72.768 103.692 72.9825 103.487 73.1857L96.6703 80.002C96.5844 80.0888 96.4995 80.1737 96.4155 80.2568L96.6703 80.002C96.7946 79.8763 96.9209 79.7468 97.0493 79.6133L104.12 72.5422Z"
        fill="black" />
    <path
        d="M86.629 47.1599C85.3063 53.8159 84.645 59.7466 84.645 64.952L77.5739 72.023C77.5739 66.8177 78.2353 60.887 79.5579 54.231L86.629 47.1599Z"
        fill="black" />
    <path
        d="M103.487 73.1857C102.819 73.8457 102.213 74.3865 101.669 74.808L94.5979 81.879C95.1423 81.4576 95.7482 80.9168 96.4155 80.2568L103.487 73.1857Z"
        fill="black" />
    <path
        d="M106.975 77.8664C106.939 77.9034 106.902 77.9402 106.865 77.9769L99.9044 84.9375C98.6532 86.1955 97.3324 87.288 95.9419 88.215L103.013 81.144C104.363 80.2442 105.647 79.1885 106.865 77.9769L106.975 77.8664Z"
        fill="black" />
    <path
        d="M101.669 74.808C100.346 75.7893 98.8103 76.28 97.061 76.28L89.9899 83.3511C91.7393 83.3511 93.2753 82.8604 94.5979 81.879L101.669 74.808Z"
        fill="black" />
    <path
        d="M78.9665 57.528C78.9665 56.0346 77.9212 55.288 75.8305 55.288L68.7594 62.359C70.8501 62.359 71.8954 63.1057 71.8954 64.599L78.9665 57.528Z"
        fill="black" />
    <path
        d="M94.373 75.192C93.6903 74.424 93.1997 73.1653 92.901 71.416L85.8299 78.487C86.1286 80.2364 86.6193 81.495 87.3019 82.263L94.373 75.192Z"
        fill="black" />
    <path
        d="M97.061 76.28C95.9517 76.28 95.0557 75.9173 94.373 75.192L87.3019 82.263C87.9846 82.9884 88.8806 83.3511 89.9899 83.3511L97.061 76.28Z"
        fill="black" />
    <path
        d="M88.8865 69.496C88.5878 68.984 88.1612 68.728 87.6065 68.728L80.5354 75.799C81.0901 75.799 81.5168 76.055 81.8154 76.567L88.8865 69.496Z"
        fill="black" />
    <path
        d="M75.8305 55.288C74.8492 55.288 73.9105 55.3733 73.0145 55.544L65.9434 62.615C66.8394 62.4444 67.7781 62.359 68.7594 62.359L75.8305 55.288Z"
        fill="black" />
    <path
        d="M89.3985 71.608C89.3985 70.712 89.2278 70.008 88.8865 69.496L81.8154 76.567C82.1568 77.079 82.3274 77.783 82.3274 78.679L89.3985 71.608Z"
        fill="black" />
    <path
        d="M55.496 36.728C54.088 34.296 51.976 32.376 49.16 30.968L42.0889 38.039C44.9049 39.447 47.0169 41.367 48.4249 43.799L55.496 36.728Z"
        fill="black" />
    <path
        d="M73.0145 55.544C72.8012 54.6053 72.5238 53.9653 72.1825 53.624L65.1114 60.695C65.4528 61.0364 65.7301 61.6764 65.9434 62.615L73.0145 55.544Z"
        fill="black" />
    <path
        d="M72.1825 53.624C71.8838 53.24 71.2652 53.048 70.3265 53.048L63.2554 60.119C64.1941 60.119 64.8128 60.311 65.1114 60.695L72.1825 53.624Z"
        fill="black" />
    <path
        d="M78.0065 63.928C78.6465 60.5573 78.9665 58.424 78.9665 57.528L71.8954 64.599C71.8954 65.495 71.5754 67.6284 70.9354 70.999L78.0065 63.928Z"
        fill="black" />
    <path
        d="M87.6065 68.728C87.0415 68.728 86.5264 68.9607 86.0612 69.4262L78.9914 76.496C79.4563 76.0313 79.971 75.799 80.5354 75.799L87.6065 68.728Z"
        fill="black" />
    <path
        d="M95.717 83.32C98.4477 83.32 100.88 82.5946 103.013 81.144L95.9419 88.215C93.8086 89.6657 91.3766 90.3911 88.6459 90.3911L95.717 83.32Z"
        fill="black" />
    <path
        d="M86.0612 69.4262C85.9994 69.488 85.9385 69.554 85.8785 69.624L78.8074 76.6951C78.8675 76.625 78.9284 76.5591 78.9902 76.4973L86.0612 69.4262Z"
        fill="black" />
    <path
        d="M57.672 44.856C57.672 41.8266 56.9467 39.1173 55.496 36.728L48.4249 43.799C49.8756 46.1884 50.6009 48.8977 50.6009 51.927L57.672 44.856Z"
        fill="black" />
    <path
        d="M88.1825 75.576C88.9932 74.6373 89.3985 73.3146 89.3985 71.608L82.3274 78.679C82.3274 80.3857 81.9221 81.7084 81.1114 82.647L88.1825 75.576Z"
        fill="black" />
    <path
        d="M84.645 64.952C84.645 70.3706 85.541 74.7866 87.333 78.2L80.2619 85.271C78.4699 81.8577 77.5739 77.4417 77.5739 72.023L84.645 64.952Z"
        fill="black" />
    <path
        d="M49.16 30.968C46.3867 29.56 42.9947 28.856 38.984 28.856L31.9129 35.927C35.9236 35.927 39.3156 36.631 42.0889 38.039L49.16 30.968Z"
        fill="black" />
    <path
        d="M85.8785 69.624C84.8188 70.891 83.8772 71.9715 83.0539 72.8654L75.9828 79.9364C76.8062 79.0425 77.7477 77.9621 78.8074 76.6951L85.8785 69.624Z"
        fill="black" />
    <path
        d="M70.3265 53.048C67.3825 53.048 64.5878 53.9866 61.9425 55.864L54.8714 62.935C57.5168 61.0577 60.3114 60.119 63.2554 60.119L70.3265 53.048Z"
        fill="black" />
    <path
        d="M87.333 78.2C89.1677 81.6133 91.9623 83.32 95.717 83.32L88.6459 90.3911C84.8913 90.3911 82.0966 88.6844 80.2619 85.271L87.333 78.2Z"
        fill="black" />
    <path
        d="M85.7886 78.2733C86.6076 77.4415 87.4056 76.5424 88.1825 75.576L81.1114 82.647C80.3345 83.6135 79.5365 84.5126 78.7175 85.3443L85.7886 78.2733Z"
        fill="black" />
    <path
        d="M83.0539 72.8654C82.6164 73.3403 82.2122 73.7626 81.8414 74.1322L74.8378 81.1359C74.8152 81.1585 74.7927 81.181 74.7704 81.2033L74.8378 81.1359C75.19 80.7826 75.5717 80.3828 75.9828 79.9364L83.0539 72.8654Z"
        fill="black" />
    <path
        d="M66.2305 61.048C67.7665 59.7253 69.4305 59.0426 71.2225 59L64.1514 66.071C62.3594 66.1137 60.6954 66.7964 59.1594 68.119L66.2305 61.048Z"
        fill="black" />
    <path
        d="M76.5345 74.168C76.5345 72.248 77.0252 68.8346 78.0065 63.928L70.9354 70.999C69.9541 75.9057 69.4634 79.319 69.4634 81.239L76.5345 74.168Z"
        fill="black" />
    <path
        d="M81.8414 74.1322C81.6176 74.3553 81.406 74.5592 81.2065 74.744L74.1354 81.815C74.3349 81.6303 74.5466 81.4264 74.7704 81.2033L81.8414 74.1322Z"
        fill="black" />
    <path
        d="M54.856 54.84C56.7333 51.8106 57.672 48.4826 57.672 44.856L50.6009 51.927C50.6009 55.5537 49.6623 58.8817 47.7849 61.911L54.856 54.84Z"
        fill="black" />
    <path
        d="M85.7886 78.2733C85.6703 78.3934 85.5516 78.512 85.4325 78.6293L78.7175 85.3443C77.9407 86.1332 77.1451 86.8615 76.3304 87.5293L83.4015 80.4582C84.0921 79.8921 84.7691 79.2825 85.4325 78.6293L85.7886 78.2733Z"
        fill="black" />
    <path d="M71.2225 59L68.8545 70.776L61.7834 77.847L64.1514 66.071L71.2225 59Z" fill="black" />
    <path
        d="M45.32 38.584C47.1973 40.3333 48.136 42.616 48.136 45.432L41.0649 52.5031C41.0649 49.687 40.1263 47.4044 38.2489 45.6551L45.32 38.584Z"
        fill="black" />
    <path
        d="M65.5933 61.6381C65.7993 61.4322 66.0117 61.2355 66.2305 61.048L59.1594 68.119C58.9406 68.3066 58.7282 68.5033 58.5222 68.7092L65.5933 61.6381Z"
        fill="black" />
    <path
        d="M81.2065 74.744C80.0545 75.768 79.0732 76.28 78.2625 76.28L71.1914 83.351C72.0021 83.351 72.9834 82.839 74.1354 81.815L81.2065 74.744Z"
        fill="black" />
    <path
        d="M61.9425 55.864C61.0566 56.4884 60.2301 57.1846 59.4628 57.9524L52.4019 65.0133C53.1663 64.2495 53.9895 63.5568 54.8714 62.935L61.9425 55.864Z"
        fill="black" />
    <path
        d="M36.744 35.896C40.6267 35.896 43.4853 36.792 45.32 38.584L38.2489 45.6551C36.4143 43.863 33.5556 42.9671 29.6729 42.9671L36.744 35.896Z"
        fill="black" />
    <path
        d="M82.6145 81.08C82.8788 80.8789 83.1411 80.6716 83.4015 80.4582L76.3304 87.5293C76.07 87.7427 75.8077 87.95 75.5434 88.151L82.6145 81.08Z"
        fill="black" />
    <path
        d="M76.9825 75.704C76.6838 75.32 76.5345 74.808 76.5345 74.168L69.4634 81.239C69.4634 81.879 69.6128 82.391 69.9114 82.775L76.9825 75.704Z"
        fill="black" />
    <path
        d="M78.2625 76.28C77.7505 76.28 77.3238 76.088 76.9825 75.704L69.9114 82.775C70.2528 83.159 70.6794 83.351 71.1914 83.351L78.2625 76.28Z"
        fill="black" />
    <path
        d="M62.6465 66.168C63.4103 64.3495 64.391 62.841 65.5888 61.6426L58.5222 68.7092C57.3224 69.9083 56.3402 71.4183 55.5754 73.239L62.6465 66.168Z"
        fill="black" />
    <path
        d="M38.984 28.856C33.3093 28.856 28.104 30.3706 23.368 33.4L16.2969 40.471C21.0329 37.4417 26.2383 35.927 31.9129 35.927L38.984 28.856Z"
        fill="black" />
    <path
        d="M76.9185 83.32C78.7532 83.32 80.6518 82.5733 82.6145 81.08L75.5434 88.151C73.5808 89.6444 71.6821 90.391 69.8474 90.391L76.9185 83.32Z"
        fill="black" />
    <path
        d="M59.4628 57.9524C57.9759 59.4404 56.7118 61.1976 55.6705 63.224L48.5994 70.295C49.6408 68.2687 50.9049 66.5115 52.3918 65.0235L59.4628 57.9524Z"
        fill="black" />
    <path
        d="M52.1273 58.2756C53.1793 57.223 54.0889 56.0778 54.856 54.84L47.7849 61.911C47.0178 63.1488 46.1083 64.2941 45.0562 65.3467L52.1273 58.2756Z"
        fill="black" />
    <path
        d="M48.136 45.432C48.136 49.5095 46.9938 52.6899 44.7094 54.9734L37.6416 62.0412C39.9238 59.758 41.0649 56.5786 41.0649 52.5031L48.136 45.432Z"
        fill="black" />
    <path
        d="M68.8545 70.776C68.4705 72.6106 67.8518 74.0826 66.9985 75.192L59.9274 82.263C60.7808 81.1537 61.3994 79.6817 61.7834 77.847L68.8545 70.776Z"
        fill="black" />
    <path
        d="M37.256 44.984C37.256 43.832 36.936 43 36.296 42.488L29.2249 49.559C29.8649 50.071 30.1849 50.903 30.1849 52.055L37.256 44.984Z"
        fill="black" />
    <path
        d="M25.224 40.056C28.5093 37.2827 32.3493 35.896 36.744 35.896L29.6729 42.9671C25.2783 42.9671 21.4383 44.3537 18.1529 47.1271L25.224 40.056Z"
        fill="black" />
    <path
        d="M36.296 42.488C35.6987 41.9333 34.696 41.6559 33.288 41.6559L26.2169 48.727C27.6249 48.727 28.6276 49.0044 29.2249 49.559L36.296 42.488Z"
        fill="black" />
    <path
        d="M61.3025 72.952C61.3025 70.5626 61.7505 68.3013 62.6465 66.168L55.5754 73.239C54.6794 75.3724 54.2314 77.6337 54.2314 80.023L61.3025 72.952Z"
        fill="black" />
    <path
        d="M73.0145 81.912C74.2092 82.8506 75.5105 83.32 76.9185 83.32L69.8474 90.391C68.4394 90.391 67.1381 89.9217 65.9434 88.983L73.0145 81.912Z"
        fill="black" />
    <path
        d="M70.3905 77.944C70.9878 79.608 71.8625 80.9306 73.0145 81.912L65.9434 88.983C64.7914 88.0017 63.9168 86.679 63.3194 85.015L70.3905 77.944Z"
        fill="black" />
    <path
        d="M37.128 46.648C37.2133 46.2213 37.256 45.6666 37.256 44.984L30.1849 52.055C30.1849 52.7377 30.1423 53.2924 30.0569 53.719L37.128 46.648Z"
        fill="black" />
    <path
        d="M66.9985 75.192C66.8153 75.4301 66.6301 75.6427 66.443 75.8298L59.374 82.8987C59.5605 82.7122 59.7449 82.5003 59.9274 82.263L66.9985 75.192Z"
        fill="black" />
    <path
        d="M68.3301 80.5948C69.0647 79.8598 69.7515 78.9762 70.3905 77.944L63.3194 85.015C62.6804 86.0473 61.9936 86.9309 61.259 87.6658L68.3301 80.5948Z"
        fill="black" />
    <path
        d="M33.288 41.6559C32.0507 41.6559 30.9627 41.9759 30.024 42.6159L22.9529 49.687C23.8916 49.047 24.9796 48.727 26.2169 48.727L33.288 41.6559Z"
        fill="black" />
    <path
        d="M46.664 62.264C48.7801 61.1303 50.5987 59.8034 52.1199 58.283L45.0562 65.3467C43.5336 66.8701 41.7125 68.1996 39.5929 69.335L46.664 62.264Z"
        fill="black" />
    <path
        d="M66.443 75.8298C65.7585 76.5139 65.0476 76.856 64.3105 76.856L57.2394 83.927C57.9766 83.927 58.6874 83.585 59.3719 82.9008L66.443 75.8298Z"
        fill="black" />
    <path
        d="M62.0705 75.896C61.5585 75.256 61.3025 74.2746 61.3025 72.952L54.2314 80.023C54.2314 81.3457 54.4874 82.327 54.9994 82.967L62.0705 75.896Z"
        fill="black" />
    <path
        d="M30.024 42.6159C29.8446 42.7356 29.678 42.8723 29.5243 43.0261L22.4543 50.0961C22.6077 49.9427 22.774 49.8063 22.9529 49.687L30.024 42.6159Z"
        fill="black" />
    <path
        d="M64.3105 76.856C63.3718 76.856 62.6252 76.536 62.0705 75.896L54.9994 82.967C55.5541 83.607 56.3008 83.927 57.2394 83.927L64.3105 76.856Z"
        fill="black" />
    <path
        d="M55.6705 63.224C54.0918 66.2533 53.3025 69.4746 53.3025 72.888L46.2314 79.959C46.2314 76.5457 47.0208 73.3244 48.5994 70.295L55.6705 63.224Z"
        fill="black" />
    <path
        d="M23.368 33.4C21.7474 34.4312 20.2388 35.6456 18.842 37.0432L11.7822 44.103C13.1758 42.7102 14.6807 41.4995 16.2969 40.471L23.368 33.4Z"
        fill="black" />
    <path
        d="M29.5243 43.0261C28.9102 43.6405 28.5007 44.5278 28.296 45.688L21.2249 52.759C21.4297 51.5989 21.8391 50.7116 22.4532 50.0972L29.5243 43.0261Z"
        fill="black" />
    <path
        d="M24.0059 41.183C24.3998 40.7892 24.8059 40.4136 25.224 40.056L18.1529 47.1271C17.7348 47.4847 17.3288 47.8603 16.9348 48.2541L24.0059 41.183Z"
        fill="black" />
    <path d="M35.016 59.064L37.128 46.648L30.0569 53.719L27.9449 66.135L35.016 59.064Z" fill="black" />
    <path
        d="M62.0065 83.32C64.4045 83.32 66.511 82.413 68.326 80.5989L61.259 87.6658C59.4432 89.4826 57.3353 90.3911 54.9354 90.3911L62.0065 83.32Z"
        fill="black" />
    <path
        d="M44.7094 54.9734C42.5238 57.158 39.2927 58.5216 35.016 59.064L27.9449 66.135C32.2216 65.5926 35.4528 64.2291 37.6384 62.0444L44.7094 54.9734Z"
        fill="black" />
    <path
        d="M53.3025 72.888C53.3025 76.0026 54.0918 78.52 55.6705 80.44L48.5994 87.511C47.0208 85.591 46.2314 83.0737 46.2314 79.959L53.3025 72.888Z"
        fill="black" />
    <path
        d="M55.6705 80.44C57.2492 82.36 59.3612 83.32 62.0065 83.32L54.9354 90.3911C52.2901 90.3911 50.1781 89.431 48.5994 87.511L55.6705 80.44Z"
        fill="black" />
    <path
        d="M33.864 65.656C38.8133 65.3146 43.08 64.184 46.664 62.264L39.5929 69.335C36.0089 71.255 31.7423 72.3857 26.7929 72.727L33.864 65.656Z"
        fill="black" />
    <path
        d="M28.296 45.688C27.272 51.2773 26.4827 55.736 25.928 59.064L18.8569 66.135C19.4116 62.807 20.2009 58.3484 21.2249 52.759L28.296 45.688Z"
        fill="black" />
    <path
        d="M17.672 51.6399C19.2313 47.3335 21.3397 43.8507 23.9972 41.1916L16.9348 48.2541C14.2732 50.9142 12.1619 54.3998 10.6009 58.711L17.672 51.6399Z"
        fill="black" />
    <path
        d="M18.842 37.0432C16.1937 39.693 13.9477 43.0013 12.104 46.968L5.03293 54.039C6.87659 50.0724 9.12261 46.7641 11.771 44.1142L18.842 37.0432Z"
        fill="black" />
    <path
        d="M25.928 59.064C25.3733 59.0213 24.584 58.9146 23.56 58.744L16.4889 65.815C17.5129 65.9857 18.3023 66.0924 18.8569 66.135L25.928 59.064Z"
        fill="black" />
    <path
        d="M23.56 58.744C23.3467 58.7013 23.0267 58.68 22.6 58.68L15.5289 65.751C15.9556 65.751 16.2756 65.7724 16.4889 65.815L23.56 58.744Z"
        fill="black" />
    <path
        d="M22.6 58.68C21.6613 58.68 20.9147 58.9573 20.36 59.512L13.2889 66.583C13.8436 66.0284 14.5903 65.751 15.5289 65.751L22.6 58.68Z"
        fill="black" />
    <path
        d="M20.36 59.512C19.848 60.0666 19.592 60.8133 19.592 61.752L12.5209 68.823C12.5209 67.8844 12.7769 67.1377 13.2889 66.583L20.36 59.512Z"
        fill="black" />
    <path d="M31.112 81.08L33.864 65.656L26.7929 72.727L24.0409 88.151L31.112 81.08Z" fill="black" />
    <path
        d="M22.664 65.144C22.4507 65.1013 23.176 65.208 24.84 65.464L17.7689 72.535C16.4965 72.3393 15.7729 72.2308 15.5982 72.2097L15.5929 72.215C15.5427 72.205 15.5445 72.2032 15.5982 72.2097L22.664 65.144Z"
        fill="black" />
    <path
        d="M19.592 61.752C19.592 62.648 19.784 63.3946 20.168 63.992L13.0969 71.063C12.7129 70.4657 12.5209 69.719 12.5209 68.823L19.592 61.752Z"
        fill="black" />
    <path
        d="M20.168 63.992C20.552 64.5466 21.384 64.9306 22.664 65.144L15.5929 72.215C14.3129 72.0017 13.4809 71.6177 13.0969 71.063L20.168 63.992Z"
        fill="black" />
    <path
        d="M15.048 68.472C15.048 62.1573 15.9227 56.5466 17.672 51.6399L10.6009 58.711C8.8516 63.6177 7.97693 69.2284 7.97693 75.543L15.048 68.472Z"
        fill="black" />
    <path d="M24.84 65.464L22.728 77.56L15.6569 84.631L17.7689 72.535L24.84 65.464Z" fill="black" />
    <path
        d="M12.104 46.968C9.33066 52.984 7.94399 60.3226 7.94399 68.984L0.872925 76.055C0.872925 67.3937 2.25959 60.055 5.03293 54.039L12.104 46.968Z"
        fill="black" />
    <path
        d="M28.079 87.8096C29.5607 86.3272 30.5717 84.084 31.112 81.08L24.0409 88.151C23.5006 91.1551 22.4896 93.3983 21.0079 94.8807L28.079 87.8096Z"
        fill="black" />
    <path
        d="M15.816 75.512C15.304 73.464 15.048 71.1173 15.048 68.472L7.97693 75.543C7.97693 78.1884 8.23293 80.5351 8.74493 82.5831L15.816 75.512Z"
        fill="black" />
    <path
        d="M22.728 77.56C22.3445 79.5956 21.8385 80.9275 21.2102 81.5556L14.1397 88.6261C14.7678 87.9978 15.2735 86.6661 15.6569 84.631L22.728 77.56Z"
        fill="black" />
    <path
        d="M21.2102 81.5556C20.9299 81.8358 20.6251 81.976 20.296 81.976L13.2249 89.047C13.554 89.047 13.8593 88.9064 14.1397 88.6261L21.2102 81.5556Z"
        fill="black" />
    <path
        d="M17.864 80.312C17.0533 79.16 16.3707 77.56 15.816 75.512L8.74493 82.5831C9.2996 84.6311 9.98227 86.231 10.7929 87.383L17.864 80.312Z"
        fill="black" />
    <path
        d="M20.296 81.976C19.528 81.976 18.7173 81.4213 17.864 80.312L10.7929 87.383C11.6463 88.4924 12.4569 89.047 13.2249 89.047L20.296 81.976Z"
        fill="black" />
    <path
        d="M22.408 89.976C24.7438 89.976 26.6333 89.2547 28.0765 87.8121L21.0079 94.8807C19.5643 96.3249 17.674 97.047 15.3369 97.047L22.408 89.976Z"
        fill="black" />
    <path
        d="M7.94399 68.984C7.94399 73.592 8.60533 77.4746 9.92799 80.632L2.85693 87.703C1.53426 84.5457 0.872925 80.663 0.872925 76.055L7.94399 68.984Z"
        fill="black" />
    <path
        d="M15.176 87.672C17.3947 89.208 19.8053 89.976 22.408 89.976L15.3369 97.047C12.7343 97.047 10.3236 96.279 8.10493 94.743L15.176 87.672Z"
        fill="black" />
    <path
        d="M9.92799 80.632C11.2507 83.7893 13 86.136 15.176 87.672L8.10493 94.743C5.92893 93.207 4.17959 90.8604 2.85693 87.703L9.92799 80.632Z"
        fill="black" />
    <path
        d="M57.672 44.856C57.672 48.4827 56.7333 51.8107 54.856 54.84C52.9787 57.8693 50.248 60.344 46.664 62.264C43.08 64.184 38.8133 65.3147 33.864 65.656L31.112 81.08C30.0453 87.0107 27.144 89.976 22.408 89.976C19.8053 89.976 17.3947 89.208 15.176 87.672C13 86.136 11.2507 83.7893 9.928 80.632C8.60533 77.4747 7.944 73.592 7.944 68.984C7.944 60.3227 9.33067 52.984 12.104 46.968C14.92 40.9093 18.6747 36.3867 23.368 33.4C28.104 30.3707 33.3093 28.856 38.984 28.856C42.9947 28.856 46.3867 29.56 49.16 30.968C51.976 32.376 54.088 34.296 55.496 36.728C56.9467 39.1173 57.672 41.8267 57.672 44.856ZM35.016 59.064C43.7627 57.9547 48.136 53.4107 48.136 45.432C48.136 42.616 47.1973 40.3333 45.32 38.584C43.4853 36.792 40.6267 35.896 36.744 35.896C32.3493 35.896 28.5093 37.2827 25.224 40.056C21.9813 42.8293 19.464 46.6907 17.672 51.64C15.9227 56.5467 15.048 62.1573 15.048 68.472C15.048 71.1173 15.304 73.464 15.816 75.512C16.3707 77.56 17.0533 79.16 17.864 80.312C18.7173 81.4213 19.528 81.976 20.296 81.976C21.3627 81.976 22.1733 80.504 22.728 77.56L24.84 65.464C23.176 65.208 22.4507 65.1013 22.664 65.144C21.384 64.9307 20.552 64.5467 20.168 63.992C19.784 63.3947 19.592 62.648 19.592 61.752C19.592 60.8133 19.848 60.0667 20.36 59.512C20.9147 58.9573 21.6613 58.68 22.6 58.68C23.0267 58.68 23.3467 58.7013 23.56 58.744C24.584 58.9147 25.3733 59.0213 25.928 59.064C26.4827 55.736 27.272 51.2773 28.296 45.688C28.552 44.2373 29.128 43.2133 30.024 42.616C30.9627 41.976 32.0507 41.656 33.288 41.656C34.696 41.656 35.6987 41.9333 36.296 42.488C36.936 43 37.256 43.832 37.256 44.984C37.256 45.6667 37.2133 46.2213 37.128 46.648L35.016 59.064ZM62.0065 83.32C59.3612 83.32 57.2492 82.36 55.6705 80.44C54.0918 78.52 53.3025 76.0027 53.3025 72.888C53.3025 69.4747 54.0918 66.2533 55.6705 63.224C57.2492 60.152 59.3398 57.6987 61.9425 55.864C64.5878 53.9867 67.3825 53.048 70.3265 53.048C71.2652 53.048 71.8838 53.24 72.1825 53.624C72.5238 53.9653 72.8012 54.6053 73.0145 55.544C73.9105 55.3733 74.8492 55.288 75.8305 55.288C77.9212 55.288 78.9665 56.0347 78.9665 57.528C78.9665 58.424 78.6465 60.5573 78.0065 63.928C77.0252 68.8347 76.5345 72.248 76.5345 74.168C76.5345 74.808 76.6838 75.32 76.9825 75.704C77.3238 76.088 77.7505 76.28 78.2625 76.28C79.0732 76.28 80.0545 75.768 81.2065 74.744C82.3585 73.6773 83.9158 71.9707 85.8785 69.624C86.3905 69.0267 86.9665 68.728 87.6065 68.728C88.1612 68.728 88.5878 68.984 88.8865 69.496C89.2278 70.008 89.3985 70.712 89.3985 71.608C89.3985 73.3147 88.9932 74.6373 88.1825 75.576C86.4332 77.752 84.5772 79.5867 82.6145 81.08C80.6518 82.5733 78.7532 83.32 76.9185 83.32C75.5105 83.32 74.2092 82.8507 73.0145 81.912C71.8625 80.9307 70.9878 79.608 70.3905 77.944C68.1718 81.528 65.3772 83.32 62.0065 83.32ZM64.3105 76.856C65.2492 76.856 66.1452 76.3013 66.9985 75.192C67.8518 74.0827 68.4705 72.6107 68.8545 70.776L71.2225 59C69.4305 59.0427 67.7665 59.7253 66.2305 61.048C64.7372 62.328 63.5425 64.0347 62.6465 66.168C61.7505 68.3013 61.3025 70.5627 61.3025 72.952C61.3025 74.2747 61.5585 75.256 62.0705 75.896C62.6252 76.536 63.3718 76.856 64.3105 76.856ZM108.453 68.728C109.008 68.728 109.434 68.984 109.733 69.496C110.074 70.008 110.245 70.712 110.245 71.608C110.245 73.3147 109.84 74.6373 109.029 75.576C107.194 77.8373 105.189 79.6933 103.013 81.144C100.88 82.5947 98.4477 83.32 95.717 83.32C91.9623 83.32 89.1677 81.6133 87.333 78.2C85.541 74.7867 84.645 70.3707 84.645 64.952C84.645 59.7467 85.3063 53.816 86.629 47.16C87.9943 40.504 89.9783 34.7867 92.581 30.008C95.2263 25.2293 98.3623 22.84 101.989 22.84C104.037 22.84 105.637 23.8 106.789 25.72C107.984 27.5973 108.581 30.3067 108.581 33.848C108.581 38.9253 107.173 44.8133 104.357 51.512C101.541 58.2107 97.7223 64.8453 92.901 71.416C93.1997 73.1653 93.6903 74.424 94.373 75.192C95.0557 75.9173 95.9517 76.28 97.061 76.28C98.8103 76.28 100.346 75.7893 101.669 74.808C102.992 73.784 104.677 72.056 106.725 69.624C107.237 69.0267 107.813 68.728 108.453 68.728ZM100.581 29.176C99.5997 29.176 98.4903 30.9467 97.253 34.488C96.0157 38.0293 94.9277 42.424 93.989 47.672C93.0503 52.92 92.5383 57.9547 92.453 62.776C95.4823 57.784 97.893 52.792 99.685 47.8C101.477 42.7653 102.373 38.1787 102.373 34.04C102.373 30.7973 101.776 29.176 100.581 29.176ZM133.616 68.728C134.171 68.728 134.597 68.984 134.896 69.496C135.237 70.008 135.408 70.712 135.408 71.608C135.408 73.3147 135.003 74.6373 134.192 75.576C132.613 77.496 130.373 79.2667 127.472 80.888C124.613 82.5093 121.541 83.32 118.256 83.32C113.776 83.32 110.299 82.104 107.824 79.672C105.349 77.24 104.112 73.912 104.112 69.688C104.112 66.744 104.731 64.0133 105.968 61.496C107.205 58.936 108.912 56.9093 111.088 55.416C113.307 53.9227 115.803 53.176 118.576 53.176C121.051 53.176 123.035 53.9227 124.528 55.416C126.021 56.8667 126.768 58.8507 126.768 61.368C126.768 64.312 125.701 66.8507 123.568 68.984C121.477 71.0747 117.915 72.7387 112.88 73.976C113.947 75.9387 115.973 76.92 118.96 76.92C120.88 76.92 123.056 76.2587 125.488 74.936C127.963 73.5707 130.096 71.8 131.888 69.624C132.4 69.0267 132.976 68.728 133.616 68.728ZM117.488 59.448C115.909 59.448 114.565 60.3653 113.456 62.2C112.389 64.0347 111.856 66.2533 111.856 68.856V68.984C114.373 68.3867 116.357 67.4907 117.808 66.296C119.259 65.1013 119.984 63.7147 119.984 62.136C119.984 61.3253 119.749 60.6853 119.28 60.216C118.853 59.704 118.256 59.448 117.488 59.448ZM178.773 68.728C179.328 68.728 179.754 68.984 180.053 69.496C180.394 70.008 180.565 70.712 180.565 71.608C180.565 73.3147 180.16 74.6373 179.349 75.576C177.514 77.8373 175.509 79.6933 173.333 81.144C171.157 82.5947 168.661 83.32 165.845 83.32C160.64 83.32 157.013 81.144 154.965 76.792C153.856 78.584 152.384 80.12 150.549 81.4C148.714 82.68 146.752 83.32 144.661 83.32C140.608 83.32 137.621 81.6773 135.701 78.392C133.824 75.064 132.885 70.584 132.885 64.952C132.885 62.8613 132.992 60.536 133.205 57.976H130.581C129.301 57.976 128.426 57.7413 127.957 57.272C127.53 56.8027 127.317 56.056 127.317 55.032C127.317 52.6427 128.277 51.448 130.197 51.448H134.101C134.912 46.9253 136.042 42.8293 137.493 39.16C138.944 35.4907 140.693 32.568 142.741 30.392C144.789 28.216 147.008 27.128 149.397 27.128C151.189 27.128 152.597 27.9173 153.621 29.496C154.645 31.0747 155.157 33.0587 155.157 35.448C155.157 41.464 152.832 46.7973 148.181 51.448H154.005C154.816 46.9253 155.946 42.8293 157.397 39.16C158.848 35.4907 160.597 32.568 162.645 30.392C164.693 28.216 166.912 27.128 169.301 27.128C171.093 27.128 172.501 27.9173 173.525 29.496C174.549 31.0747 175.061 33.0587 175.061 35.448C175.061 41.464 172.736 46.7973 168.085 51.448H173.909C174.592 51.448 175.082 51.5973 175.381 51.896C175.68 52.1947 175.829 52.7493 175.829 53.56C175.829 56.504 173.418 57.976 168.597 57.976H160.853C160.725 60.024 160.661 62.1147 160.661 64.248C160.661 68.6853 161.173 71.8 162.197 73.592C163.264 75.384 164.928 76.28 167.189 76.28C169.024 76.28 170.645 75.7253 172.053 74.616C173.461 73.5067 175.125 71.8427 177.045 69.624C177.557 69.0267 178.133 68.728 178.773 68.728ZM147.669 33.272C147.029 33.272 146.304 34.0827 145.493 35.704C144.725 37.2827 143.978 39.5013 143.253 42.36C142.57 45.176 141.994 48.312 141.525 51.768C144.042 49.592 145.92 47.16 147.157 44.472C148.437 41.7413 149.077 39.2667 149.077 37.048C149.077 34.5307 148.608 33.272 147.669 33.272ZM167.573 33.272C166.933 33.272 166.208 34.0827 165.397 35.704C164.629 37.2827 163.882 39.5013 163.157 42.36C162.474 45.176 161.898 48.312 161.429 51.768C163.946 49.592 165.824 47.16 167.061 44.472C168.341 41.7413 168.981 39.2667 168.981 37.048C168.981 34.5307 168.512 33.272 167.573 33.272ZM146.005 76.28C147.285 76.28 148.565 75.6827 149.845 74.488C151.125 73.2933 152.213 71.8213 153.109 70.072C152.896 68.7493 152.789 67.0427 152.789 64.952C152.789 62.8613 152.896 60.536 153.109 57.976H140.949C140.821 60.024 140.757 62.1147 140.757 64.248C140.757 68.5573 141.205 71.6507 142.101 73.528C143.04 75.3627 144.341 76.28 146.005 76.28ZM198.297 70.648C198.851 70.648 199.278 70.904 199.577 71.416C199.918 71.928 200.089 72.632 200.089 73.528C200.089 75.064 199.726 76.3867 199.001 77.496C197.806 79.3307 196.227 80.76 194.265 81.784C192.345 82.808 190.041 83.32 187.353 83.32C183.257 83.32 180.078 82.104 177.817 79.672C175.555 77.1973 174.424 73.8693 174.424 69.688C174.424 66.744 175.043 64.0133 176.281 61.496C177.518 58.936 179.225 56.9093 181.401 55.416C183.619 53.9227 186.115 53.176 188.889 53.176C191.363 53.176 193.347 53.9227 194.841 55.416C196.334 56.8667 197.081 58.8507 197.081 61.368C197.081 64.312 196.014 66.8507 193.881 68.984C191.79 71.0747 188.206 72.7387 183.129 73.976C184.153 75.9387 185.881 76.92 188.312 76.92C190.062 76.92 191.491 76.5147 192.601 75.704C193.753 74.8933 195.075 73.528 196.569 71.608C197.081 70.968 197.657 70.648 198.297 70.648ZM187.801 59.448C186.222 59.448 184.878 60.3653 183.769 62.2C182.702 64.0347 182.169 66.2533 182.169 68.856V68.984C184.686 68.3867 186.67 67.4907 188.121 66.296C189.571 65.1013 190.297 63.7147 190.297 62.136C190.297 61.3253 190.062 60.6853 189.593 60.216C189.166 59.704 188.569 59.448 187.801 59.448ZM268.235 44.856C268.235 48.4827 267.296 51.8107 265.419 54.84C263.541 57.8693 260.811 60.344 257.227 62.264C253.643 64.184 249.376 65.3147 244.427 65.656L241.675 81.08C240.608 87.0107 237.707 89.976 232.971 89.976C230.368 89.976 227.957 89.208 225.739 87.672C223.563 86.136 221.813 83.7893 220.491 80.632C219.168 77.4747 218.507 73.592 218.507 68.984C218.507 60.3227 219.893 52.984 222.667 46.968C225.483 40.9093 229.237 36.3867 233.931 33.4C238.667 30.3707 243.872 28.856 249.547 28.856C253.557 28.856 256.949 29.56 259.723 30.968C262.539 32.376 264.651 34.296 266.059 36.728C267.509 39.1173 268.235 41.8267 268.235 44.856ZM245.579 59.064C254.325 57.9547 258.699 53.4107 258.699 45.432C258.699 42.616 257.76 40.3333 255.883 38.584C254.048 36.792 251.189 35.896 247.307 35.896C242.912 35.896 239.072 37.2827 235.787 40.056C232.544 42.8293 230.027 46.6907 228.235 51.64C226.485 56.5467 225.611 62.1573 225.611 68.472C225.611 71.1173 225.867 73.464 226.379 75.512C226.933 77.56 227.616 79.16 228.427 80.312C229.28 81.4213 230.091 81.976 230.859 81.976C231.925 81.976 232.736 80.504 233.291 77.56L235.403 65.464C233.739 65.208 233.013 65.1013 233.227 65.144C231.947 64.9307 231.115 64.5467 230.731 63.992C230.347 63.3947 230.155 62.648 230.155 61.752C230.155 60.8133 230.411 60.0667 230.923 59.512C231.477 58.9573 232.224 58.68 233.163 58.68C233.589 58.68 233.909 58.7013 234.123 58.744C235.147 58.9147 235.936 59.0213 236.491 59.064C237.045 55.736 237.835 51.2773 238.859 45.688C239.115 44.2373 239.691 43.2133 240.587 42.616C241.525 41.976 242.613 41.656 243.851 41.656C245.259 41.656 246.261 41.9333 246.859 42.488C247.499 43 247.819 43.832 247.819 44.984C247.819 45.6667 247.776 46.2213 247.691 46.648L245.579 59.064ZM272.569 83.32C269.924 83.32 267.812 82.36 266.233 80.44C264.654 78.52 263.865 76.0027 263.865 72.888C263.865 69.4747 264.654 66.2533 266.233 63.224C267.812 60.152 269.902 57.6987 272.505 55.864C275.15 53.9867 277.945 53.048 280.889 53.048C281.828 53.048 282.446 53.24 282.745 53.624C283.086 53.9653 283.364 54.6053 283.577 55.544C284.473 55.3733 285.412 55.288 286.393 55.288C288.484 55.288 289.529 56.0347 289.529 57.528C289.529 58.424 289.209 60.5573 288.569 63.928C287.588 68.8347 287.097 72.248 287.097 74.168C287.097 74.808 287.246 75.32 287.545 75.704C287.886 76.088 288.313 76.28 288.825 76.28C289.636 76.28 290.617 75.768 291.769 74.744C292.921 73.6773 294.478 71.9707 296.441 69.624C296.953 69.0267 297.529 68.728 298.169 68.728C298.724 68.728 299.15 68.984 299.449 69.496C299.79 70.008 299.961 70.712 299.961 71.608C299.961 73.3147 299.556 74.6373 298.745 75.576C296.996 77.752 295.14 79.5867 293.177 81.08C291.214 82.5733 289.316 83.32 287.481 83.32C286.073 83.32 284.772 82.8507 283.577 81.912C282.425 80.9307 281.55 79.608 280.953 77.944C278.734 81.528 275.94 83.32 272.569 83.32ZM274.873 76.856C275.812 76.856 276.708 76.3013 277.561 75.192C278.414 74.0827 279.033 72.6107 279.417 70.776L281.785 59C279.993 59.0427 278.329 59.7253 276.793 61.048C275.3 62.328 274.105 64.0347 273.209 66.168C272.313 68.3013 271.865 70.5627 271.865 72.952C271.865 74.2747 272.121 75.256 272.633 75.896C273.188 76.536 273.934 76.856 274.873 76.856ZM313.256 73.976C313.725 73.5493 314.194 73.336 314.664 73.336C315.176 73.336 315.581 73.6347 315.88 74.232C316.221 74.7867 316.392 75.4693 316.392 76.28C316.392 78.072 315.752 79.5013 314.472 80.568C312.253 82.4027 309.736 83.32 306.92 83.32C302.866 83.32 299.901 81.6347 298.024 78.264C296.146 74.8507 295.208 70.4133 295.208 64.952C295.208 59.7467 295.869 53.816 297.192 47.16C298.557 40.504 300.541 34.7867 303.144 30.008C305.789 25.2293 308.925 22.84 312.552 22.84C314.6 22.84 316.2 23.8 317.352 25.72C318.546 27.5973 319.144 30.3067 319.144 33.848C319.144 38.9253 317.736 44.8133 314.92 51.512C312.146 58.2107 308.349 64.824 303.528 71.352C303.826 73.1013 304.36 74.36 305.128 75.128C305.896 75.896 306.941 76.28 308.264 76.28C308.989 76.28 309.8 76.0667 310.696 75.64C311.634 75.2133 312.488 74.6587 313.256 73.976ZM311.144 29.176C310.162 29.176 309.053 30.9467 307.816 34.488C306.578 38.0293 305.49 42.424 304.552 47.672C303.613 52.92 303.101 57.9547 303.016 62.776C306.045 57.784 308.456 52.792 310.248 47.8C312.04 42.7653 312.936 38.1787 312.936 34.04C312.936 30.7973 312.338 29.176 311.144 29.176Z"
        fill="white" />
</svg>