<svg width="320" height="76" viewBox="0 0 320 76" fill="none" xmlns="http://www.w3.org/2000/svg">
    <path
        d="M317.352 3.71997C316.2 1.79997 314.6 0.839966 312.552 0.839966L305.48 7.91103C307.528 7.91103 309.128 8.87103 310.28 10.791L317.352 3.71997Z"
        fill="black" />
    <path
        d="M319.143 11.848C319.143 8.30664 318.546 5.5973 317.352 3.71997L310.28 10.791C311.475 12.6684 312.072 15.3777 312.072 18.919L319.143 11.848Z"
        fill="black" />
    <path
        d="M312.552 0.839966C310.267 0.839966 308.178 1.78791 306.283 3.68379L299.216 10.7505C301.11 8.85753 303.198 7.91103 305.48 7.91103L312.552 0.839966Z"
        fill="black" />
    <path
        d="M310.23 7.64944C310.546 7.33379 310.851 7.17596 311.143 7.17596L304.072 14.247C303.779 14.247 303.475 14.4049 303.159 14.7205L310.23 7.64944Z"
        fill="black" />
    <path
        d="M311.143 7.17596C312.338 7.17596 312.936 8.7973 312.936 12.04L305.864 19.111C305.864 15.8684 305.267 14.247 304.072 14.247L311.143 7.17596Z"
        fill="black" />
    <path
        d="M307.815 12.488C308.683 10.005 309.488 8.39246 310.229 7.65042L303.159 14.7205C302.417 15.4621 301.612 17.075 300.744 19.5591L307.815 12.488Z"
        fill="black" />
    <path
        d="M306.283 3.68379C305.169 4.79785 304.123 6.23924 303.143 8.00795L296.072 15.079C297.052 13.3103 298.098 11.8689 299.211 10.7549L306.283 3.68379Z"
        fill="black" />
    <path
        d="M314.919 29.512C317.735 22.8133 319.143 16.9253 319.143 11.848L312.072 18.919C312.072 23.9964 310.664 29.8844 307.848 36.583L314.919 29.512Z"
        fill="black" />
    <path
        d="M312.936 12.04C312.936 16.1786 312.039 20.7653 310.247 25.8L303.176 32.871C304.968 27.8364 305.864 23.2497 305.864 19.111L312.936 12.04Z"
        fill="black" />
    <path
        d="M304.552 25.672C305.49 20.424 306.578 16.0293 307.815 12.488L300.744 19.5591C299.507 23.1004 298.419 27.495 297.48 32.743L304.552 25.672Z"
        fill="black" />
    <path
        d="M303.143 8.00795C300.541 12.7866 298.557 18.5039 297.191 25.1599L290.12 32.231C291.486 25.575 293.47 19.8577 296.072 15.079L303.143 8.00795Z"
        fill="black" />
    <path
        d="M310.247 25.8C308.455 30.792 306.045 35.784 303.016 40.776L295.944 47.847C298.974 42.855 301.384 37.863 303.176 32.871L310.247 25.8Z"
        fill="black" />
    <path
        d="M303.016 40.776C303.101 35.9546 303.613 30.92 304.552 25.672L297.48 32.743C296.542 37.991 296.03 43.0257 295.944 47.847L303.016 40.776Z"
        fill="black" />
    <path
        d="M303.527 49.352C308.349 42.824 312.146 36.2106 314.919 29.512L307.848 36.583C305.075 43.2817 301.278 49.895 296.456 56.423L303.527 49.352Z"
        fill="black" />
    <path
        d="M315.879 52.232C315.581 51.6346 315.176 51.336 314.664 51.336L307.592 58.407C308.104 58.407 308.51 58.7057 308.808 59.303L315.879 52.232Z"
        fill="black" />
    <path
        d="M316.392 54.28C316.392 53.4693 316.221 52.7866 315.879 52.232L308.808 59.303C309.15 59.8577 309.32 60.5404 309.32 61.351L316.392 54.28Z"
        fill="black" />
    <path
        d="M314.664 51.336C314.194 51.336 313.725 51.5493 313.255 51.976L306.184 59.047C306.654 58.6204 307.123 58.407 307.592 58.407L314.664 51.336Z"
        fill="black" />
    <path
        d="M297.191 25.1599C295.869 31.8159 295.207 37.7466 295.207 42.952L288.136 50.023C288.136 44.8177 288.798 38.887 290.12 32.231L297.191 25.1599Z"
        fill="black" />
    <path
        d="M314.859 58.2143C315.881 57.1923 316.392 55.8808 316.392 54.28L309.32 61.351C309.32 62.9519 308.81 64.2634 307.788 65.2854L314.859 58.2143Z"
        fill="black" />
    <path
        d="M313.255 51.976C312.487 52.6586 311.634 53.2133 310.695 53.64L303.624 60.711C304.563 60.2844 305.416 59.7297 306.184 59.047L313.255 51.976Z"
        fill="black" />
    <path
        d="M314.471 58.568C314.607 58.4548 314.736 58.3375 314.857 58.2161L307.788 65.2854C307.666 65.4074 307.537 65.5253 307.4 65.639L314.471 58.568Z"
        fill="black" />
    <path
        d="M310.695 53.64C309.799 54.0666 308.989 54.28 308.263 54.28L301.192 61.351C301.918 61.351 302.728 61.1377 303.624 60.711L310.695 53.64Z"
        fill="black" />
    <path
        d="M289.529 35.528C289.529 34.0346 288.484 33.288 286.393 33.288L279.322 40.359C281.413 40.359 282.458 41.1057 282.458 42.599L289.529 35.528Z"
        fill="black" />
    <path
        d="M305.128 53.128C304.36 52.36 303.826 51.1013 303.527 49.352L296.456 56.423C296.755 58.1724 297.288 59.431 298.056 60.199L305.128 53.128Z"
        fill="black" />
    <path
        d="M308.263 54.28C306.941 54.28 305.896 53.896 305.128 53.128L298.056 60.199C298.824 60.967 299.87 61.351 301.192 61.351L308.263 54.28Z"
        fill="black" />
    <path
        d="M299.449 47.496C299.15 46.984 298.724 46.728 298.169 46.728L291.098 53.799C291.653 53.799 292.079 54.055 292.378 54.567L299.449 47.496Z"
        fill="black" />
    <path
        d="M286.393 33.288C285.412 33.288 284.473 33.3733 283.577 33.544L276.506 40.615C277.402 40.4444 278.341 40.359 279.322 40.359L286.393 33.288Z"
        fill="black" />
    <path
        d="M299.961 49.608C299.961 48.712 299.79 48.008 299.449 47.496L292.378 54.567C292.719 55.079 292.89 55.783 292.89 56.679L299.961 49.608Z"
        fill="black" />
    <path
        d="M266.059 14.728C264.651 12.296 262.539 10.376 259.723 8.96796L252.651 16.039C255.467 17.447 257.579 19.367 258.987 21.799L266.059 14.728Z"
        fill="black" />
    <path
        d="M306.919 61.32C309.735 61.32 312.253 60.4026 314.471 58.568L307.4 65.639C305.182 67.4737 302.664 68.391 299.848 68.391L306.919 61.32Z"
        fill="black" />
    <path
        d="M283.577 33.544C283.364 32.6053 283.086 31.9653 282.745 31.624L275.674 38.695C276.015 39.0364 276.293 39.6764 276.506 40.615L283.577 33.544Z"
        fill="black" />
    <path
        d="M282.745 31.624C282.446 31.24 281.828 31.048 280.889 31.048L273.818 38.119C274.757 38.119 275.375 38.311 275.674 38.695L282.745 31.624Z"
        fill="black" />
    <path
        d="M288.569 41.928C289.209 38.5573 289.529 36.424 289.529 35.528L282.458 42.599C282.458 43.495 282.138 45.6284 281.498 48.999L288.569 41.928Z"
        fill="black" />
    <path
        d="M298.169 46.728C297.604 46.728 297.089 46.9607 296.624 47.4262L289.554 54.496C290.019 54.0313 290.533 53.799 291.098 53.799L298.169 46.728Z"
        fill="black" />
    <path
        d="M296.624 47.4262C296.562 47.488 296.501 47.5539 296.441 47.624L289.37 54.695C289.43 54.625 289.491 54.5591 289.553 54.4973L296.624 47.4262Z"
        fill="black" />
    <path
        d="M268.234 22.856C268.234 19.8266 267.509 17.1173 266.059 14.728L258.987 21.799C260.438 24.1884 261.163 26.8977 261.163 29.927L268.234 22.856Z"
        fill="black" />
    <path
        d="M298.745 53.576C299.556 52.6373 299.961 51.3146 299.961 49.608L292.89 56.679C292.89 58.3857 292.485 59.7084 291.674 60.647L298.745 53.576Z"
        fill="black" />
    <path
        d="M295.207 42.952C295.207 48.4133 296.146 52.8506 298.023 56.264L290.952 63.335C289.075 59.9217 288.136 55.4844 288.136 50.023L295.207 42.952Z"
        fill="black" />
    <path
        d="M259.723 8.96796C256.949 7.55996 253.557 6.85596 249.547 6.85596L242.475 13.927C246.486 13.927 249.878 14.631 252.651 16.039L259.723 8.96796Z"
        fill="black" />
    <path
        d="M296.441 47.624C295.381 48.891 294.44 49.9715 293.616 50.8654L286.545 57.9365C287.369 57.0426 288.31 55.9621 289.37 54.695L296.441 47.624Z"
        fill="black" />
    <path
        d="M280.889 31.048C277.945 31.048 275.15 31.9866 272.505 33.864L265.434 40.935C268.079 39.0577 270.874 38.119 273.818 38.119L280.889 31.048Z"
        fill="black" />
    <path
        d="M298.023 56.264C299.901 59.6346 302.866 61.32 306.919 61.32L299.848 68.391C295.795 68.391 292.83 66.7057 290.952 63.335L298.023 56.264Z"
        fill="black" />
    <path
        d="M296.351 56.2733C297.17 55.4415 297.968 54.5424 298.745 53.576L291.674 60.647C290.897 61.6135 290.099 62.5126 289.28 63.3444L296.351 56.2733Z"
        fill="black" />
    <path
        d="M293.616 50.8654C293.179 51.3404 292.775 51.7626 292.404 52.1322L285.4 59.1358C285.378 59.1585 285.355 59.181 285.333 59.2033L285.4 59.1358C285.753 58.7825 286.134 58.3827 286.545 57.9365L293.616 50.8654Z"
        fill="black" />
    <path
        d="M276.793 39.048C278.329 37.7253 279.993 37.0426 281.785 37L274.714 44.071C272.922 44.1137 271.258 44.7964 269.722 46.119L276.793 39.048Z"
        fill="black" />
    <path
        d="M287.097 52.168C287.097 50.248 287.588 46.8346 288.569 41.928L281.498 48.999C280.517 53.9057 280.026 57.319 280.026 59.239L287.097 52.168Z"
        fill="black" />
    <path
        d="M292.404 52.1322C292.18 52.3553 291.969 52.5593 291.769 52.744L284.698 59.815C284.897 59.6303 285.109 59.4264 285.333 59.2033L292.404 52.1322Z"
        fill="black" />
    <path
        d="M265.418 32.84C267.296 29.8106 268.234 26.4826 268.234 22.856L261.163 29.927C261.163 33.5537 260.225 36.8817 258.347 39.911L265.418 32.84Z"
        fill="black" />
    <path
        d="M296.351 56.2733C296.233 56.3934 296.114 56.5121 295.995 56.6293L289.28 63.3444C288.503 64.1331 287.708 64.8613 286.893 65.529L293.964 58.4579C294.655 57.8919 295.332 57.2824 295.995 56.6293L296.351 56.2733Z"
        fill="black" />
    <path d="M281.785 37L279.417 48.776L272.346 55.847L274.714 44.071L281.785 37Z" fill="black" />
    <path
        d="M255.883 16.584C257.76 18.3333 258.698 20.616 258.698 23.432L251.627 30.5031C251.627 27.687 250.689 25.4044 248.811 23.6551L255.883 16.584Z"
        fill="black" />
    <path
        d="M276.156 39.6381C276.362 39.4322 276.574 39.2355 276.793 39.048L269.722 46.119C269.503 46.3066 269.291 46.5033 269.085 46.7092L276.156 39.6381Z"
        fill="black" />
    <path
        d="M291.769 52.744C290.617 53.768 289.636 54.28 288.825 54.28L281.754 61.351C282.565 61.351 283.546 60.839 284.698 59.815L291.769 52.744Z"
        fill="black" />
    <path
        d="M272.505 33.864C271.619 34.4884 270.793 35.1846 270.025 35.9524L262.964 43.0133C263.729 42.2495 264.552 41.5568 265.434 40.935L272.505 33.864Z"
        fill="black" />
    <path
        d="M247.306 13.896C251.189 13.896 254.048 14.792 255.883 16.584L248.811 23.6551C246.977 21.863 244.118 20.9671 240.235 20.9671L247.306 13.896Z"
        fill="black" />
    <path
        d="M293.177 59.08C293.441 58.8788 293.704 58.6714 293.964 58.4579L286.893 65.529C286.633 65.7425 286.37 65.9499 286.106 66.151L293.177 59.08Z"
        fill="black" />
    <path
        d="M287.545 53.704C287.246 53.32 287.097 52.808 287.097 52.168L280.026 59.239C280.026 59.879 280.175 60.391 280.474 60.775L287.545 53.704Z"
        fill="black" />
    <path
        d="M288.825 54.28C288.313 54.28 287.886 54.088 287.545 53.704L280.474 60.775C280.815 61.159 281.242 61.351 281.754 61.351L288.825 54.28Z"
        fill="black" />
    <path
        d="M273.209 44.168C273.973 42.3495 274.954 40.841 276.151 39.6426L269.085 46.7092C267.885 47.9083 266.903 49.4183 266.138 51.239L273.209 44.168Z"
        fill="black" />
    <path
        d="M249.547 6.85596C243.872 6.85596 238.666 8.37062 233.93 11.4L226.859 18.471C231.595 15.4417 236.801 13.927 242.475 13.927L249.547 6.85596Z"
        fill="black" />
    <path
        d="M287.481 61.32C289.316 61.32 291.214 60.5733 293.177 59.08L286.106 66.151C284.143 67.6444 282.245 68.391 280.41 68.391L287.481 61.32Z"
        fill="black" />
    <path
        d="M270.025 35.9524C268.538 37.4404 267.274 39.1976 266.233 41.224L259.162 48.295C260.203 46.2687 261.467 44.5115 262.954 43.0235L270.025 35.9524Z"
        fill="black" />
    <path
        d="M262.69 36.2756C263.742 35.223 264.651 34.0778 265.418 32.84L258.347 39.911C257.58 41.1489 256.671 42.2941 255.619 43.3467L262.69 36.2756Z"
        fill="black" />
    <path
        d="M258.698 23.432C258.698 27.5095 257.556 30.6899 255.272 32.9734L248.204 40.0412C250.486 37.758 251.627 34.5786 251.627 30.5031L258.698 23.432Z"
        fill="black" />
    <path
        d="M279.417 48.776C279.033 50.6106 278.414 52.0826 277.561 53.192L270.49 60.263C271.343 59.1537 271.962 57.6817 272.346 55.847L279.417 48.776Z"
        fill="black" />
    <path
        d="M247.818 22.984C247.818 21.832 247.498 21 246.858 20.488L239.787 27.559C240.427 28.071 240.747 28.903 240.747 30.055L247.818 22.984Z"
        fill="black" />
    <path
        d="M235.786 18.056C239.072 15.2827 242.912 13.896 247.306 13.896L240.235 20.9671C235.841 20.9671 232.001 22.3537 228.715 25.1271L235.786 18.056Z"
        fill="black" />
    <path
        d="M246.858 20.488C246.261 19.9333 245.258 19.6559 243.85 19.6559L236.779 26.727C238.187 26.727 239.19 27.0044 239.787 27.559L246.858 20.488Z"
        fill="black" />
    <path
        d="M271.865 50.952C271.865 48.5626 272.313 46.3013 273.209 44.168L266.138 51.239C265.242 53.3724 264.794 55.6337 264.794 58.023L271.865 50.952Z"
        fill="black" />
    <path
        d="M283.577 59.912C284.772 60.8506 286.073 61.32 287.481 61.32L280.41 68.391C279.002 68.391 277.701 67.9217 276.506 66.983L283.577 59.912Z"
        fill="black" />
    <path
        d="M280.953 55.944C281.55 57.608 282.425 58.9306 283.577 59.912L276.506 66.983C275.354 66.0017 274.479 64.679 273.882 63.015L280.953 55.944Z"
        fill="black" />
    <path
        d="M247.69 24.648C247.776 24.2213 247.818 23.6666 247.818 22.984L240.747 30.055C240.747 30.7377 240.705 31.2924 240.619 31.719L247.69 24.648Z"
        fill="black" />
    <path
        d="M277.561 53.192C277.378 53.4301 277.193 53.6427 277.005 53.8298L269.937 60.8987C270.123 60.7122 270.307 60.5003 270.49 60.263L277.561 53.192Z"
        fill="black" />
    <path
        d="M278.893 58.5948C279.627 57.8598 280.314 56.9762 280.953 55.944L273.882 63.015C273.243 64.0473 272.556 64.9309 271.822 65.6658L278.893 58.5948Z"
        fill="black" />
    <path
        d="M243.85 19.6559C242.613 19.6559 241.525 19.9759 240.586 20.6159L233.515 27.687C234.454 27.047 235.542 26.727 236.779 26.727L243.85 19.6559Z"
        fill="black" />
    <path
        d="M257.227 40.264C259.343 39.1304 261.161 37.8034 262.682 36.283L255.619 43.3467C254.096 44.8701 252.275 46.1996 250.155 47.335L257.227 40.264Z"
        fill="black" />
    <path
        d="M277.005 53.8298C276.321 54.5139 275.61 54.856 274.873 54.856L267.802 61.927C268.539 61.927 269.25 61.585 269.934 60.9008L277.005 53.8298Z"
        fill="black" />
    <path
        d="M272.633 53.896C272.121 53.256 271.865 52.2746 271.865 50.952L264.794 58.023C264.794 59.3457 265.05 60.327 265.562 60.967L272.633 53.896Z"
        fill="black" />
    <path
        d="M240.586 20.6159C240.407 20.7356 240.24 20.8723 240.087 21.0261L233.017 28.0961C233.17 27.9427 233.336 27.8063 233.515 27.687L240.586 20.6159Z"
        fill="black" />
    <path
        d="M274.873 54.856C273.934 54.856 273.188 54.536 272.633 53.896L265.562 60.967C266.117 61.607 266.863 61.927 267.802 61.927L274.873 54.856Z"
        fill="black" />
    <path
        d="M266.233 41.224C264.654 44.2533 263.865 47.4746 263.865 50.888L256.794 57.959C256.794 54.5457 257.583 51.3244 259.162 48.295L266.233 41.224Z"
        fill="black" />
    <path
        d="M233.93 11.4C232.31 12.4312 230.801 13.6456 229.405 15.0432L222.345 22.103C223.738 20.7102 225.243 19.4995 226.859 18.471L233.93 11.4Z"
        fill="black" />
    <path
        d="M240.087 21.0261C239.473 21.6405 239.063 22.5278 238.858 23.688L231.787 30.759C231.992 29.5989 232.402 28.7116 233.016 28.0972L240.087 21.0261Z"
        fill="black" />
    <path
        d="M234.568 19.183C234.962 18.7892 235.368 18.4136 235.786 18.056L228.715 25.1271C228.297 25.4847 227.891 25.8603 227.497 26.2541L234.568 19.183Z"
        fill="black" />
    <path d="M245.578 37.064L247.69 24.648L240.619 31.719L238.507 44.135L245.578 37.064Z" fill="black" />
    <path
        d="M272.569 61.32C274.967 61.32 277.074 60.413 278.888 58.5989L271.822 65.6658C270.006 67.4826 267.898 68.3911 265.498 68.3911L272.569 61.32Z"
        fill="black" />
    <path
        d="M255.272 32.9734C253.086 35.158 249.855 36.5216 245.578 37.064L238.507 44.135C242.784 43.5926 246.015 42.2291 248.201 40.0444L255.272 32.9734Z"
        fill="black" />
    <path
        d="M263.865 50.888C263.865 54.0026 264.654 56.52 266.233 58.44L259.162 65.511C257.583 63.591 256.794 61.0737 256.794 57.959L263.865 50.888Z"
        fill="black" />
    <path
        d="M266.233 58.44C267.812 60.36 269.924 61.32 272.569 61.32L265.498 68.3911C262.853 68.3911 260.741 67.431 259.162 65.511L266.233 58.44Z"
        fill="black" />
    <path
        d="M244.426 43.656C249.376 43.3146 253.643 42.184 257.227 40.264L250.155 47.335C246.571 49.255 242.305 50.3857 237.355 50.727L244.426 43.656Z"
        fill="black" />
    <path
        d="M238.858 23.688C237.834 29.2773 237.045 33.736 236.491 37.064L229.419 44.135C229.974 40.807 230.763 36.3484 231.787 30.759L238.858 23.688Z"
        fill="black" />
    <path
        d="M228.234 29.6399C229.794 25.3335 231.902 21.8507 234.56 19.1917L227.497 26.2541C224.836 28.9142 222.724 32.3998 221.163 36.711L228.234 29.6399Z"
        fill="black" />
    <path
        d="M229.405 15.0432C226.756 17.693 224.51 21.0013 222.667 24.968L215.595 32.039C217.439 28.0724 219.685 24.7641 222.333 22.1142L229.405 15.0432Z"
        fill="black" />
    <path
        d="M236.491 37.064C235.936 37.0213 235.146 36.9146 234.122 36.744L227.051 43.815C228.075 43.9857 228.865 44.0924 229.419 44.135L236.491 37.064Z"
        fill="black" />
    <path
        d="M234.122 36.744C233.909 36.7013 233.589 36.68 233.163 36.68L226.091 43.751C226.518 43.751 226.838 43.7724 227.051 43.815L234.122 36.744Z"
        fill="black" />
    <path
        d="M233.163 36.68C232.224 36.68 231.477 36.9573 230.922 37.512L223.851 44.583C224.406 44.0284 225.153 43.751 226.091 43.751L233.163 36.68Z"
        fill="black" />
    <path
        d="M230.922 37.512C230.41 38.0666 230.154 38.8133 230.154 39.752L223.083 46.823C223.083 45.8844 223.339 45.1377 223.851 44.583L230.922 37.512Z"
        fill="black" />
    <path d="M241.674 59.08L244.426 43.656L237.355 50.727L234.603 66.151L241.674 59.08Z" fill="black" />
    <path
        d="M233.227 43.144C233.013 43.1013 233.738 43.208 235.402 43.464L228.331 50.535C227.059 50.3393 226.335 50.2308 226.161 50.2097L226.155 50.215C226.105 50.205 226.107 50.2032 226.161 50.2097L233.227 43.144Z"
        fill="black" />
    <path
        d="M230.154 39.752C230.154 40.648 230.346 41.3946 230.73 41.992L223.659 49.063C223.275 48.4657 223.083 47.719 223.083 46.823L230.154 39.752Z"
        fill="black" />
    <path
        d="M230.73 41.992C231.114 42.5466 231.947 42.9306 233.227 43.144L226.155 50.215C224.875 50.0017 224.043 49.6177 223.659 49.063L230.73 41.992Z"
        fill="black" />
    <path
        d="M225.611 46.472C225.611 40.1573 226.485 34.5466 228.234 29.6399L221.163 36.711C219.414 41.6177 218.539 47.2284 218.539 53.543L225.611 46.472Z"
        fill="black" />
    <path d="M235.402 43.464L233.29 55.56L226.219 62.631L228.331 50.535L235.402 43.464Z" fill="black" />
    <path
        d="M222.667 24.968C219.893 30.984 218.507 38.3226 218.507 46.984L211.435 54.055C211.435 45.3937 212.822 38.055 215.595 32.039L222.667 24.968Z"
        fill="black" />
    <path
        d="M238.641 65.8096C240.123 64.3272 241.134 62.084 241.674 59.08L234.603 66.151C234.063 69.1551 233.052 71.3983 231.57 72.8807L238.641 65.8096Z"
        fill="black" />
    <path
        d="M226.378 53.512C225.866 51.464 225.611 49.1173 225.611 46.472L218.539 53.543C218.539 56.1884 218.795 58.5351 219.307 60.5831L226.378 53.512Z"
        fill="black" />
    <path
        d="M233.29 55.56C232.907 57.5956 232.401 58.9275 231.773 59.5556L224.702 66.6261C225.33 65.9978 225.836 64.6661 226.219 62.631L233.29 55.56Z"
        fill="black" />
    <path
        d="M231.773 59.5556C231.492 59.8358 231.188 59.976 230.858 59.976L223.787 67.047C224.117 67.047 224.422 66.9064 224.702 66.6261L231.773 59.5556Z"
        fill="black" />
    <path
        d="M228.426 58.312C227.616 57.16 226.933 55.56 226.378 53.512L219.307 60.5831C219.862 62.6311 220.545 64.231 221.355 65.383L228.426 58.312Z"
        fill="black" />
    <path
        d="M230.858 59.976C230.09 59.976 229.28 59.4213 228.426 58.312L221.355 65.383C222.209 66.4924 223.019 67.047 223.787 67.047L230.858 59.976Z"
        fill="black" />
    <path
        d="M232.97 67.976C235.306 67.976 237.196 67.2547 238.639 65.8121L231.57 72.8807C230.127 74.3249 228.237 75.047 225.899 75.047L232.97 67.976Z"
        fill="black" />
    <path
        d="M218.507 46.984C218.507 51.592 219.168 55.4746 220.49 58.632L213.419 65.703C212.097 62.5457 211.435 58.663 211.435 54.055L218.507 46.984Z"
        fill="black" />
    <path
        d="M173.525 7.49599C172.501 5.91732 171.093 5.12799 169.301 5.12799L162.23 12.1991C164.022 12.1991 165.43 12.9884 166.454 14.5671L173.525 7.49599Z"
        fill="black" />
    <path
        d="M175.061 13.448C175.061 11.0586 174.549 9.07466 173.525 7.49599L166.454 14.5671C167.478 16.1457 167.99 18.1297 167.99 20.519L175.061 13.448Z"
        fill="black" />
    <path
        d="M225.738 65.672C227.957 67.208 230.368 67.976 232.97 67.976L225.899 75.047C223.297 75.047 220.886 74.279 218.667 72.743L225.738 65.672Z"
        fill="black" />
    <path
        d="M220.49 58.632C221.813 61.7893 223.562 64.136 225.738 65.672L218.667 72.743C216.491 71.207 214.742 68.8604 213.419 65.703L220.49 58.632Z"
        fill="black" />
    <path
        d="M197.081 39.368C197.081 36.8506 196.334 34.8666 194.84 33.416L187.769 40.487C189.263 41.9377 190.009 43.9217 190.009 46.439L197.081 39.368Z"
        fill="black" />
    <path
        d="M194.84 33.416C193.347 31.9226 191.363 31.176 188.888 31.176L181.817 38.247C184.292 38.247 186.276 38.9937 187.769 40.487L194.84 33.416Z"
        fill="black" />
    <path
        d="M162.645 8.39199C164.693 6.21599 166.912 5.12799 169.301 5.12799L162.23 12.1991C160.084 12.1991 158.075 13.077 156.204 14.833L155.574 15.4631C155.782 15.2418 155.992 15.0317 156.204 14.833L162.645 8.39199Z"
        fill="black" />
    <path
        d="M166.677 11.7448C166.992 11.4296 167.291 11.272 167.573 11.272L160.502 18.343C160.22 18.343 159.921 18.5007 159.606 18.8159L166.677 11.7448Z"
        fill="black" />
    <path
        d="M167.573 11.272C168.512 11.272 168.981 12.5306 168.981 15.048L161.91 22.119C161.91 19.6017 161.441 18.343 160.502 18.343L167.573 11.272Z"
        fill="black" />
    <path
        d="M165.397 13.704C165.85 12.7983 166.276 12.1456 166.676 11.7458L159.606 18.8159C159.206 19.2156 158.779 19.8686 158.326 20.775L165.397 13.704Z"
        fill="black" />
    <path
        d="M188.888 31.176C186.115 31.176 183.619 31.9226 181.4 33.416L174.329 40.487C176.548 38.9937 179.044 38.247 181.817 38.247L188.888 31.176Z"
        fill="black" />
    <path
        d="M193.88 46.984C196.014 44.8507 197.081 42.312 197.081 39.368L190.009 46.439C190.009 49.383 188.943 51.9217 186.809 54.0551L193.88 46.984Z"
        fill="black" />
    <path
        d="M187.801 37.448C188.569 37.448 189.166 37.704 189.592 38.216L182.521 45.287C182.095 44.775 181.497 44.519 180.729 44.519L187.801 37.448Z"
        fill="black" />
    <path
        d="M189.592 38.216C190.062 38.6853 190.297 39.3253 190.297 40.136L183.225 47.207C183.225 46.3964 182.991 45.7564 182.521 45.287L189.592 38.216Z"
        fill="black" />
    <path
        d="M168.085 29.448C172.736 24.7973 175.061 19.464 175.061 13.448L167.99 20.519C167.99 26.535 165.665 31.8684 161.014 36.5191L168.085 29.448Z"
        fill="black" />
    <path
        d="M199.577 49.416C199.278 48.904 198.851 48.648 198.297 48.648L191.225 55.719C191.78 55.719 192.207 55.975 192.505 56.487L199.577 49.416Z"
        fill="black" />
    <path
        d="M200.089 51.528C200.089 50.632 199.918 49.928 199.577 49.416L192.505 56.487C192.847 56.999 193.017 57.703 193.017 58.599L200.089 51.528Z"
        fill="black" />
    <path
        d="M168.981 15.048C168.981 17.2666 168.341 19.7413 167.061 22.472L159.99 29.543C161.27 26.8124 161.91 24.3377 161.91 22.119L168.981 15.048Z"
        fill="black" />
    <path
        d="M198.297 48.648C197.763 48.648 197.274 48.8704 196.829 49.3153L189.759 56.3851C190.204 55.9411 190.692 55.719 191.225 55.719L198.297 48.648Z"
        fill="black" />
    <path
        d="M184.887 38.7389C185.748 37.8783 186.719 37.448 187.801 37.448L180.729 44.519C179.648 44.519 178.677 44.9493 177.816 45.81L184.887 38.7389Z"
        fill="black" />
    <path
        d="M190.297 40.136C190.297 41.4949 189.759 42.7116 188.684 43.786L181.616 50.8545C182.689 49.7807 183.225 48.5649 183.225 47.207L190.297 40.136Z"
        fill="black" />
    <path
        d="M162.645 8.39199C160.597 10.568 158.848 13.4906 157.397 17.16L150.326 24.231C151.777 20.5617 153.526 17.6391 155.574 15.4631L162.645 8.39199Z"
        fill="black" />
    <path
        d="M163.157 20.36C163.882 17.5013 164.629 15.2826 165.397 13.704L158.326 20.775C157.558 22.3537 156.811 24.5724 156.086 27.431L163.157 20.36Z"
        fill="black" />
    <path
        d="M196.829 49.3153C196.741 49.404 196.654 49.5015 196.568 49.608L189.497 56.679C189.583 56.5726 189.669 56.4751 189.758 56.3863L196.829 49.3153Z"
        fill="black" />
    <path
        d="M181.4 33.416C180.659 33.9251 179.971 34.4961 179.339 35.1292L172.273 42.1948C172.904 41.5639 173.59 40.9947 174.329 40.487L181.4 33.416Z"
        fill="black" />
    <path
        d="M199 55.496C199.726 54.3866 200.089 53.064 200.089 51.528L193.017 58.599C193.017 60.135 192.655 61.4577 191.929 62.567L199 55.496Z"
        fill="black" />
    <path
        d="M153.621 7.49599C152.597 5.91732 151.189 5.12799 149.397 5.12799L142.326 12.1991C144.118 12.1991 145.526 12.9884 146.55 14.5671L153.621 7.49599Z"
        fill="black" />
    <path
        d="M175.381 29.896C175.082 29.5973 174.592 29.448 173.909 29.448L166.838 36.519C167.521 36.519 168.011 36.6684 168.31 36.967L175.381 29.896Z"
        fill="black" />
    <path
        d="M175.829 31.56C175.829 30.7493 175.68 30.1946 175.381 29.896L168.31 36.967C168.609 37.2657 168.758 37.8204 168.758 38.631L175.829 31.56Z"
        fill="black" />
    <path
        d="M183.768 40.2C184.117 39.6229 184.49 39.1366 184.885 38.7411L177.816 45.81C177.42 46.2059 177.047 46.6929 176.697 47.271L183.768 40.2Z"
        fill="black" />
    <path
        d="M196.568 49.608C195.727 50.6902 194.939 51.5962 194.206 52.3259L187.198 59.3337C187.177 59.3549 187.156 59.376 187.135 59.397L187.198 59.3337C187.913 58.615 188.68 57.7302 189.497 56.679L196.568 49.608Z"
        fill="black" />
    <path
        d="M188.684 43.786C188.51 43.9597 188.322 44.1297 188.12 44.296L181.049 51.367C181.251 51.2008 181.439 51.0308 181.613 50.857L188.684 43.786Z"
        fill="black" />
    <path
        d="M155.157 13.448C155.157 11.0586 154.645 9.07466 153.621 7.49599L146.55 14.5671C147.574 16.1457 148.086 18.1297 148.086 20.519L155.157 13.448Z"
        fill="black" />
    <path
        d="M174.79 34.2731C175.483 33.5802 175.829 32.6758 175.829 31.56L168.758 38.631C168.758 39.7469 168.412 40.6513 167.719 41.3442L174.79 34.2731Z"
        fill="black" />
    <path
        d="M197.361 57.525C197.97 56.9151 198.517 56.2387 199 55.496L191.929 62.567C191.446 63.3098 190.899 63.9862 190.29 64.5961L197.361 57.525Z"
        fill="black" />
    <path d="M173.909 29.448L168.085 29.448L161.014 36.5191L166.838 36.519L173.909 29.448Z" fill="black" />
    <path
        d="M179.339 35.1292C178.115 36.3531 177.096 37.8087 176.28 39.496L169.209 46.567C170.025 44.8798 171.044 43.4242 172.268 42.2003L179.339 35.1292Z"
        fill="black" />
    <path
        d="M194.206 52.3259C193.638 52.8909 193.103 53.3502 192.6 53.704L185.529 60.775C186.032 60.4213 186.567 59.962 187.135 59.397L194.206 52.3259Z"
        fill="black" />
    <path
        d="M188.12 44.296C186.67 45.4906 184.686 46.3866 182.168 46.984L175.097 54.055C177.615 53.4577 179.599 52.5617 181.049 51.367L188.12 44.296Z"
        fill="black" />
    <path
        d="M182.168 46.856C182.168 44.2533 182.702 42.0346 183.768 40.2L176.697 47.271C175.631 49.1057 175.097 51.3244 175.097 53.927L182.168 46.856Z"
        fill="black" />
    <path
        d="M167.061 22.472C166.058 24.6499 164.636 26.6597 162.793 28.5015L155.732 35.5629C157.57 33.7237 158.989 31.7171 159.99 29.543L167.061 22.472Z"
        fill="black" />
    <path
        d="M142.741 8.39199C144.789 6.21599 147.008 5.12799 149.397 5.12799L142.326 12.1991C140.18 12.1991 138.171 13.077 136.3 14.833L135.67 15.4631C135.878 15.2418 136.088 15.0317 136.3 14.833L142.741 8.39199Z"
        fill="black" />
    <path
        d="M183.128 51.976C188.206 50.7386 191.79 49.0747 193.88 46.984L186.809 54.0551C184.719 56.1457 181.135 57.8097 176.057 59.047L183.128 51.976Z"
        fill="black" />
    <path
        d="M161.429 29.768C161.898 26.312 162.474 23.176 163.157 20.36L156.086 27.431C155.403 30.247 154.827 33.3831 154.358 36.8391L161.429 29.768Z"
        fill="black" />
    <path
        d="M194.264 59.784C195.43 59.1757 196.461 58.4243 197.356 57.5299L190.29 64.5961C189.394 65.4926 188.361 66.2456 187.193 66.855L194.264 59.784Z"
        fill="black" />
    <path
        d="M168.597 35.976C171.59 35.976 173.654 35.4087 174.789 34.2741L167.719 41.3442C166.584 42.4794 164.52 43.047 161.526 43.047L168.597 35.976Z"
        fill="black" />
    <path
        d="M192.6 53.704C191.491 54.5146 190.062 54.92 188.312 54.92L181.241 61.991C182.991 61.991 184.42 61.5857 185.529 60.775L192.6 53.704Z"
        fill="black" />
    <path
        d="M146.773 11.7448C147.088 11.4296 147.387 11.272 147.669 11.272L140.598 18.343C140.316 18.343 140.017 18.5007 139.702 18.8159L146.773 11.7448Z"
        fill="black" />
    <path d="M182.168 46.984V46.856L175.097 53.927V54.055L182.168 46.984Z" fill="black" />
    <path
        d="M147.669 11.272C148.608 11.272 149.077 12.5306 149.077 15.048L142.006 22.119C142.006 19.6017 141.537 18.343 140.598 18.343L147.669 11.272Z"
        fill="black" />
    <path
        d="M145.493 13.704C145.946 12.7983 146.372 12.1456 146.772 11.7458L139.702 18.8159C139.302 19.2156 138.875 19.8686 138.422 20.775L145.493 13.704Z"
        fill="black" />
    <path
        d="M162.793 28.5015C162.361 28.9329 161.907 29.3551 161.429 29.768L154.358 36.8391C154.836 36.4261 155.29 36.0039 155.722 35.5726L162.793 28.5015Z"
        fill="black" />
    <path
        d="M157.397 17.16C155.946 20.8293 154.816 24.9253 154.005 29.448L146.934 36.519C147.745 31.9964 148.875 27.9004 150.326 24.231L157.397 17.16Z"
        fill="black" />
    <path
        d="M180.053 47.496C179.754 46.984 179.328 46.728 178.773 46.728L171.702 53.799C172.257 53.799 172.683 54.055 172.982 54.567L180.053 47.496Z"
        fill="black" />
    <path
        d="M188.312 54.92C185.88 54.92 184.152 53.9386 183.128 51.976L176.057 59.047C177.081 61.0097 178.809 61.991 181.241 61.991L188.312 54.92Z"
        fill="black" />
    <path
        d="M176.28 39.496C175.043 42.0133 174.424 44.744 174.424 47.688L167.353 54.759C167.353 51.815 167.972 49.0844 169.209 46.567L176.28 39.496Z"
        fill="black" />
    <path
        d="M180.565 49.608C180.565 48.712 180.394 48.008 180.053 47.496L172.982 54.567C173.323 55.079 173.494 55.783 173.494 56.679L180.565 49.608Z"
        fill="black" />
    <path
        d="M178.773 46.728C178.208 46.728 177.693 46.9607 177.228 47.4262L170.158 54.496C170.623 54.0313 171.137 53.799 171.702 53.799L178.773 46.728Z"
        fill="black" />
    <path
        d="M187.353 61.32C190.041 61.32 192.344 60.808 194.264 59.784L187.193 66.855C185.273 67.879 182.969 68.391 180.281 68.391L187.353 61.32Z"
        fill="black" />
    <path
        d="M148.181 29.448C152.832 24.7973 155.157 19.464 155.157 13.448L148.086 20.519C148.086 26.535 145.761 31.8684 141.11 36.5191L148.181 29.448Z"
        fill="black" />
    <path
        d="M177.228 47.4262C177.166 47.488 177.105 47.554 177.045 47.624L169.974 54.695C170.034 54.625 170.095 54.5591 170.157 54.4973L177.228 47.4262Z"
        fill="black" />
    <path
        d="M149.077 15.048C149.077 17.2666 148.437 19.7413 147.157 22.472L140.086 29.543C141.366 26.8124 142.006 24.3377 142.006 22.119L149.077 15.048Z"
        fill="black" />
    <path d="M160.853 35.976L168.597 35.976L161.526 43.047L153.782 43.047L160.853 35.976Z" fill="black" />
    <path
        d="M179.349 53.576C180.16 52.6373 180.565 51.3146 180.565 49.608L173.494 56.679C173.494 58.3857 173.089 59.7084 172.278 60.647L179.349 53.576Z"
        fill="black" />
    <path
        d="M143.253 20.36C143.978 17.5013 144.725 15.2826 145.493 13.704L138.422 20.775C137.654 22.3537 136.907 24.5724 136.182 27.431L143.253 20.36Z"
        fill="black" />
    <path
        d="M142.741 8.39199C140.693 10.568 138.944 13.4906 137.493 17.16L130.422 24.231C131.873 20.5617 133.622 17.6391 135.67 15.4631L142.741 8.39199Z"
        fill="black" />
    <path
        d="M177.045 47.624C176.26 48.531 175.518 49.3454 174.818 50.067L167.747 57.1381C168.447 56.4164 169.189 55.6021 169.974 54.695L177.045 47.624Z"
        fill="black" />
    <path
        d="M174.818 50.067C174.576 50.3175 174.338 50.5567 174.106 50.7848L167.541 57.3492C167.37 57.5238 167.201 57.6927 167.035 57.8559L167.541 57.3492C167.61 57.2797 167.678 57.2094 167.747 57.1381L174.818 50.067Z"
        fill="black" />
    <path
        d="M177.295 55.8664C178.002 55.1558 178.687 54.3923 179.349 53.576L172.278 60.647C171.616 61.4633 170.931 62.2268 170.224 62.9375L177.295 55.8664Z"
        fill="black" />
    <path
        d="M174.424 47.688C174.424 51.8693 175.555 55.1973 177.816 57.672L170.745 64.743C168.484 62.2684 167.353 58.9404 167.353 54.759L174.424 47.688Z"
        fill="black" />
    <path
        d="M177.816 57.672C180.078 60.104 183.257 61.32 187.353 61.32L180.281 68.391C176.185 68.391 173.007 67.175 170.745 64.743L177.816 57.672Z"
        fill="black" />
    <path d="M154.005 29.448L148.181 29.448L141.11 36.5191L146.934 36.519L154.005 29.448Z" fill="black" />
    <path
        d="M160.661 42.248C160.661 40.1146 160.725 38.024 160.853 35.976L153.782 43.047C153.654 45.095 153.59 47.1857 153.59 49.319L160.661 42.248Z"
        fill="black" />
    <path
        d="M174.106 50.7848C173.37 51.5072 172.686 52.1175 172.053 52.616L164.982 59.687C165.615 59.1886 166.299 58.5782 167.035 57.8559L174.106 50.7848Z"
        fill="black" />
    <path
        d="M147.157 22.472C146.154 24.6499 144.732 26.6597 142.889 28.5015L135.828 35.5629C137.666 33.7237 139.085 31.7171 140.086 29.543L147.157 22.472Z"
        fill="black" />
    <path
        d="M177.295 55.8664C177.259 55.9034 177.222 55.9402 177.185 55.9769L170.224 62.9375C168.973 64.1955 167.652 65.2881 166.262 66.215L173.333 59.144C174.683 58.2442 175.967 57.1885 177.185 55.9769L177.295 55.8664Z"
        fill="black" />
    <path
        d="M141.525 29.768C141.994 26.312 142.57 23.176 143.253 20.36L136.182 27.431C135.499 30.247 134.923 33.3831 134.454 36.8391L141.525 29.768Z"
        fill="black" />
    <path
        d="M172.053 52.616C170.645 53.7253 169.024 54.28 167.189 54.28L160.118 61.351C161.953 61.351 163.574 60.7964 164.982 59.687L172.053 52.616Z"
        fill="black" />
    <path
        d="M162.197 51.592C161.173 49.8 160.661 46.6853 160.661 42.248L153.59 49.319C153.59 53.7564 154.102 56.8711 155.126 58.6631L162.197 51.592Z"
        fill="black" />
    <path
        d="M153.109 35.976C152.896 38.536 152.789 40.8613 152.789 42.952L145.718 50.023C145.718 47.9324 145.825 45.607 146.038 43.047L153.109 35.976Z"
        fill="black" />
    <path
        d="M142.889 28.5015C142.457 28.9329 142.003 29.3551 141.525 29.768L134.454 36.8391C134.932 36.4261 135.386 36.0039 135.818 35.5726L142.889 28.5015Z"
        fill="black" />
    <path
        d="M137.493 17.16C136.042 20.8293 134.912 24.9253 134.101 29.448L127.03 36.519C127.841 31.9964 128.971 27.9004 130.422 24.231L137.493 17.16Z"
        fill="black" />
    <path
        d="M167.189 54.28C164.928 54.28 163.264 53.384 162.197 51.592L155.126 58.6631C156.193 60.4551 157.857 61.351 160.118 61.351L167.189 54.28Z"
        fill="black" />
    <path d="M140.949 35.976H153.109L146.038 43.047H133.878L140.949 35.976Z" fill="black" />
    <path
        d="M165.845 61.32C168.661 61.32 171.157 60.5946 173.333 59.144L166.262 66.215C164.086 67.6657 161.59 68.3911 158.774 68.3911L165.845 61.32Z"
        fill="black" />
    <path
        d="M152.789 42.952C152.789 45.0426 152.896 46.7493 153.109 48.072L146.038 55.143C145.825 53.8204 145.718 52.1137 145.718 50.023L152.789 42.952Z"
        fill="black" />
    <path d="M134.101 29.448L130.197 29.448L123.126 36.519L127.03 36.519L134.101 29.448Z" fill="black" />
    <path
        d="M154.965 54.792C157.013 59.144 160.64 61.32 165.845 61.32L158.774 68.3911C153.569 68.3911 149.942 66.215 147.894 61.863L154.965 54.792Z"
        fill="black" />
    <path
        d="M106.789 3.71997C105.637 1.79997 104.037 0.839966 101.989 0.839966L94.9179 7.91103C96.9659 7.91103 98.5659 8.87103 99.7179 10.791L106.789 3.71997Z"
        fill="black" />
    <path
        d="M140.757 42.248C140.757 40.1146 140.821 38.024 140.949 35.976L133.878 43.047C133.75 45.095 133.686 47.1857 133.686 49.319L140.757 42.248Z"
        fill="black" />
    <path
        d="M153.109 48.072C152.213 49.8213 151.125 51.2933 149.845 52.488L143.453 58.8799C143.233 59.1154 143.007 59.3418 142.774 59.559L143.453 58.8799C144.443 57.8199 145.305 56.5743 146.038 55.143L153.109 48.072Z"
        fill="black" />
    <path
        d="M108.581 11.848C108.581 8.30664 107.984 5.5973 106.789 3.71997L99.7179 10.791C100.913 12.6684 101.51 15.3777 101.51 18.919L108.581 11.848Z"
        fill="black" />
    <path
        d="M130.197 29.448C129.341 29.448 128.676 29.6852 128.202 30.1597L121.132 37.2302C121.606 36.7561 122.271 36.519 123.126 36.519L130.197 29.448Z"
        fill="black" />
    <path
        d="M152.809 57.5134C153.637 56.6835 154.356 55.7764 154.965 54.792L147.894 61.863C147.285 62.8474 146.566 63.7546 145.737 64.5845L152.809 57.5134Z"
        fill="black" />
    <path
        d="M101.989 0.839966C99.7047 0.839966 97.615 1.7879 95.72 3.68377L88.6533 10.7505C90.5471 8.85752 92.6353 7.91103 94.9179 7.91103L101.989 0.839966Z"
        fill="black" />
    <path
        d="M128.202 30.1597C127.612 30.75 127.317 31.7074 127.317 33.032L120.246 40.103C120.246 38.7785 120.542 37.8205 121.132 37.2302L128.202 30.1597Z"
        fill="black" />
    <path d="M130.581 35.976H133.205L126.134 43.047H123.51L130.581 35.976Z" fill="black" />
    <path
        d="M149.845 52.488C148.565 53.6826 147.285 54.28 146.005 54.28L138.934 61.351C140.214 61.351 141.494 60.7537 142.774 59.559L149.845 52.488Z"
        fill="black" />
    <path
        d="M142.101 51.528C141.205 49.6507 140.757 46.5573 140.757 42.248L133.686 49.319C133.686 53.6284 134.134 56.7217 135.03 58.5991L142.101 51.528Z"
        fill="black" />
    <path
        d="M127.957 35.272C128.426 35.7413 129.301 35.976 130.581 35.976L123.51 43.047C122.23 43.047 121.355 42.8124 120.886 42.343L127.957 35.272Z"
        fill="black" />
    <path
        d="M133.205 35.976C132.992 38.536 132.885 40.8613 132.885 42.952L125.814 50.023C125.814 47.9324 125.921 45.607 126.134 43.047L133.205 35.976Z"
        fill="black" />
    <path
        d="M127.317 33.032C127.317 34.056 127.53 34.8026 127.957 35.272L120.886 42.343C120.459 41.8737 120.246 41.127 120.246 40.103L127.317 33.032Z"
        fill="black" />
    <path
        d="M150.549 59.4C151.367 58.8293 152.113 58.2076 152.787 57.5351L145.737 64.5845C145.058 65.2653 144.305 65.8942 143.478 66.4711L150.549 59.4Z"
        fill="black" />
    <path
        d="M99.6678 7.64944C99.9836 7.33379 100.288 7.17596 100.581 7.17596L93.5099 14.247C93.217 14.247 92.9126 14.4049 92.5968 14.7205L99.6678 7.64944Z"
        fill="black" />
    <path
        d="M100.581 7.17596C101.776 7.17596 102.373 8.7973 102.373 12.04L95.3019 19.111C95.3019 15.8684 94.7046 14.247 93.5099 14.247L100.581 7.17596Z"
        fill="black" />
    <path
        d="M146.005 54.28C144.341 54.28 143.04 53.3627 142.101 51.528L135.03 58.5991C135.969 60.4337 137.27 61.351 138.934 61.351L146.005 54.28Z"
        fill="black" />
    <path
        d="M126.768 39.368C126.768 36.8506 126.021 34.8666 124.528 33.416L117.457 40.487C118.95 41.9377 119.697 43.9217 119.697 46.439L126.768 39.368Z"
        fill="black" />
    <path
        d="M124.528 33.416C123.035 31.9226 121.051 31.176 118.576 31.176L111.505 38.247C113.98 38.247 115.964 38.9937 117.457 40.487L124.528 33.416Z"
        fill="black" />
    <path
        d="M97.253 12.488C98.1206 10.005 98.9252 8.39246 99.6669 7.65042L92.5968 14.7205C91.8548 15.4621 91.0499 17.075 90.1819 19.5591L97.253 12.488Z"
        fill="black" />
    <path
        d="M95.72 3.68377C94.6065 4.79784 93.5601 6.23924 92.581 8.00797L85.5099 15.079C86.4891 13.3103 87.5354 11.8689 88.6489 10.7548L95.72 3.68377Z"
        fill="black" />
    <path
        d="M144.661 61.32C146.752 61.32 148.714 60.68 150.549 59.4L143.478 66.4711C141.643 67.7511 139.681 68.391 137.59 68.391L144.661 61.32Z"
        fill="black" />
    <path
        d="M134.896 47.496C134.597 46.984 134.171 46.728 133.616 46.728L126.545 53.799C127.1 53.799 127.526 54.055 127.825 54.567L134.896 47.496Z"
        fill="black" />
    <path
        d="M135.408 49.608C135.408 48.712 135.237 48.008 134.896 47.496L127.825 54.567C128.166 55.079 128.337 55.783 128.337 56.679L135.408 49.608Z"
        fill="black" />
    <path
        d="M104.357 29.512C107.173 22.8133 108.581 16.9253 108.581 11.848L101.51 18.919C101.51 23.9964 100.102 29.8844 97.2859 36.583L104.357 29.512Z"
        fill="black" />
    <path
        d="M133.616 46.728C133.051 46.728 132.536 46.9607 132.071 47.4262L125.001 54.496C125.466 54.0313 125.98 53.799 126.545 53.799L133.616 46.728Z"
        fill="black" />
    <path
        d="M132.885 42.952C132.885 48.584 133.824 53.064 135.701 56.392L128.63 63.463C126.753 60.135 125.814 55.655 125.814 50.023L132.885 42.952Z"
        fill="black" />
    <path
        d="M132.071 47.4262C132.009 47.488 131.948 47.5539 131.888 47.624L124.817 54.695C124.877 54.625 124.938 54.5591 125 54.4973L132.071 47.4262Z"
        fill="black" />
    <path
        d="M134.192 53.576C135.003 52.6373 135.408 51.3146 135.408 49.608L128.337 56.679C128.337 58.3857 127.932 59.7084 127.121 60.647L134.192 53.576Z"
        fill="black" />
    <path
        d="M131.888 47.624C131.416 48.1974 130.92 48.7428 130.4 49.2599L123.405 56.2554C123.379 56.2807 123.354 56.3059 123.329 56.331L123.405 56.2554C123.897 55.7608 124.368 55.2406 124.817 54.695L131.888 47.624Z"
        fill="black" />
    <path
        d="M118.576 31.176C115.803 31.176 113.307 31.9226 111.088 33.416L104.017 40.487C106.236 38.9937 108.732 38.247 111.505 38.247L118.576 31.176Z"
        fill="black" />
    <path
        d="M102.373 12.04C102.373 16.1786 101.477 20.7653 99.685 25.8L92.6139 32.871C94.4059 27.8364 95.3019 23.2497 95.3019 19.111L102.373 12.04Z"
        fill="black" />
    <path
        d="M123.568 46.984C125.701 44.8507 126.768 42.312 126.768 39.368L119.697 46.439C119.697 49.383 118.63 51.9217 116.497 54.0551L123.568 46.984Z"
        fill="black" />
    <path
        d="M135.701 56.392C137.621 59.6773 140.608 61.32 144.661 61.32L137.59 68.391C133.537 68.391 130.55 66.7484 128.63 63.463L135.701 56.392Z"
        fill="black" />
    <path
        d="M117.488 37.448C118.256 37.448 118.853 37.704 119.28 38.216L112.209 45.287C111.782 44.775 111.185 44.519 110.417 44.519L117.488 37.448Z"
        fill="black" />
    <path
        d="M119.28 38.216C119.749 38.6853 119.984 39.3253 119.984 40.136L112.913 47.207C112.913 46.3964 112.678 45.7564 112.209 45.287L119.28 38.216Z"
        fill="black" />
    <path
        d="M133.111 54.7652C133.5 54.3754 133.861 53.979 134.192 53.576L127.121 60.647C126.79 61.05 126.429 61.4464 126.039 61.8363L133.111 54.7652Z"
        fill="black" />
    <path
        d="M114.575 38.7389C115.436 37.8783 116.407 37.448 117.488 37.448L110.417 44.519C109.336 44.519 108.365 44.9493 107.503 45.81L114.575 38.7389Z"
        fill="black" />
    <path
        d="M119.984 40.136C119.984 41.4949 119.447 42.7116 118.372 43.786L111.303 50.8545C112.376 49.7807 112.913 48.5649 112.913 47.207L119.984 40.136Z"
        fill="black" />
    <path
        d="M130.4 49.2599C128.948 50.7051 127.31 51.9305 125.488 52.936L118.417 60.007C120.239 59.0015 121.877 57.7762 123.329 56.331L130.4 49.2599Z"
        fill="black" />
    <path
        d="M93.989 25.672C94.9277 20.424 96.0157 16.0293 97.253 12.488L90.1819 19.5591C88.9446 23.1004 87.8566 27.495 86.9179 32.743L93.989 25.672Z"
        fill="black" />
    <path
        d="M111.088 33.416C110.346 33.9251 109.659 34.4961 109.026 35.1292L101.961 42.1948C102.592 41.5639 103.277 40.9947 104.017 40.487L111.088 33.416Z"
        fill="black" />
    <path
        d="M113.456 40.2C113.805 39.6229 114.177 39.1366 114.572 38.7411L107.503 45.81C107.107 46.2059 106.734 46.6929 106.385 47.271L113.456 40.2Z"
        fill="black" />
    <path
        d="M118.372 43.786C118.198 43.9597 118.01 44.1297 117.808 44.296L110.737 51.367C110.939 51.2008 111.127 51.0308 111.301 50.857L118.372 43.786Z"
        fill="black" />
    <path
        d="M127.472 58.888C129.761 57.609 131.638 56.2371 133.103 54.7723L126.039 61.8363C124.573 63.3038 122.693 64.678 120.401 65.959L127.472 58.888Z"
        fill="black" />
    <path
        d="M92.581 8.00797C89.9783 12.7866 87.9943 18.5039 86.629 25.1599L79.5579 32.231C80.9233 25.575 82.9073 19.8577 85.5099 15.079L92.581 8.00797Z"
        fill="black" />
    <path
        d="M109.026 35.1292C107.803 36.3531 106.784 37.8087 105.968 39.496L98.8969 46.567C99.7124 44.8798 100.732 43.4242 101.955 42.2003L109.026 35.1292Z"
        fill="black" />
    <path
        d="M117.808 44.296C116.357 45.4906 114.373 46.3866 111.856 46.984L104.785 54.055C107.302 53.4577 109.286 52.5617 110.737 51.367L117.808 44.296Z"
        fill="black" />
    <path
        d="M111.856 46.856C111.856 44.2533 112.389 42.0346 113.456 40.2L106.385 47.271C105.318 49.1057 104.785 51.3244 104.785 53.927L111.856 46.856Z"
        fill="black" />
    <path
        d="M112.88 51.976C117.915 50.7386 121.477 49.0747 123.568 46.984L116.497 54.0551C114.406 56.1457 110.844 57.8097 105.809 59.047L112.88 51.976Z"
        fill="black" />
    <path
        d="M125.488 52.936C123.056 54.2586 120.88 54.92 118.96 54.92L111.889 61.991C113.809 61.991 115.985 61.3297 118.417 60.007L125.488 52.936Z"
        fill="black" />
    <path d="M111.856 46.984V46.856L104.785 53.927V54.055L111.856 46.984Z" fill="black" />
    <path
        d="M99.685 25.8C97.893 30.792 95.4823 35.784 92.453 40.776L85.3819 47.847C88.4113 42.855 90.8219 37.863 92.6139 32.871L99.685 25.8Z"
        fill="black" />
    <path
        d="M118.256 61.32C121.541 61.32 124.613 60.5093 127.472 58.888L120.401 65.959C117.542 67.5804 114.47 68.391 111.185 68.391L118.256 61.32Z"
        fill="black" />
    <path
        d="M118.96 54.92C115.973 54.92 113.947 53.9386 112.88 51.976L105.809 59.047C106.876 61.0097 108.902 61.991 111.889 61.991L118.96 54.92Z"
        fill="black" />
    <path
        d="M109.733 47.496C109.434 46.984 109.008 46.728 108.453 46.728L101.382 53.799C101.937 53.799 102.363 54.055 102.662 54.567L109.733 47.496Z"
        fill="black" />
    <path
        d="M105.968 39.496C104.731 42.0133 104.112 44.744 104.112 47.688L97.0409 54.759C97.0409 51.815 97.6596 49.0844 98.8969 46.567L105.968 39.496Z"
        fill="black" />
    <path
        d="M110.245 49.608C110.245 48.712 110.074 48.008 109.733 47.496L102.662 54.567C103.003 55.079 103.174 55.783 103.174 56.679L110.245 49.608Z"
        fill="black" />
    <path
        d="M108.453 46.728C107.888 46.728 107.373 46.9607 106.908 47.4262L99.8379 54.496C100.303 54.0313 100.817 53.799 101.382 53.799L108.453 46.728Z"
        fill="black" />
    <path
        d="M92.453 40.776C92.5383 35.9546 93.0503 30.92 93.989 25.672L86.9179 32.743C85.9793 37.991 85.4673 43.0257 85.3819 47.847L92.453 40.776Z"
        fill="black" />
    <path
        d="M106.908 47.4262C106.846 47.488 106.785 47.554 106.725 47.624L99.6539 54.6951C99.714 54.625 99.7749 54.5591 99.8366 54.4973L106.908 47.4262Z"
        fill="black" />
    <path
        d="M92.901 49.416C97.7223 42.8453 101.541 36.2106 104.357 29.512L97.2859 36.583C94.4699 43.2817 90.6513 49.9164 85.8299 56.487L92.901 49.416Z"
        fill="black" />
    <path
        d="M106.725 47.624C106.462 47.9364 106.205 48.2371 105.954 48.5263L98.8827 55.5974C99.1338 55.3082 99.3909 55.0074 99.6539 54.6951L106.725 47.624Z"
        fill="black" />
    <path
        d="M109.029 53.576C109.84 52.6373 110.245 51.3146 110.245 49.608L103.174 56.679C103.174 58.3857 102.769 59.7084 101.958 60.647L109.029 53.576Z"
        fill="black" />
    <path
        d="M105.954 48.5263C105.302 49.2764 104.691 49.9484 104.12 50.5422L97.0493 57.6133C97.6202 57.0195 98.2313 56.3475 98.8827 55.5974L105.954 48.5263Z"
        fill="black" />
    <path
        d="M107.824 57.672C110.299 60.104 113.776 61.32 118.256 61.32L111.185 68.391C106.705 68.391 103.228 67.175 100.753 64.743L107.824 57.672Z"
        fill="black" />
    <path
        d="M104.112 47.688C104.112 51.912 105.349 55.24 107.824 57.672L100.753 64.743C98.2783 62.311 97.0409 58.983 97.0409 54.759L104.112 47.688Z"
        fill="black" />
    <path
        d="M106.975 55.8664C107.682 55.1557 108.367 54.3923 109.029 53.576L101.958 60.647C101.296 61.4633 100.611 62.2268 99.9044 62.9375L106.975 55.8664Z"
        fill="black" />
    <path
        d="M104.12 50.5422C103.903 50.768 103.692 50.9825 103.487 51.1857L96.6703 58.002C96.5844 58.0888 96.4995 58.1737 96.4155 58.2568L96.6703 58.002C96.7946 57.8763 96.9209 57.7468 97.0493 57.6133L104.12 50.5422Z"
        fill="black" />
    <path
        d="M86.629 25.1599C85.3063 31.8159 84.645 37.7466 84.645 42.952L77.5739 50.023C77.5739 44.8177 78.2353 38.887 79.5579 32.231L86.629 25.1599Z"
        fill="black" />
    <path
        d="M103.487 51.1857C102.819 51.8457 102.213 52.3865 101.669 52.808L94.5979 59.879C95.1423 59.4576 95.7482 58.9168 96.4155 58.2568L103.487 51.1857Z"
        fill="black" />
    <path
        d="M106.975 55.8664C106.939 55.9034 106.902 55.9402 106.865 55.9769L99.9044 62.9375C98.6532 64.1955 97.3324 65.288 95.9419 66.215L103.013 59.144C104.363 58.2442 105.647 57.1885 106.865 55.9769L106.975 55.8664Z"
        fill="black" />
    <path
        d="M101.669 52.808C100.346 53.7893 98.8103 54.28 97.061 54.28L89.9899 61.3511C91.7393 61.3511 93.2753 60.8604 94.5979 59.879L101.669 52.808Z"
        fill="black" />
    <path
        d="M78.9665 35.528C78.9665 34.0346 77.9212 33.288 75.8305 33.288L68.7594 40.359C70.8501 40.359 71.8954 41.1057 71.8954 42.599L78.9665 35.528Z"
        fill="black" />
    <path
        d="M94.373 53.192C93.6903 52.424 93.1997 51.1653 92.901 49.416L85.8299 56.487C86.1286 58.2364 86.6193 59.495 87.3019 60.263L94.373 53.192Z"
        fill="black" />
    <path
        d="M97.061 54.28C95.9517 54.28 95.0557 53.9173 94.373 53.192L87.3019 60.263C87.9846 60.9884 88.8806 61.3511 89.9899 61.3511L97.061 54.28Z"
        fill="black" />
    <path
        d="M88.8865 47.496C88.5878 46.984 88.1612 46.728 87.6065 46.728L80.5354 53.799C81.0901 53.799 81.5168 54.055 81.8154 54.567L88.8865 47.496Z"
        fill="black" />
    <path
        d="M75.8305 33.288C74.8492 33.288 73.9105 33.3733 73.0145 33.544L65.9434 40.615C66.8394 40.4444 67.7781 40.359 68.7594 40.359L75.8305 33.288Z"
        fill="black" />
    <path
        d="M89.3985 49.608C89.3985 48.712 89.2278 48.008 88.8865 47.496L81.8154 54.567C82.1568 55.079 82.3274 55.783 82.3274 56.679L89.3985 49.608Z"
        fill="black" />
    <path
        d="M55.496 14.728C54.088 12.296 51.976 10.376 49.16 8.96796L42.0889 16.039C44.9049 17.447 47.0169 19.367 48.4249 21.799L55.496 14.728Z"
        fill="black" />
    <path
        d="M73.0145 33.544C72.8012 32.6053 72.5238 31.9653 72.1825 31.624L65.1114 38.695C65.4528 39.0364 65.7301 39.6764 65.9434 40.615L73.0145 33.544Z"
        fill="black" />
    <path
        d="M72.1825 31.624C71.8838 31.24 71.2652 31.048 70.3265 31.048L63.2554 38.119C64.1941 38.119 64.8128 38.311 65.1114 38.695L72.1825 31.624Z"
        fill="black" />
    <path
        d="M78.0065 41.928C78.6465 38.5573 78.9665 36.424 78.9665 35.528L71.8954 42.599C71.8954 43.495 71.5754 45.6284 70.9354 48.999L78.0065 41.928Z"
        fill="black" />
    <path
        d="M87.6065 46.728C87.0415 46.728 86.5264 46.9607 86.0612 47.4262L78.9914 54.496C79.4563 54.0313 79.971 53.799 80.5354 53.799L87.6065 46.728Z"
        fill="black" />
    <path
        d="M95.717 61.32C98.4477 61.32 100.88 60.5946 103.013 59.144L95.9419 66.215C93.8086 67.6657 91.3766 68.3911 88.6459 68.3911L95.717 61.32Z"
        fill="black" />
    <path
        d="M86.0612 47.4262C85.9994 47.488 85.9385 47.554 85.8785 47.624L78.8074 54.6951C78.8675 54.625 78.9284 54.5591 78.9902 54.4973L86.0612 47.4262Z"
        fill="black" />
    <path
        d="M57.672 22.856C57.672 19.8266 56.9467 17.1173 55.496 14.728L48.4249 21.799C49.8756 24.1884 50.6009 26.8977 50.6009 29.927L57.672 22.856Z"
        fill="black" />
    <path
        d="M88.1825 53.576C88.9932 52.6373 89.3985 51.3146 89.3985 49.608L82.3274 56.679C82.3274 58.3857 81.9221 59.7084 81.1114 60.647L88.1825 53.576Z"
        fill="black" />
    <path
        d="M84.645 42.952C84.645 48.3706 85.541 52.7866 87.333 56.2L80.2619 63.271C78.4699 59.8577 77.5739 55.4417 77.5739 50.023L84.645 42.952Z"
        fill="black" />
    <path
        d="M49.16 8.96796C46.3867 7.55996 42.9947 6.85596 38.984 6.85596L31.9129 13.927C35.9236 13.927 39.3156 14.631 42.0889 16.039L49.16 8.96796Z"
        fill="black" />
    <path
        d="M85.8785 47.624C84.8188 48.891 83.8772 49.9715 83.0539 50.8654L75.9828 57.9364C76.8062 57.0425 77.7477 55.9621 78.8074 54.6951L85.8785 47.624Z"
        fill="black" />
    <path
        d="M70.3265 31.048C67.3825 31.048 64.5878 31.9866 61.9425 33.864L54.8714 40.935C57.5168 39.0577 60.3114 38.119 63.2554 38.119L70.3265 31.048Z"
        fill="black" />
    <path
        d="M87.333 56.2C89.1677 59.6133 91.9623 61.32 95.717 61.32L88.6459 68.3911C84.8913 68.3911 82.0966 66.6844 80.2619 63.271L87.333 56.2Z"
        fill="black" />
    <path
        d="M85.7886 56.2733C86.6076 55.4415 87.4056 54.5424 88.1825 53.576L81.1114 60.647C80.3345 61.6135 79.5365 62.5126 78.7175 63.3443L85.7886 56.2733Z"
        fill="black" />
    <path
        d="M83.0539 50.8654C82.6164 51.3403 82.2122 51.7626 81.8414 52.1322L74.8378 59.1359C74.8152 59.1585 74.7927 59.181 74.7704 59.2033L74.8378 59.1359C75.19 58.7826 75.5717 58.3828 75.9828 57.9364L83.0539 50.8654Z"
        fill="black" />
    <path
        d="M66.2305 39.048C67.7665 37.7253 69.4305 37.0426 71.2225 37L64.1514 44.071C62.3594 44.1137 60.6954 44.7964 59.1594 46.119L66.2305 39.048Z"
        fill="black" />
    <path
        d="M76.5345 52.168C76.5345 50.248 77.0252 46.8346 78.0065 41.928L70.9354 48.999C69.9541 53.9057 69.4634 57.319 69.4634 59.239L76.5345 52.168Z"
        fill="black" />
    <path
        d="M81.8414 52.1322C81.6176 52.3553 81.406 52.5592 81.2065 52.744L74.1354 59.815C74.3349 59.6303 74.5466 59.4264 74.7704 59.2033L81.8414 52.1322Z"
        fill="black" />
    <path
        d="M54.856 32.84C56.7333 29.8106 57.672 26.4826 57.672 22.856L50.6009 29.927C50.6009 33.5537 49.6623 36.8817 47.7849 39.911L54.856 32.84Z"
        fill="black" />
    <path
        d="M85.7886 56.2733C85.6703 56.3934 85.5516 56.512 85.4325 56.6293L78.7175 63.3443C77.9407 64.1332 77.1451 64.8615 76.3304 65.5293L83.4015 58.4582C84.0921 57.8921 84.7691 57.2825 85.4325 56.6293L85.7886 56.2733Z"
        fill="black" />
    <path d="M71.2225 37L68.8545 48.776L61.7834 55.847L64.1514 44.071L71.2225 37Z" fill="black" />
    <path
        d="M45.32 16.584C47.1973 18.3333 48.136 20.616 48.136 23.432L41.0649 30.5031C41.0649 27.687 40.1263 25.4044 38.2489 23.6551L45.32 16.584Z"
        fill="black" />
    <path
        d="M65.5933 39.6381C65.7993 39.4322 66.0117 39.2355 66.2305 39.048L59.1594 46.119C58.9406 46.3066 58.7282 46.5033 58.5222 46.7092L65.5933 39.6381Z"
        fill="black" />
    <path
        d="M81.2065 52.744C80.0545 53.768 79.0732 54.28 78.2625 54.28L71.1914 61.351C72.0021 61.351 72.9834 60.839 74.1354 59.815L81.2065 52.744Z"
        fill="black" />
    <path
        d="M61.9425 33.864C61.0566 34.4884 60.2301 35.1846 59.4628 35.9524L52.4019 43.0133C53.1663 42.2495 53.9895 41.5568 54.8714 40.935L61.9425 33.864Z"
        fill="black" />
    <path
        d="M36.744 13.896C40.6267 13.896 43.4853 14.792 45.32 16.584L38.2489 23.6551C36.4143 21.863 33.5556 20.9671 29.6729 20.9671L36.744 13.896Z"
        fill="black" />
    <path
        d="M82.6145 59.08C82.8788 58.8789 83.1411 58.6716 83.4015 58.4582L76.3304 65.5293C76.07 65.7427 75.8077 65.95 75.5434 66.151L82.6145 59.08Z"
        fill="black" />
    <path
        d="M76.9825 53.704C76.6838 53.32 76.5345 52.808 76.5345 52.168L69.4634 59.239C69.4634 59.879 69.6128 60.391 69.9114 60.775L76.9825 53.704Z"
        fill="black" />
    <path
        d="M78.2625 54.28C77.7505 54.28 77.3238 54.088 76.9825 53.704L69.9114 60.775C70.2528 61.159 70.6794 61.351 71.1914 61.351L78.2625 54.28Z"
        fill="black" />
    <path
        d="M62.6465 44.168C63.4103 42.3495 64.391 40.841 65.5888 39.6426L58.5222 46.7092C57.3224 47.9083 56.3402 49.4183 55.5754 51.239L62.6465 44.168Z"
        fill="black" />
    <path
        d="M38.984 6.85596C33.3093 6.85596 28.104 8.37062 23.368 11.4L16.2969 18.471C21.0329 15.4417 26.2383 13.927 31.9129 13.927L38.984 6.85596Z"
        fill="black" />
    <path
        d="M76.9185 61.32C78.7532 61.32 80.6518 60.5733 82.6145 59.08L75.5434 66.151C73.5808 67.6444 71.6821 68.391 69.8474 68.391L76.9185 61.32Z"
        fill="black" />
    <path
        d="M59.4628 35.9524C57.9759 37.4404 56.7118 39.1976 55.6705 41.224L48.5994 48.295C49.6408 46.2687 50.9049 44.5115 52.3918 43.0235L59.4628 35.9524Z"
        fill="black" />
    <path
        d="M52.1273 36.2756C53.1793 35.223 54.0889 34.0778 54.856 32.84L47.7849 39.911C47.0178 41.1488 46.1083 42.2941 45.0562 43.3467L52.1273 36.2756Z"
        fill="black" />
    <path
        d="M48.136 23.432C48.136 27.5095 46.9938 30.6899 44.7094 32.9734L37.6416 40.0412C39.9238 37.758 41.0649 34.5786 41.0649 30.5031L48.136 23.432Z"
        fill="black" />
    <path
        d="M68.8545 48.776C68.4705 50.6106 67.8518 52.0826 66.9985 53.192L59.9274 60.263C60.7808 59.1537 61.3994 57.6817 61.7834 55.847L68.8545 48.776Z"
        fill="black" />
    <path
        d="M37.256 22.984C37.256 21.832 36.936 21 36.296 20.488L29.2249 27.559C29.8649 28.071 30.1849 28.903 30.1849 30.055L37.256 22.984Z"
        fill="black" />
    <path
        d="M25.224 18.056C28.5093 15.2827 32.3493 13.896 36.744 13.896L29.6729 20.9671C25.2783 20.9671 21.4383 22.3537 18.1529 25.1271L25.224 18.056Z"
        fill="black" />
    <path
        d="M36.296 20.488C35.6987 19.9333 34.696 19.6559 33.288 19.6559L26.2169 26.727C27.6249 26.727 28.6276 27.0044 29.2249 27.559L36.296 20.488Z"
        fill="black" />
    <path
        d="M61.3025 50.952C61.3025 48.5626 61.7505 46.3013 62.6465 44.168L55.5754 51.239C54.6794 53.3724 54.2314 55.6337 54.2314 58.023L61.3025 50.952Z"
        fill="black" />
    <path
        d="M73.0145 59.912C74.2092 60.8506 75.5105 61.32 76.9185 61.32L69.8474 68.391C68.4394 68.391 67.1381 67.9217 65.9434 66.983L73.0145 59.912Z"
        fill="black" />
    <path
        d="M70.3905 55.944C70.9878 57.608 71.8625 58.9306 73.0145 59.912L65.9434 66.983C64.7914 66.0017 63.9168 64.679 63.3194 63.015L70.3905 55.944Z"
        fill="black" />
    <path
        d="M37.128 24.648C37.2133 24.2213 37.256 23.6666 37.256 22.984L30.1849 30.055C30.1849 30.7377 30.1423 31.2924 30.0569 31.719L37.128 24.648Z"
        fill="black" />
    <path
        d="M66.9985 53.192C66.8153 53.4301 66.6301 53.6427 66.443 53.8298L59.374 60.8987C59.5605 60.7122 59.7449 60.5003 59.9274 60.263L66.9985 53.192Z"
        fill="black" />
    <path
        d="M68.3301 58.5948C69.0647 57.8598 69.7515 56.9762 70.3905 55.944L63.3194 63.015C62.6804 64.0473 61.9936 64.9309 61.259 65.6658L68.3301 58.5948Z"
        fill="black" />
    <path
        d="M33.288 19.6559C32.0507 19.6559 30.9627 19.9759 30.024 20.6159L22.9529 27.687C23.8916 27.047 24.9796 26.727 26.2169 26.727L33.288 19.6559Z"
        fill="black" />
    <path
        d="M46.664 40.264C48.7801 39.1303 50.5987 37.8034 52.1199 36.283L45.0562 43.3467C43.5336 44.8701 41.7125 46.1996 39.5929 47.335L46.664 40.264Z"
        fill="black" />
    <path
        d="M66.443 53.8298C65.7585 54.5139 65.0476 54.856 64.3105 54.856L57.2394 61.927C57.9766 61.927 58.6874 61.585 59.3719 60.9008L66.443 53.8298Z"
        fill="black" />
    <path
        d="M62.0705 53.896C61.5585 53.256 61.3025 52.2746 61.3025 50.952L54.2314 58.023C54.2314 59.3457 54.4874 60.327 54.9994 60.967L62.0705 53.896Z"
        fill="black" />
    <path
        d="M30.024 20.6159C29.8446 20.7356 29.678 20.8723 29.5243 21.0261L22.4543 28.0961C22.6077 27.9427 22.774 27.8063 22.9529 27.687L30.024 20.6159Z"
        fill="black" />
    <path
        d="M64.3105 54.856C63.3718 54.856 62.6252 54.536 62.0705 53.896L54.9994 60.967C55.5541 61.607 56.3008 61.927 57.2394 61.927L64.3105 54.856Z"
        fill="black" />
    <path
        d="M55.6705 41.224C54.0918 44.2533 53.3025 47.4746 53.3025 50.888L46.2314 57.959C46.2314 54.5457 47.0208 51.3244 48.5994 48.295L55.6705 41.224Z"
        fill="black" />
    <path
        d="M23.368 11.4C21.7474 12.4312 20.2388 13.6456 18.842 15.0432L11.7822 22.103C13.1758 20.7102 14.6807 19.4995 16.2969 18.471L23.368 11.4Z"
        fill="black" />
    <path
        d="M29.5243 21.0261C28.9102 21.6405 28.5007 22.5278 28.296 23.688L21.2249 30.759C21.4297 29.5989 21.8391 28.7116 22.4532 28.0972L29.5243 21.0261Z"
        fill="black" />
    <path
        d="M24.0059 19.183C24.3998 18.7892 24.8059 18.4136 25.224 18.056L18.1529 25.1271C17.7348 25.4847 17.3288 25.8603 16.9348 26.2541L24.0059 19.183Z"
        fill="black" />
    <path d="M35.016 37.064L37.128 24.648L30.0569 31.719L27.9449 44.135L35.016 37.064Z" fill="black" />
    <path
        d="M62.0065 61.32C64.4045 61.32 66.511 60.413 68.326 58.5989L61.259 65.6658C59.4432 67.4826 57.3353 68.3911 54.9354 68.3911L62.0065 61.32Z"
        fill="black" />
    <path
        d="M44.7094 32.9734C42.5238 35.158 39.2927 36.5216 35.016 37.064L27.9449 44.135C32.2216 43.5926 35.4528 42.2291 37.6384 40.0444L44.7094 32.9734Z"
        fill="black" />
    <path
        d="M53.3025 50.888C53.3025 54.0026 54.0918 56.52 55.6705 58.44L48.5994 65.511C47.0208 63.591 46.2314 61.0737 46.2314 57.959L53.3025 50.888Z"
        fill="black" />
    <path
        d="M55.6705 58.44C57.2492 60.36 59.3612 61.32 62.0065 61.32L54.9354 68.3911C52.2901 68.3911 50.1781 67.431 48.5994 65.511L55.6705 58.44Z"
        fill="black" />
    <path
        d="M33.864 43.656C38.8133 43.3146 43.08 42.184 46.664 40.264L39.5929 47.335C36.0089 49.255 31.7423 50.3857 26.7929 50.727L33.864 43.656Z"
        fill="black" />
    <path
        d="M28.296 23.688C27.272 29.2773 26.4827 33.736 25.928 37.064L18.8569 44.135C19.4116 40.807 20.2009 36.3484 21.2249 30.759L28.296 23.688Z"
        fill="black" />
    <path
        d="M17.672 29.6399C19.2313 25.3335 21.3397 21.8507 23.9972 19.1916L16.9348 26.2541C14.2732 28.9142 12.1619 32.3998 10.6009 36.711L17.672 29.6399Z"
        fill="black" />
    <path
        d="M18.842 15.0432C16.1937 17.693 13.9477 21.0013 12.104 24.968L5.03293 32.039C6.87659 28.0724 9.12261 24.7641 11.771 22.1142L18.842 15.0432Z"
        fill="black" />
    <path
        d="M25.928 37.064C25.3733 37.0213 24.584 36.9146 23.56 36.744L16.4889 43.815C17.5129 43.9857 18.3023 44.0924 18.8569 44.135L25.928 37.064Z"
        fill="black" />
    <path
        d="M23.56 36.744C23.3467 36.7013 23.0267 36.68 22.6 36.68L15.5289 43.751C15.9556 43.751 16.2756 43.7724 16.4889 43.815L23.56 36.744Z"
        fill="black" />
    <path
        d="M22.6 36.68C21.6613 36.68 20.9147 36.9573 20.36 37.512L13.2889 44.583C13.8436 44.0284 14.5903 43.751 15.5289 43.751L22.6 36.68Z"
        fill="black" />
    <path
        d="M20.36 37.512C19.848 38.0666 19.592 38.8133 19.592 39.752L12.5209 46.823C12.5209 45.8844 12.7769 45.1377 13.2889 44.583L20.36 37.512Z"
        fill="black" />
    <path d="M31.112 59.08L33.864 43.656L26.7929 50.727L24.0409 66.151L31.112 59.08Z" fill="black" />
    <path
        d="M22.664 43.144C22.4507 43.1013 23.176 43.208 24.84 43.464L17.7689 50.535C16.4965 50.3393 15.7729 50.2308 15.5982 50.2097L15.5929 50.215C15.5427 50.205 15.5445 50.2032 15.5982 50.2097L22.664 43.144Z"
        fill="black" />
    <path
        d="M19.592 39.752C19.592 40.648 19.784 41.3946 20.168 41.992L13.0969 49.063C12.7129 48.4657 12.5209 47.719 12.5209 46.823L19.592 39.752Z"
        fill="black" />
    <path
        d="M20.168 41.992C20.552 42.5466 21.384 42.9306 22.664 43.144L15.5929 50.215C14.3129 50.0017 13.4809 49.6177 13.0969 49.063L20.168 41.992Z"
        fill="black" />
    <path
        d="M15.048 46.472C15.048 40.1573 15.9227 34.5466 17.672 29.6399L10.6009 36.711C8.8516 41.6177 7.97693 47.2284 7.97693 53.543L15.048 46.472Z"
        fill="black" />
    <path d="M24.84 43.464L22.728 55.56L15.6569 62.631L17.7689 50.535L24.84 43.464Z" fill="black" />
    <path
        d="M12.104 24.968C9.33066 30.984 7.94399 38.3226 7.94399 46.984L0.872925 54.055C0.872925 45.3937 2.25959 38.055 5.03293 32.039L12.104 24.968Z"
        fill="black" />
    <path
        d="M28.079 65.8096C29.5607 64.3272 30.5717 62.084 31.112 59.08L24.0409 66.151C23.5006 69.1551 22.4896 71.3983 21.0079 72.8807L28.079 65.8096Z"
        fill="black" />
    <path
        d="M15.816 53.512C15.304 51.464 15.048 49.1173 15.048 46.472L7.97693 53.543C7.97693 56.1884 8.23293 58.5351 8.74493 60.5831L15.816 53.512Z"
        fill="black" />
    <path
        d="M22.728 55.56C22.3445 57.5956 21.8385 58.9275 21.2102 59.5556L14.1397 66.6261C14.7678 65.9978 15.2735 64.6661 15.6569 62.631L22.728 55.56Z"
        fill="black" />
    <path
        d="M21.2102 59.5556C20.9299 59.8358 20.6251 59.976 20.296 59.976L13.2249 67.047C13.554 67.047 13.8593 66.9064 14.1397 66.6261L21.2102 59.5556Z"
        fill="black" />
    <path
        d="M17.864 58.312C17.0533 57.16 16.3707 55.56 15.816 53.512L8.74493 60.5831C9.2996 62.6311 9.98227 64.231 10.7929 65.383L17.864 58.312Z"
        fill="black" />
    <path
        d="M20.296 59.976C19.528 59.976 18.7173 59.4213 17.864 58.312L10.7929 65.383C11.6463 66.4924 12.4569 67.047 13.2249 67.047L20.296 59.976Z"
        fill="black" />
    <path
        d="M22.408 67.976C24.7438 67.976 26.6333 67.2547 28.0765 65.8121L21.0079 72.8807C19.5643 74.3249 17.674 75.047 15.3369 75.047L22.408 67.976Z"
        fill="black" />
    <path
        d="M7.94399 46.984C7.94399 51.592 8.60533 55.4746 9.92799 58.632L2.85693 65.703C1.53426 62.5457 0.872925 58.663 0.872925 54.055L7.94399 46.984Z"
        fill="black" />
    <path
        d="M15.176 65.672C17.3947 67.208 19.8053 67.976 22.408 67.976L15.3369 75.047C12.7343 75.047 10.3236 74.279 8.10493 72.743L15.176 65.672Z"
        fill="black" />
    <path
        d="M9.92799 58.632C11.2507 61.7893 13 64.136 15.176 65.672L8.10493 72.743C5.92893 71.207 4.17959 68.8604 2.85693 65.703L9.92799 58.632Z"
        fill="black" />
    <path
        d="M57.672 22.856C57.672 26.4826 56.7333 29.8106 54.856 32.84C52.9787 35.8693 50.248 38.344 46.664 40.264C43.08 42.184 38.8133 43.3146 33.864 43.656L31.112 59.08C30.0453 65.0106 27.144 67.976 22.408 67.976C19.8053 67.976 17.3947 67.208 15.176 65.672C13 64.136 11.2507 61.7893 9.92799 58.632C8.60533 55.4746 7.94399 51.592 7.94399 46.984C7.94399 38.3226 9.33066 30.984 12.104 24.968C14.92 18.9093 18.6747 14.3866 23.368 11.4C28.104 8.37062 33.3093 6.85596 38.984 6.85596C42.9947 6.85596 46.3867 7.55996 49.16 8.96796C51.976 10.376 54.088 12.296 55.496 14.728C56.9467 17.1173 57.672 19.8266 57.672 22.856ZM35.016 37.064C43.7627 35.9546 48.136 31.4107 48.136 23.432C48.136 20.616 47.1973 18.3333 45.32 16.584C43.4853 14.792 40.6267 13.896 36.744 13.896C32.3493 13.896 28.5093 15.2827 25.224 18.056C21.9813 20.8293 19.464 24.6906 17.672 29.6399C15.9227 34.5466 15.048 40.1573 15.048 46.472C15.048 49.1173 15.304 51.464 15.816 53.512C16.3707 55.56 17.0533 57.16 17.864 58.312C18.7173 59.4213 19.528 59.976 20.296 59.976C21.3627 59.976 22.1733 58.504 22.728 55.56L24.84 43.464C23.176 43.208 22.4507 43.1013 22.664 43.144C21.384 42.9306 20.552 42.5466 20.168 41.992C19.784 41.3946 19.592 40.648 19.592 39.752C19.592 38.8133 19.848 38.0666 20.36 37.512C20.9147 36.9573 21.6613 36.68 22.6 36.68C23.0267 36.68 23.3467 36.7013 23.56 36.744C24.584 36.9146 25.3733 37.0213 25.928 37.064C26.4827 33.736 27.272 29.2773 28.296 23.688C28.552 22.2373 29.128 21.2133 30.024 20.6159C30.9627 19.9759 32.0507 19.6559 33.288 19.6559C34.696 19.6559 35.6987 19.9333 36.296 20.488C36.936 21 37.256 21.832 37.256 22.984C37.256 23.6666 37.2133 24.2213 37.128 24.648L35.016 37.064Z"
        fill="white" />
    <path
        d="M62.0065 61.32C59.3612 61.32 57.2492 60.36 55.6705 58.44C54.0918 56.52 53.3025 54.0026 53.3025 50.888C53.3025 47.4746 54.0918 44.2533 55.6705 41.224C57.2492 38.152 59.3398 35.6986 61.9425 33.864C64.5878 31.9866 67.3825 31.048 70.3265 31.048C71.2652 31.048 71.8838 31.24 72.1825 31.624C72.5238 31.9653 72.8012 32.6053 73.0145 33.544C73.9105 33.3733 74.8492 33.288 75.8305 33.288C77.9212 33.288 78.9665 34.0346 78.9665 35.528C78.9665 36.424 78.6465 38.5573 78.0065 41.928C77.0252 46.8346 76.5345 50.248 76.5345 52.168C76.5345 52.808 76.6838 53.32 76.9825 53.704C77.3238 54.088 77.7505 54.28 78.2625 54.28C79.0732 54.28 80.0545 53.768 81.2065 52.744C82.3585 51.6773 83.9158 49.9707 85.8785 47.624C86.3905 47.0267 86.9665 46.728 87.6065 46.728C88.1612 46.728 88.5878 46.984 88.8865 47.496C89.2278 48.008 89.3985 48.712 89.3985 49.608C89.3985 51.3146 88.9932 52.6373 88.1825 53.576C86.4332 55.752 84.5772 57.5866 82.6145 59.08C80.6518 60.5733 78.7532 61.32 76.9185 61.32C75.5105 61.32 74.2092 60.8506 73.0145 59.912C71.8625 58.9306 70.9878 57.608 70.3905 55.944C68.1718 59.528 65.3772 61.32 62.0065 61.32ZM64.3105 54.856C65.2492 54.856 66.1452 54.3013 66.9985 53.192C67.8518 52.0826 68.4705 50.6106 68.8545 48.776L71.2225 37C69.4305 37.0426 67.7665 37.7253 66.2305 39.048C64.7372 40.328 63.5425 42.0346 62.6465 44.168C61.7505 46.3013 61.3025 48.5626 61.3025 50.952C61.3025 52.2746 61.5585 53.256 62.0705 53.896C62.6252 54.536 63.3718 54.856 64.3105 54.856Z"
        fill="white" />
    <path
        d="M108.453 46.728C109.008 46.728 109.434 46.984 109.733 47.496C110.074 48.008 110.245 48.712 110.245 49.608C110.245 51.3146 109.84 52.6373 109.029 53.576C107.194 55.8373 105.189 57.6933 103.013 59.144C100.88 60.5946 98.4477 61.32 95.717 61.32C91.9623 61.32 89.1677 59.6133 87.333 56.2C85.541 52.7866 84.645 48.3706 84.645 42.952C84.645 37.7466 85.3063 31.8159 86.629 25.1599C87.9943 18.5039 89.9783 12.7866 92.581 8.00797C95.2263 3.2293 98.3623 0.839966 101.989 0.839966C104.037 0.839966 105.637 1.79997 106.789 3.71997C107.984 5.5973 108.581 8.30664 108.581 11.848C108.581 16.9253 107.173 22.8133 104.357 29.512C101.541 36.2106 97.7223 42.8453 92.901 49.416C93.1997 51.1653 93.6903 52.424 94.373 53.192C95.0557 53.9173 95.9517 54.28 97.061 54.28C98.8103 54.28 100.346 53.7893 101.669 52.808C102.992 51.784 104.677 50.056 106.725 47.624C107.237 47.0267 107.813 46.728 108.453 46.728ZM100.581 7.17596C99.5997 7.17596 98.4903 8.94666 97.253 12.488C96.0157 16.0293 94.9277 20.424 93.989 25.672C93.0503 30.92 92.5383 35.9546 92.453 40.776C95.4823 35.784 97.893 30.792 99.685 25.8C101.477 20.7653 102.373 16.1786 102.373 12.04C102.373 8.7973 101.776 7.17596 100.581 7.17596Z"
        fill="white" />
    <path
        d="M133.616 46.728C134.171 46.728 134.597 46.984 134.896 47.496C135.237 48.008 135.408 48.712 135.408 49.608C135.408 51.3146 135.003 52.6373 134.192 53.576C132.613 55.496 130.373 57.2666 127.472 58.888C124.613 60.5093 121.541 61.32 118.256 61.32C113.776 61.32 110.299 60.104 107.824 57.672C105.349 55.24 104.112 51.912 104.112 47.688C104.112 44.744 104.731 42.0133 105.968 39.496C107.205 36.936 108.912 34.9093 111.088 33.416C113.307 31.9226 115.803 31.176 118.576 31.176C121.051 31.176 123.035 31.9226 124.528 33.416C126.021 34.8666 126.768 36.8506 126.768 39.368C126.768 42.312 125.701 44.8507 123.568 46.984C121.477 49.0747 117.915 50.7386 112.88 51.976C113.947 53.9386 115.973 54.92 118.96 54.92C120.88 54.92 123.056 54.2586 125.488 52.936C127.963 51.5706 130.096 49.8 131.888 47.624C132.4 47.0266 132.976 46.728 133.616 46.728ZM117.488 37.448C115.909 37.448 114.565 38.3653 113.456 40.2C112.389 42.0346 111.856 44.2533 111.856 46.856V46.984C114.373 46.3866 116.357 45.4906 117.808 44.296C119.259 43.1013 119.984 41.7146 119.984 40.136C119.984 39.3253 119.749 38.6853 119.28 38.216C118.853 37.704 118.256 37.448 117.488 37.448Z"
        fill="white" />
    <path
        d="M178.773 46.728C179.328 46.728 179.754 46.984 180.053 47.496C180.394 48.008 180.565 48.712 180.565 49.608C180.565 51.3146 180.16 52.6373 179.349 53.576C177.514 55.8373 175.509 57.6933 173.333 59.144C171.157 60.5946 168.661 61.32 165.845 61.32C160.64 61.32 157.013 59.144 154.965 54.792C153.856 56.584 152.384 58.12 150.549 59.4C148.714 60.68 146.752 61.32 144.661 61.32C140.608 61.32 137.621 59.6773 135.701 56.392C133.824 53.064 132.885 48.584 132.885 42.952C132.885 40.8613 132.992 38.536 133.205 35.976H130.581C129.301 35.976 128.426 35.7413 127.957 35.272C127.53 34.8026 127.317 34.056 127.317 33.032C127.317 30.6426 128.277 29.448 130.197 29.448L134.101 29.448C134.912 24.9253 136.042 20.8293 137.493 17.16C138.944 13.4906 140.693 10.568 142.741 8.39199C144.789 6.21599 147.008 5.12799 149.397 5.12799C151.189 5.12799 152.597 5.91732 153.621 7.49599C154.645 9.07466 155.157 11.0586 155.157 13.448C155.157 19.464 152.832 24.7973 148.181 29.448L154.005 29.448C154.816 24.9253 155.946 20.8293 157.397 17.16C158.848 13.4906 160.597 10.568 162.645 8.39199C164.693 6.21599 166.912 5.12799 169.301 5.12799C171.093 5.12799 172.501 5.91732 173.525 7.49599C174.549 9.07466 175.061 11.0586 175.061 13.448C175.061 19.464 172.736 24.7973 168.085 29.448L173.909 29.448C174.592 29.448 175.082 29.5973 175.381 29.896C175.68 30.1946 175.829 30.7493 175.829 31.56C175.829 34.504 173.418 35.976 168.597 35.976L160.853 35.976C160.725 38.024 160.661 40.1146 160.661 42.248C160.661 46.6853 161.173 49.8 162.197 51.592C163.264 53.384 164.928 54.28 167.189 54.28C169.024 54.28 170.645 53.7253 172.053 52.616C173.461 51.5066 175.125 49.8426 177.045 47.624C177.557 47.0266 178.133 46.728 178.773 46.728ZM147.669 11.272C147.029 11.272 146.304 12.0826 145.493 13.704C144.725 15.2826 143.978 17.5013 143.253 20.36C142.57 23.176 141.994 26.312 141.525 29.768C144.042 27.592 145.92 25.16 147.157 22.472C148.437 19.7413 149.077 17.2666 149.077 15.048C149.077 12.5306 148.608 11.272 147.669 11.272ZM167.573 11.272C166.933 11.272 166.208 12.0826 165.397 13.704C164.629 15.2826 163.882 17.5013 163.157 20.36C162.474 23.176 161.898 26.312 161.429 29.768C163.946 27.592 165.824 25.16 167.061 22.472C168.341 19.7413 168.981 17.2666 168.981 15.048C168.981 12.5306 168.512 11.272 167.573 11.272ZM146.005 54.28C147.285 54.28 148.565 53.6826 149.845 52.488C151.125 51.2933 152.213 49.8213 153.109 48.072C152.896 46.7493 152.789 45.0426 152.789 42.952C152.789 40.8613 152.896 38.536 153.109 35.976H140.949C140.821 38.024 140.757 40.1146 140.757 42.248C140.757 46.5573 141.205 49.6507 142.101 51.528C143.04 53.3627 144.341 54.28 146.005 54.28Z"
        fill="white" />
    <path
        d="M198.297 48.648C198.851 48.648 199.278 48.904 199.577 49.416C199.918 49.928 200.089 50.632 200.089 51.528C200.089 53.064 199.726 54.3866 199 55.496C197.806 57.3306 196.227 58.76 194.264 59.784C192.344 60.808 190.041 61.32 187.353 61.32C183.257 61.32 180.078 60.104 177.816 57.672C175.555 55.1973 174.424 51.8693 174.424 47.688C174.424 44.744 175.043 42.0133 176.28 39.496C177.518 36.936 179.224 34.9093 181.4 33.416C183.619 31.9226 186.115 31.176 188.888 31.176C191.363 31.176 193.347 31.9226 194.84 33.416C196.334 34.8666 197.081 36.8506 197.081 39.368C197.081 42.312 196.014 44.8507 193.88 46.984C191.79 49.0747 188.206 50.7386 183.128 51.976C184.152 53.9386 185.88 54.92 188.312 54.92C190.062 54.92 191.491 54.5146 192.6 53.704C193.752 52.8933 195.075 51.528 196.568 49.608C197.08 48.968 197.657 48.648 198.297 48.648ZM187.801 37.448C186.222 37.448 184.878 38.3653 183.768 40.2C182.702 42.0346 182.168 44.2533 182.168 46.856V46.984C184.686 46.3866 186.67 45.4906 188.12 44.296C189.571 43.1013 190.297 41.7146 190.297 40.136C190.297 39.3253 190.062 38.6853 189.592 38.216C189.166 37.704 188.569 37.448 187.801 37.448Z"
        fill="white" />
    <path
        d="M268.234 22.856C268.234 26.4826 267.296 29.8106 265.418 32.84C263.541 35.8693 260.811 38.344 257.227 40.264C253.643 42.184 249.376 43.3146 244.426 43.656L241.674 59.08C240.608 65.0106 237.706 67.976 232.97 67.976C230.368 67.976 227.957 67.208 225.738 65.672C223.562 64.136 221.813 61.7893 220.49 58.632C219.168 55.4746 218.507 51.592 218.507 46.984C218.507 38.3226 219.893 30.984 222.667 24.968C225.483 18.9093 229.237 14.3866 233.93 11.4C238.666 8.37062 243.872 6.85596 249.547 6.85596C253.557 6.85596 256.949 7.55996 259.723 8.96796C262.539 10.376 264.651 12.296 266.059 14.728C267.509 17.1173 268.234 19.8266 268.234 22.856ZM245.578 37.064C254.325 35.9546 258.698 31.4107 258.698 23.432C258.698 20.616 257.76 18.3333 255.883 16.584C254.048 14.792 251.189 13.896 247.306 13.896C242.912 13.896 239.072 15.2827 235.786 18.056C232.544 20.8293 230.026 24.6906 228.234 29.6399C226.485 34.5466 225.611 40.1573 225.611 46.472C225.611 49.1173 225.866 51.464 226.378 53.512C226.933 55.56 227.616 57.16 228.426 58.312C229.28 59.4213 230.09 59.976 230.858 59.976C231.925 59.976 232.736 58.504 233.29 55.56L235.402 43.464C233.738 43.208 233.013 43.1013 233.227 43.144C231.947 42.9306 231.114 42.5466 230.73 41.992C230.346 41.3946 230.154 40.648 230.154 39.752C230.154 38.8133 230.41 38.0666 230.922 37.512C231.477 36.9573 232.224 36.68 233.163 36.68C233.589 36.68 233.909 36.7013 234.122 36.744C235.146 36.9146 235.936 37.0213 236.491 37.064C237.045 33.736 237.834 29.2773 238.858 23.688C239.114 22.2373 239.69 21.2133 240.586 20.6159C241.525 19.9759 242.613 19.6559 243.85 19.6559C245.258 19.6559 246.261 19.9333 246.858 20.488C247.498 21 247.818 21.832 247.818 22.984C247.818 23.6666 247.776 24.2213 247.69 24.648L245.578 37.064Z"
        fill="white" />
    <path
        d="M272.569 61.32C269.924 61.32 267.812 60.36 266.233 58.44C264.654 56.52 263.865 54.0026 263.865 50.888C263.865 47.4746 264.654 44.2533 266.233 41.224C267.812 38.152 269.902 35.6986 272.505 33.864C275.15 31.9866 277.945 31.048 280.889 31.048C281.828 31.048 282.446 31.24 282.745 31.624C283.086 31.9653 283.364 32.6053 283.577 33.544C284.473 33.3733 285.412 33.288 286.393 33.288C288.484 33.288 289.529 34.0346 289.529 35.528C289.529 36.424 289.209 38.5573 288.569 41.928C287.588 46.8346 287.097 50.248 287.097 52.168C287.097 52.808 287.246 53.32 287.545 53.704C287.886 54.088 288.313 54.28 288.825 54.28C289.636 54.28 290.617 53.768 291.769 52.744C292.921 51.6773 294.478 49.9706 296.441 47.624C296.953 47.0266 297.529 46.728 298.169 46.728C298.724 46.728 299.15 46.984 299.449 47.496C299.79 48.008 299.961 48.712 299.961 49.608C299.961 51.3146 299.556 52.6373 298.745 53.576C296.996 55.752 295.14 57.5866 293.177 59.08C291.214 60.5733 289.316 61.32 287.481 61.32C286.073 61.32 284.772 60.8506 283.577 59.912C282.425 58.9306 281.55 57.608 280.953 55.944C278.734 59.528 275.94 61.32 272.569 61.32ZM274.873 54.856C275.812 54.856 276.708 54.3013 277.561 53.192C278.414 52.0826 279.033 50.6106 279.417 48.776L281.785 37C279.993 37.0426 278.329 37.7253 276.793 39.048C275.3 40.328 274.105 42.0346 273.209 44.168C272.313 46.3013 271.865 48.5626 271.865 50.952C271.865 52.2746 272.121 53.256 272.633 53.896C273.188 54.536 273.934 54.856 274.873 54.856Z"
        fill="white" />
    <path
        d="M313.255 51.976C313.725 51.5493 314.194 51.336 314.664 51.336C315.176 51.336 315.581 51.6346 315.879 52.232C316.221 52.7866 316.392 53.4693 316.392 54.28C316.392 56.072 315.751 57.5013 314.471 58.568C312.253 60.4026 309.735 61.32 306.919 61.32C302.866 61.32 299.901 59.6346 298.023 56.264C296.146 52.8506 295.207 48.4133 295.207 42.952C295.207 37.7466 295.869 31.8159 297.191 25.1599C298.557 18.5039 300.541 12.7866 303.143 8.00795C305.789 3.22929 308.925 0.839966 312.552 0.839966C314.6 0.839966 316.2 1.79997 317.352 3.71997C318.546 5.5973 319.143 8.30664 319.143 11.848C319.143 16.9253 317.735 22.8133 314.919 29.512C312.146 36.2106 308.349 42.824 303.527 49.352C303.826 51.1013 304.36 52.36 305.128 53.128C305.896 53.896 306.941 54.28 308.263 54.28C308.989 54.28 309.799 54.0666 310.695 53.64C311.634 53.2133 312.487 52.6586 313.255 51.976ZM311.143 7.17596C310.162 7.17596 309.053 8.94666 307.815 12.488C306.578 16.0293 305.49 20.424 304.552 25.672C303.613 30.92 303.101 35.9546 303.016 40.776C306.045 35.784 308.455 30.792 310.247 25.8C312.039 20.7653 312.936 16.1786 312.936 12.04C312.936 8.7973 312.338 7.17596 311.143 7.17596Z"
        fill="white" />
</svg>