<svg width="103" height="62" viewBox="0 0 103 62" fill="none" xmlns="http://www.w3.org/2000/svg">
    <path
        d="M50.672 16.856C50.672 20.4827 49.7333 23.8107 47.856 26.84C45.9787 29.8693 43.248 32.344 39.664 34.264C36.08 36.184 31.8133 37.3147 26.864 37.656L24.112 53.08C23.0453 59.0107 20.144 61.976 15.408 61.976C12.8053 61.976 10.3947 61.208 8.176 59.672C6 58.136 4.25067 55.7893 2.928 52.632C1.60533 49.4747 0.944 45.592 0.944 40.984C0.944 32.3227 2.33067 24.984 5.104 18.968C7.92 12.9093 11.6747 8.38666 16.368 5.4C21.104 2.37067 26.3093 0.855999 31.984 0.855999C35.9947 0.855999 39.3867 1.56 42.16 2.968C44.976 4.376 47.088 6.296 48.496 8.728C49.9467 11.1173 50.672 13.8267 50.672 16.856ZM28.016 31.064C36.7627 29.9547 41.136 25.4107 41.136 17.432C41.136 14.616 40.1973 12.3333 38.32 10.584C36.4853 8.792 33.6267 7.896 29.744 7.896C25.3493 7.896 21.5093 9.28266 18.224 12.056C14.9813 14.8293 12.464 18.6907 10.672 23.64C8.92267 28.5467 8.048 34.1573 8.048 40.472C8.048 43.1173 8.304 45.464 8.816 47.512C9.37067 49.56 10.0533 51.16 10.864 52.312C11.7173 53.4213 12.528 53.976 13.296 53.976C14.3627 53.976 15.1733 52.504 15.728 49.56L17.84 37.464C16.176 37.208 15.4507 37.1013 15.664 37.144C14.384 36.9307 13.552 36.5467 13.168 35.992C12.784 35.3947 12.592 34.648 12.592 33.752C12.592 32.8133 12.848 32.0667 13.36 31.512C13.9147 30.9573 14.6613 30.68 15.6 30.68C16.0267 30.68 16.3467 30.7013 16.56 30.744C17.584 30.9147 18.3733 31.0213 18.928 31.064C19.4827 27.736 20.272 23.2773 21.296 17.688C21.552 16.2373 22.128 15.2133 23.024 14.616C23.9627 13.976 25.0507 13.656 26.288 13.656C27.696 13.656 28.6987 13.9333 29.296 14.488C29.936 15 30.256 15.832 30.256 16.984C30.256 17.6667 30.2133 18.2213 30.128 18.648L28.016 31.064ZM102.172 16.856C102.172 20.4827 101.233 23.8107 99.356 26.84C97.4787 29.8693 94.748 32.344 91.164 34.264C87.58 36.184 83.3133 37.3147 78.364 37.656L75.612 53.08C74.5453 59.0107 71.644 61.976 66.908 61.976C64.3053 61.976 61.8947 61.208 59.676 59.672C57.5 58.136 55.7507 55.7893 54.428 52.632C53.1053 49.4747 52.444 45.592 52.444 40.984C52.444 32.3227 53.8307 24.984 56.604 18.968C59.42 12.9093 63.1747 8.38666 67.868 5.4C72.604 2.37067 77.8093 0.855999 83.484 0.855999C87.4947 0.855999 90.8867 1.56 93.66 2.968C96.476 4.376 98.588 6.296 99.996 8.728C101.447 11.1173 102.172 13.8267 102.172 16.856ZM79.516 31.064C88.2627 29.9547 92.636 25.4107 92.636 17.432C92.636 14.616 91.6973 12.3333 89.82 10.584C87.9853 8.792 85.1267 7.896 81.244 7.896C76.8493 7.896 73.0093 9.28266 69.724 12.056C66.4813 14.8293 63.964 18.6907 62.172 23.64C60.4227 28.5467 59.548 34.1573 59.548 40.472C59.548 43.1173 59.804 45.464 60.316 47.512C60.8707 49.56 61.5533 51.16 62.364 52.312C63.2173 53.4213 64.028 53.976 64.796 53.976C65.8627 53.976 66.6733 52.504 67.228 49.56L69.34 37.464C67.676 37.208 66.9507 37.1013 67.164 37.144C65.884 36.9307 65.052 36.5467 64.668 35.992C64.284 35.3947 64.092 34.648 64.092 33.752C64.092 32.8133 64.348 32.0667 64.86 31.512C65.4147 30.9573 66.1613 30.68 67.1 30.68C67.5267 30.68 67.8467 30.7013 68.06 30.744C69.084 30.9147 69.8733 31.0213 70.428 31.064C70.9827 27.736 71.772 23.2773 72.796 17.688C73.052 16.2373 73.628 15.2133 74.524 14.616C75.4627 13.976 76.5507 13.656 77.788 13.656C79.196 13.656 80.1987 13.9333 80.796 14.488C81.436 15 81.756 15.832 81.756 16.984C81.756 17.6667 81.7133 18.2213 81.628 18.648L79.516 31.064Z"
        fill="white" />
</svg>